<svg width="35" height="35" viewBox="0 0 35 35" fill="none" xmlns="http://www.w3.org/2000/svg">
<path fill-rule="evenodd" clip-rule="evenodd" d="M17.5 35C27.165 35 35 27.165 35 17.5C35 7.83502 27.165 0 17.5 0C7.83502 0 0 7.83502 0 17.5C0 27.165 7.83502 35 17.5 35Z" fill="white"/>
<path d="M17.5 31.1109C25.0172 31.1109 31.1111 25.017 31.1111 17.4998C31.1111 9.9826 25.0172 3.8887 17.5 3.8887C9.98282 3.8887 3.88892 9.9826 3.88892 17.4998C3.88892 25.017 9.98282 31.1109 17.5 31.1109Z" fill="#00C48C"/>
<path d="M21.6687 13.6322C22.0798 13.2211 22.7464 13.2211 23.1575 13.6322C23.5687 14.0434 23.5687 14.71 23.1575 15.1211L16.8407 21.438C16.4296 21.8491 15.763 21.8491 15.3518 21.438L11.8424 17.9286C11.4313 17.5175 11.4313 16.8509 11.8424 16.4397C12.2536 16.0286 12.9202 16.0286 13.3313 16.4397L16.0963 19.2046L21.6687 13.6322Z" fill="white"/>
</svg>
