<svg width="391" height="236" viewBox="0 0 391 236" fill="none" xmlns="http://www.w3.org/2000/svg">
<ellipse opacity="0.2" cx="195.157" cy="223.341" rx="195.157" ry="12.6588" fill="#98C3E8"/>
<path d="M325.438 186.328C321.548 185.355 327.869 197.266 331.515 203.344C334.282 208.205 340.022 207.598 340.022 204.559C340.022 201.52 330.299 187.543 325.438 186.328Z" fill="url(#paint0_linear)"/>
<path d="M354.039 187.515C353.87 183.509 344.237 192.944 339.441 198.162C335.562 202.194 337.771 207.526 340.685 206.666C343.599 205.805 354.25 192.522 354.039 187.515Z" fill="url(#paint1_linear)"/>
<path d="M339.994 182.245C337.468 179.132 335.368 192.452 334.634 199.501C333.928 205.05 338.882 208.012 340.707 205.582C342.532 203.152 343.151 186.137 339.994 182.245Z" fill="url(#paint2_linear)"/>
<path d="M67.1578 220.142L68.981 213.457H63.5115L55.0035 224.396L67.1578 220.142Z" fill="#6FCF97"/>
<path d="M30.6949 224.396L35.5566 220.142L31.3026 217.103L17.9329 224.396H30.6949Z" fill="#6FCF97"/>
<path d="M144.946 86.4444L141.299 94.9525L139.476 97.3833L133.399 99.2065L132.791 92.5216L137.045 82.1904L144.946 86.4444Z" fill="#0AD1BD"/>
<path d="M163.177 90.0914L165 92.5223L169.862 90.0914L167.431 85.8375C165.608 82.7989 162.143 78.7262 160.139 76.7217C158.316 74.8985 158.518 76.114 158.316 77.3294L161.962 82.1911C161.962 82.1911 160.468 83.4819 160.139 84.622C159.738 86.009 159.949 87.065 160.746 88.2683C161.402 89.2574 163.177 90.0914 163.177 90.0914Z" fill="url(#paint3_linear)"/>
<path d="M137.652 104.676L140.691 108.93L146.16 104.676C144.54 102.853 141.298 99.0848 141.298 98.5986V94.9523C140.083 95.3575 138.327 96.6749 136.437 96.1678C134.492 95.6459 133.601 93.7369 132.79 92.5215C132.79 92.5215 131.564 93.1236 130.967 93.7369C128.981 95.7781 129.545 98.5621 130.967 101.03C132.452 103.606 137.652 104.676 137.652 104.676Z" fill="url(#paint4_linear)"/>
<path d="M169.862 90.0908L192.354 111.88L180.193 115.007L165 92.5217L169.862 90.0908Z" fill="url(#paint5_linear)"/>
<path d="M206.934 100.422C204.989 96.0469 212.201 89.6862 216.049 87.0527L232.457 106.5L224.557 116.831L218.48 130.201L208.757 116.831L212.403 108.93C211.39 107.918 208.878 104.798 206.934 100.422Z" fill="url(#paint6_linear)"/>
<path d="M35.5569 219.535L31.3029 217.104L92.6822 156.94H140.692L151.023 176.995L87.8205 188.542L35.5569 219.535Z" fill="#68C9BA"/>
<path opacity="0.2" d="M148.814 176.864L87.7289 188.561L77.3314 194.41L95.527 158.019L148.814 176.864Z" fill="black"/>
<path d="M166.215 144.785C162.326 147.216 155.074 149.039 152.238 149.647L164.392 166.663L201.463 156.332L216.655 120.476L210.578 112.576C207.945 112.171 201.098 110.631 197.209 110.145C192.347 109.538 168.646 117.438 164.392 117.438C160.989 117.438 150.82 108.93 146.16 104.676L140.691 108.93C144.742 114.399 154.182 125.824 159.53 127.769C166.215 130.2 184.447 125.338 183.231 127.769C182.016 130.2 171.077 141.746 166.215 144.785Z" fill="url(#paint7_linear)"/>
<path opacity="0.2" d="M190.404 130.076C188.325 135.275 173.075 142.206 165.71 145.022C173.508 139.823 179.357 132.675 183.256 128.126C186.722 126.827 192.484 124.877 190.404 130.076Z" fill="black"/>
<path d="M68.9815 213.458H63.512C69.184 190.567 81.9866 144.786 87.8206 144.786C93.6547 144.786 133.197 148.027 152.239 149.648L162.57 163.018L135.167 175.565L97.5441 167.272L68.9815 213.458Z" fill="url(#paint8_linear)"/>
<path d="M148.593 220.75C113.345 222.573 109.091 215.28 106.053 209.811C102.406 198.872 106.053 191.579 124.284 180.64C142.516 169.701 165.001 158.763 183.233 148.431C201.464 138.1 229.419 88.8753 257.982 84.0135C286.544 79.1518 304.168 115.615 310.853 153.901C317.538 192.187 296.875 214.065 289.583 214.065C282.29 214.065 183.84 218.926 148.593 220.75Z" fill="url(#paint9_linear)"/>
<path d="M216.049 100.423C212.159 98.964 214.428 91.3068 216.049 87.6605C218.049 80.9756 231.241 69.429 240.357 67.6059C249.473 65.7827 261.627 76.1139 261.627 82.7988C261.627 89.4836 261.627 93.1299 270.135 97.9916C278.643 102.853 280.466 115.615 271.351 121.085C262.235 126.554 263.45 122.3 250.08 127.162C236.711 132.024 229.418 154.509 223.949 144.786C218.479 135.062 227.595 135.67 222.126 128.985C216.656 122.3 230.026 111.969 229.418 107.107C228.81 102.246 220.91 102.246 216.049 100.423Z" fill="#45292F"/>
<rect x="43.2514" y="75.6553" width="47.4018" height="35.2475" fill="#9C69E2"/>
<rect x="67.5139" y="0.756836" width="47.4018" height="35.2475" fill="#9C69E2"/>
<rect x="161.4" y="0.756836" width="47.4018" height="35.2475" fill="#9C69E2"/>
<path d="M324.221 198.483C326.044 195.444 351.315 196.052 352.175 198.483C353.036 200.914 350.959 214.284 346.706 215.499C342.453 216.714 333.945 217.322 330.298 215.499C326.651 213.676 322.398 201.522 324.221 198.483Z" fill="#B5BDFC"/>
<path d="M89.7867 10.6133L83.8298 15.3788H79.0643V22.5271H83.8298L89.7867 27.2926V10.6133Z" stroke="white" stroke-width="2" stroke-linecap="round" stroke-linejoin="round"/>
<path d="M99.4011 10.5293C101.635 12.7635 102.889 15.7932 102.889 18.9523C102.889 22.1115 101.635 25.1412 99.4011 27.3754M95.1956 14.7349C96.3123 15.8519 96.9397 17.3668 96.9397 18.9464C96.9397 20.5259 96.3123 22.0408 95.1956 23.1579" stroke="white" stroke-width="2" stroke-linecap="round" stroke-linejoin="round"/>
<path d="M74.0821 89.7589C74.0821 85.08 70.3275 81.3369 65.6342 81.3369C60.9409 81.3369 57.1862 85.08 57.1862 89.7589C57.1862 92.6598 58.6881 95.28 60.9409 96.7772V99.1166C60.9409 100.333 61.6918 101.362 62.8182 101.737V101.924C62.8182 103.515 64.0385 104.731 65.6342 104.731C67.2299 104.731 68.4502 103.515 68.4502 101.924V101.737C69.5766 101.362 70.3275 100.333 70.3275 99.1166V96.7772C72.5803 95.28 74.0821 92.6598 74.0821 89.7589ZM59.0635 89.7589C59.0635 86.1094 61.9734 83.2085 65.6342 83.2085C69.295 83.2085 72.2048 86.1094 72.2048 89.7589C72.2048 93.0341 69.7643 95.7478 66.5728 96.2157V93.8763L68.1686 92.2855C68.544 91.9112 68.544 91.3497 68.1686 90.9754C67.7931 90.6011 67.2299 90.6011 66.8544 90.9754L65.6342 92.1919L64.4139 90.9754C64.0385 90.6011 63.4753 90.6011 63.0998 90.9754C62.7243 91.3497 62.7243 91.9112 63.0998 92.2855L64.6955 93.8763V96.2157C61.5041 95.7478 59.0635 93.0341 59.0635 89.7589ZM65.6342 102.86C65.071 102.86 64.6955 102.485 64.6955 101.924H66.5728C66.5728 102.485 66.1974 102.86 65.6342 102.86ZM68.4502 99.1166C68.4502 99.6781 68.0747 100.052 67.5115 100.052H63.7569C63.1937 100.052 62.8182 99.6781 62.8182 99.1166V97.713C63.663 97.9937 64.6017 98.1808 65.6342 98.1808C66.6667 98.1808 67.6054 97.9937 68.4502 97.713V99.1166Z" fill="white"/>
<path d="M184.555 28.4837C190.537 28.4837 195.386 23.6346 195.386 17.653C195.386 11.6713 190.537 6.82227 184.555 6.82227C178.574 6.82227 173.725 11.6713 173.725 17.653C173.725 23.6346 178.574 28.4837 184.555 28.4837Z" stroke="white" stroke-width="2" stroke-linecap="round" stroke-linejoin="round"/>
<path d="M184.555 24.1512C188.144 24.1512 191.054 21.2417 191.054 17.6527C191.054 14.0637 188.144 11.1543 184.555 11.1543C180.966 11.1543 178.057 14.0637 178.057 17.6527C178.057 21.2417 180.966 24.1512 184.555 24.1512Z" stroke="white" stroke-width="2" stroke-linecap="round" stroke-linejoin="round"/>
<path d="M184.555 19.8196C185.752 19.8196 186.722 18.8498 186.722 17.6534C186.722 16.4571 185.752 15.4873 184.555 15.4873C183.359 15.4873 182.389 16.4571 182.389 17.6534C182.389 18.8498 183.359 19.8196 184.555 19.8196Z" stroke="white" stroke-width="2" stroke-linecap="round" stroke-linejoin="round"/>
<defs>
<linearGradient id="paint0_linear" x1="332.119" y1="186.271" x2="332.119" y2="206.918" gradientUnits="userSpaceOnUse">
<stop stop-color="#6CEDA0"/>
<stop offset="1" stop-color="#199D56"/>
</linearGradient>
<linearGradient id="paint1_linear" x1="355.985" y1="193.907" x2="336.184" y2="199.754" gradientUnits="userSpaceOnUse">
<stop stop-color="#6CEDA0"/>
<stop offset="1" stop-color="#199D56"/>
</linearGradient>
<linearGradient id="paint2_linear" x1="345.37" y1="186.213" x2="332.971" y2="202.722" gradientUnits="userSpaceOnUse">
<stop stop-color="#6CEDA0"/>
<stop offset="1" stop-color="#199D56"/>
</linearGradient>
<linearGradient id="paint3_linear" x1="171.585" y1="80.0857" x2="157.688" y2="85.9926" gradientUnits="userSpaceOnUse">
<stop stop-color="#FFF8E1"/>
<stop offset="1" stop-color="#FFCC80"/>
</linearGradient>
<linearGradient id="paint4_linear" x1="148.62" y1="96.7326" x2="131.681" y2="107.209" gradientUnits="userSpaceOnUse">
<stop stop-color="#FFF8E1"/>
<stop offset="1" stop-color="#FFCC80"/>
</linearGradient>
<linearGradient id="paint5_linear" x1="180.651" y1="88.4192" x2="179.164" y2="112.934" gradientUnits="userSpaceOnUse">
<stop stop-color="#98D0FC"/>
<stop offset="1" stop-color="#3481D7"/>
</linearGradient>
<linearGradient id="paint6_linear" x1="213.149" y1="93.6848" x2="214.198" y2="110.356" gradientUnits="userSpaceOnUse">
<stop stop-color="#FFF8E1"/>
<stop offset="1" stop-color="#FFCC80"/>
</linearGradient>
<linearGradient id="paint7_linear" x1="157.262" y1="104.731" x2="190.855" y2="144.211" gradientUnits="userSpaceOnUse">
<stop stop-color="#98D0FC"/>
<stop offset="1" stop-color="#3481D7"/>
</linearGradient>
<linearGradient id="paint8_linear" x1="90.9781" y1="141.124" x2="131.268" y2="185.963" gradientUnits="userSpaceOnUse">
<stop stop-color="#68C9BA"/>
<stop offset="1" stop-color="#68C9BA"/>
</linearGradient>
<linearGradient id="paint9_linear" x1="311.925" y1="152.82" x2="216.228" y2="149.076" gradientUnits="userSpaceOnUse">
<stop stop-color="#6979F8"/>
<stop offset="1" stop-color="#DBA0F5"/>
</linearGradient>
</defs>
</svg>
