<svg width="829" height="639" viewBox="0 0 829 639" fill="none" xmlns="http://www.w3.org/2000/svg">
<path d="M690.299 517.858C702.879 517.858 713.078 507.659 713.078 495.079C713.078 482.499 702.879 472.301 690.299 472.301C677.719 472.301 667.521 482.499 667.521 495.079C667.521 507.659 677.719 517.858 690.299 517.858Z" fill="#D8D8D8"/>
<g opacity="0.3">
<path d="M338.024 546.725C358.576 546.725 375.236 530.065 375.236 509.513C375.236 488.961 358.576 472.301 338.024 472.301C317.472 472.301 300.812 488.961 300.812 509.513C300.812 530.065 317.472 546.725 338.024 546.725Z" fill="url(#paint0_linear)"/>
</g>
<g opacity="0.3">
<path d="M85.0242 74.4244C105.576 74.4244 122.236 57.7639 122.236 37.2122C122.236 16.6605 105.576 0 85.0242 0C64.4725 0 47.812 16.6605 47.812 37.2122C47.812 57.7639 64.4725 74.4244 85.0242 74.4244Z" fill="url(#paint1_linear)"/>
</g>
<path d="M514.388 592.283C526.968 592.283 537.166 582.085 537.166 569.505C537.166 556.925 526.968 546.727 514.388 546.727C501.808 546.727 491.61 556.925 491.61 569.505C491.61 582.085 501.808 592.283 514.388 592.283Z" fill="#D8D8D8"/>
<path d="M275.778 598.147C288.359 598.147 298.557 587.948 298.557 575.368C298.557 562.788 288.359 552.59 275.778 552.59C263.198 552.59 253 562.788 253 575.368C253 587.948 263.198 598.147 275.778 598.147Z" fill="#D8D8D8"/>
<g opacity="0.3">
<path d="M22.7784 125.846C35.3585 125.846 45.5568 115.648 45.5568 103.067C45.5568 90.4873 35.3585 80.2891 22.7784 80.2891C10.1982 80.2891 0 90.4873 0 103.067C0 115.648 10.1982 125.846 22.7784 125.846Z" fill="url(#paint2_linear)"/>
</g>
<g opacity="0.3">
<path d="M752.095 573.338C764.675 573.338 774.873 563.14 774.873 550.56C774.873 537.979 764.675 527.781 752.095 527.781C739.515 527.781 729.317 537.979 729.317 550.56C729.317 563.14 739.515 573.338 752.095 573.338Z" fill="url(#paint3_linear)"/>
</g>
<path d="M696.615 638.74C709.195 638.74 719.393 628.542 719.393 615.962C719.393 603.382 709.195 593.184 696.615 593.184C684.035 593.184 673.836 603.382 673.836 615.962C673.836 628.542 684.035 638.74 696.615 638.74Z" fill="#D8D8D8"/>
<path d="M806.222 474.557C818.802 474.557 829 464.359 829 451.778C829 439.198 818.802 429 806.222 429C793.641 429 783.443 439.198 783.443 451.778C783.443 464.359 793.641 474.557 806.222 474.557Z" fill="#D8D8D8"/>
<g opacity="0.3">
<path d="M610.012 554.846C622.592 554.846 632.79 544.648 632.79 532.067C632.79 519.487 622.592 509.289 610.012 509.289C597.432 509.289 587.234 519.487 587.234 532.067C587.234 544.648 597.432 554.846 610.012 554.846Z" fill="url(#paint4_linear)"/>
</g>
<g opacity="0.3">
<path d="M419.441 519.211C429.654 519.211 437.934 510.932 437.934 500.718C437.934 490.504 429.654 482.225 419.441 482.225C409.227 482.225 400.947 490.504 400.947 500.718C400.947 510.932 409.227 519.211 419.441 519.211Z" fill="url(#paint5_linear)"/>
</g>
<path d="M667.521 564.767C674.248 564.767 679.7 559.315 679.7 552.589C679.7 545.863 674.248 540.41 667.521 540.41C660.795 540.41 655.343 545.863 655.343 552.589C655.343 559.315 660.795 564.767 667.521 564.767Z" fill="#D8D8D8"/>
<path d="M525.889 521.919C535.605 521.919 543.481 514.043 543.481 504.328C543.481 494.612 535.605 486.736 525.889 486.736C516.174 486.736 508.298 494.612 508.298 504.328C508.298 514.043 516.174 521.919 525.889 521.919Z" fill="#D8D8D8"/>
<g opacity="0.3">
<path d="M395.083 585.517C401.809 585.517 407.261 580.065 407.261 573.339C407.261 566.613 401.809 561.16 395.083 561.16C388.357 561.16 382.904 566.613 382.904 573.339C382.904 580.065 388.357 585.517 395.083 585.517Z" fill="url(#paint6_linear)"/>
</g>
<g opacity="0.3">
<path d="M456.427 556.197C465.146 556.197 472.214 549.129 472.214 540.41C472.214 531.691 465.146 524.623 456.427 524.623C447.708 524.623 440.64 531.691 440.64 540.41C440.64 549.129 447.708 556.197 456.427 556.197Z" fill="url(#paint7_linear)"/>
</g>
<g opacity="0.3">
<path d="M203.427 83.8963C212.146 83.8963 219.214 76.8282 219.214 68.1093C219.214 59.3903 212.146 52.3223 203.427 52.3223C194.708 52.3223 187.64 59.3903 187.64 68.1093C187.64 76.8282 194.708 83.8963 203.427 83.8963Z" fill="url(#paint8_linear)"/>
</g>
<defs>
<linearGradient id="paint0_linear" x1="341.745" y1="460.586" x2="345.944" y2="592.427" gradientUnits="userSpaceOnUse">
<stop stop-color="#FD749B"/>
<stop offset="1" stop-color="#281AC8"/>
</linearGradient>
<linearGradient id="paint1_linear" x1="88.7454" y1="-11.715" x2="92.9443" y2="120.126" gradientUnits="userSpaceOnUse">
<stop stop-color="#FD749B"/>
<stop offset="1" stop-color="#281AC8"/>
</linearGradient>
<linearGradient id="paint2_linear" x1="25.0562" y1="73.1181" x2="27.6265" y2="153.821" gradientUnits="userSpaceOnUse">
<stop stop-color="#FD749B"/>
<stop offset="1" stop-color="#281AC8"/>
</linearGradient>
<linearGradient id="paint3_linear" x1="754.373" y1="520.61" x2="756.943" y2="601.313" gradientUnits="userSpaceOnUse">
<stop stop-color="#FD749B"/>
<stop offset="1" stop-color="#281AC8"/>
</linearGradient>
<linearGradient id="paint4_linear" x1="612.29" y1="502.118" x2="614.86" y2="582.821" gradientUnits="userSpaceOnUse">
<stop stop-color="#FD749B"/>
<stop offset="1" stop-color="#281AC8"/>
</linearGradient>
<linearGradient id="paint5_linear" x1="421.29" y1="476.403" x2="423.377" y2="541.924" gradientUnits="userSpaceOnUse">
<stop stop-color="#FD749B"/>
<stop offset="1" stop-color="#281AC8"/>
</linearGradient>
<linearGradient id="paint6_linear" x1="396.301" y1="557.326" x2="397.675" y2="600.474" gradientUnits="userSpaceOnUse">
<stop stop-color="#FD749B"/>
<stop offset="1" stop-color="#281AC8"/>
</linearGradient>
<linearGradient id="paint7_linear" x1="458.006" y1="519.653" x2="459.787" y2="575.586" gradientUnits="userSpaceOnUse">
<stop stop-color="#FD749B"/>
<stop offset="1" stop-color="#281AC8"/>
</linearGradient>
<linearGradient id="paint8_linear" x1="205.006" y1="47.3523" x2="206.787" y2="103.285" gradientUnits="userSpaceOnUse">
<stop stop-color="#FD749B"/>
<stop offset="1" stop-color="#281AC8"/>
</linearGradient>
</defs>
</svg>
