<svg width="35" height="35" viewBox="0 0 35 35" fill="none" xmlns="http://www.w3.org/2000/svg">
<path d="M30.3917 6.72363C29.6469 5.97842 28.7625 5.38728 27.7891 4.98396C26.8157 4.58064 25.7724 4.37305 24.7188 4.37305C23.6652 4.37305 22.6219 4.58064 21.6485 4.98396C20.6751 5.38728 19.7907 5.97842 19.0459 6.72363L17.5001 8.26946L15.9542 6.72363C14.4497 5.21907 12.4091 4.37383 10.2813 4.37383C8.15355 4.37383 6.11294 5.21907 4.60839 6.72363C3.10384 8.22818 2.25859 10.2688 2.25859 12.3965C2.25859 14.5243 3.10384 16.5649 4.60839 18.0695L6.15422 19.6153L17.5001 30.9611L28.8459 19.6153L30.3917 18.0695C31.1369 17.3246 31.7281 16.4402 32.1314 15.4669C32.5347 14.4935 32.7423 13.4502 32.7423 12.3965C32.7423 11.3429 32.5347 10.2996 32.1314 9.32623C31.7281 8.35285 31.1369 7.46848 30.3917 6.72363Z" fill="#9C58D4" stroke="#9C58D4" stroke-width="2" stroke-linecap="round" stroke-linejoin="round"/>
</svg>
