<svg width="38" height="34" viewBox="0 0 38 34" fill="none" xmlns="http://www.w3.org/2000/svg">
<rect width="38" height="34" rx="6" fill="#6979F8" fill-opacity="0.4"/>
<path d="M17.1115 15.98H18.5115C19.2315 15.98 19.7581 15.8667 20.0915 15.64C20.4381 15.4 20.6115 14.98 20.6115 14.38V13.74C20.6115 13.0867 20.4248 12.6133 20.0515 12.32C19.6781 12.0267 19.1115 11.88 18.3515 11.88C17.8048 11.88 17.2648 11.94 16.7315 12.06C16.1981 12.1667 15.6248 12.3267 15.0115 12.54V10.36C16.2115 9.6 17.6448 9.22 19.3115 9.22C20.6848 9.22 21.7381 9.58667 22.4715 10.32C23.2048 11.0533 23.5715 12.0333 23.5715 13.26V14.44C23.5715 16.96 22.1581 18.22 19.3315 18.22V19.94H17.1115V15.98ZM17.3515 24.02C17.2315 24.02 17.1315 23.9867 17.0515 23.92C16.9848 23.8533 16.9515 23.7533 16.9515 23.62V21.58C16.9515 21.3 17.0848 21.16 17.3515 21.16H19.0715C19.3648 21.16 19.5115 21.3 19.5115 21.58V23.62C19.5115 23.8867 19.3648 24.02 19.0715 24.02H17.3515Z" fill="white"/>
</svg>
