<svg width="35" height="35" viewBox="0 0 35 35" fill="none" xmlns="http://www.w3.org/2000/svg">
<path d="M26.25 11.666C26.25 9.34537 25.3281 7.11977 23.6872 5.47883C22.0462 3.83789 19.8206 2.91602 17.5 2.91602C15.1794 2.91602 12.9538 3.83789 11.3128 5.47883C9.67187 7.11977 8.75 9.34537 8.75 11.666C8.75 21.8743 4.375 24.791 4.375 24.791H30.625C30.625 24.791 26.25 21.8743 26.25 11.666Z" stroke="#fff" stroke-width="2" stroke-linecap="round" stroke-linejoin="round"/>
<path d="M20.0229 30.625C19.7665 31.067 19.3985 31.4339 18.9557 31.6889C18.5129 31.9439 18.0109 32.0782 17.5 32.0782C16.989 32.0782 16.487 31.9439 16.0442 31.6889C15.6014 31.4339 15.2334 31.067 14.9771 30.625" stroke="#fff" stroke-width="2" stroke-linecap="round" stroke-linejoin="round"/>
</svg>
