<svg width="35" height="35" viewBox="0 0 35 35" fill="none" xmlns="http://www.w3.org/2000/svg">
<path d="M20.0229 30.625C19.7665 31.067 19.3985 31.4339 18.9557 31.6889C18.5129 31.9439 18.0109 32.0782 17.5 32.0782C16.989 32.0782 16.487 31.9439 16.0442 31.6889C15.6014 31.4339 15.2334 31.067 14.9771 30.625" stroke="#fff" stroke-width="2" stroke-linecap="round" stroke-linejoin="round"/>
<path d="M27.1687 18.9577C26.5199 16.5827 26.2106 14.1277 26.2499 11.666" stroke="#fff" stroke-width="2" stroke-linecap="round" stroke-linejoin="round"/>
<path d="M9.12917 9.12891C8.8758 9.95084 8.74797 10.8063 8.75 11.6664C8.75 21.8747 4.375 24.7914 4.375 24.7914H24.7917" stroke="#fff" stroke-width="2" stroke-linecap="round" stroke-linejoin="round"/>
<path d="M26.2498 11.6673C26.2522 10.0822 25.8239 8.52618 25.0107 7.16554C24.1975 5.80489 23.03 4.6907 21.6329 3.94196C20.2358 3.19323 18.6615 2.83808 17.0782 2.91446C15.4949 2.99084 13.9621 3.49587 12.6436 4.37561" stroke="#fff" stroke-width="2" stroke-linecap="round" stroke-linejoin="round"/>
<path d="M1.4585 1.45898L33.5418 33.5423" stroke="#fff" stroke-width="2" stroke-linecap="round" stroke-linejoin="round"/>
</svg>
