<svg width="73" height="73" viewBox="0 0 73 73" fill="none" xmlns="http://www.w3.org/2000/svg">
<path fill-rule="evenodd" clip-rule="evenodd" d="M29.4725 13.7947C31.9444 13.7947 34.4027 14.1048 36.7801 14.7161L38.9576 15.2778L37.8363 19.6305L35.6611 19.071C33.6499 18.5519 31.5668 18.289 29.4725 18.289C15.8438 18.289 4.75435 29.3784 4.75435 43.0072C4.75435 56.6359 15.8438 67.7254 29.4725 67.7254C43.1013 67.7254 54.1907 56.6359 54.1907 43.0072C54.1907 40.9106 53.9278 38.8298 53.411 36.8164L52.8492 34.6412L57.2019 33.5199L57.7614 35.6973C58.3749 38.0748 58.685 40.5331 58.685 43.0072C58.685 59.1144 45.5798 72.2196 29.4725 72.2196C13.3653 72.2196 0.260132 59.1144 0.260132 43.0072C0.260132 26.8999 13.3653 13.7947 29.4725 13.7947ZM55.8206 0L58.0675 11.2354L64.0872 5.21549C64.9658 4.33688 66.3859 4.33688 67.2645 5.21549C68.1064 6.05749 68.1415 7.39685 67.3697 8.2803L67.2645 8.39287L61.2448 14.4128L72.4797 16.6599L59.6719 29.4683L48.4347 27.2212L43.5789 32.0781C45.9258 35.1003 47.3246 38.8935 47.3246 43.0072C47.3246 52.8503 39.3157 60.8592 29.4725 60.8592C19.6294 60.8592 11.6205 52.8503 11.6205 43.0072C11.6205 33.164 19.6294 25.1551 29.4725 25.1551C33.5858 25.1551 37.3788 26.5537 40.4008 28.9002L45.2597 24.0416L43.0128 12.8061L55.8206 0ZM29.4725 29.6181C22.0885 29.6181 16.0835 35.6231 16.0835 43.0072C16.0835 50.3912 22.0885 56.3962 29.4725 56.3962C36.8566 56.3962 42.8616 50.3912 42.8616 43.0072C42.8616 40.1243 41.9463 37.4517 40.391 35.2645L35.7865 39.87C36.2089 40.7487 36.4628 41.7194 36.4628 42.7575C36.4628 46.4742 33.4384 49.4988 29.7218 49.4988C26.0053 49.4988 22.9809 46.4742 22.9809 42.7575C22.9809 39.0409 26.0053 36.0163 29.7218 36.0163C30.6656 36.0163 31.5536 36.2261 32.369 36.58L32.6115 36.6904L37.2135 32.0876C35.0267 30.533 32.3547 29.6181 29.4725 29.6181ZM30.9898 44.5993L31.2386 44.3931C31.0453 44.5729 30.8274 44.7257 30.5824 44.829C30.7253 44.771 30.861 44.6928 30.9898 44.5993ZM28.0793 44.2657L27.974 44.1449C28.0078 44.1859 28.0429 44.2262 28.0793 44.2657ZM27.6479 43.618L27.7132 43.7561C27.6912 43.7139 27.6686 43.6666 27.6479 43.618Z" fill="#C4C4C4"/>
</svg>
