<svg width="22" height="22" viewBox="0 0 22 22" fill="none" xmlns="http://www.w3.org/2000/svg">
<path fill-rule="evenodd" clip-rule="evenodd" d="M11 22C17.0751 22 22 17.0751 22 11C22 4.92487 17.0751 0 11 0C4.92487 0 0 4.92487 0 11C0 17.0751 4.92487 22 11 22Z" fill="white"/>
<path d="M10.9999 19.5564C15.725 19.5564 19.5554 15.726 19.5554 11.0009C19.5554 6.27577 15.725 2.44531 10.9999 2.44531C6.27479 2.44531 2.44434 6.27577 2.44434 11.0009C2.44434 15.726 6.27479 19.5564 10.9999 19.5564Z" fill="#00C48C"/>
<path d="M13.6203 8.56883C13.8787 8.31039 14.2977 8.31039 14.5562 8.56883C14.8146 8.82726 14.8146 9.24627 14.5562 9.5047L10.5856 13.4753C10.3272 13.7337 9.90814 13.7337 9.64971 13.4753L7.44383 11.2694C7.18539 11.011 7.18539 10.592 7.44383 10.3335C7.70226 10.0751 8.12127 10.0751 8.3797 10.3335L10.1176 12.0715L13.6203 8.56883Z" fill="white"/>
</svg>
