<svg width="73" height="73" viewBox="0 0 73 73" fill="none" xmlns="http://www.w3.org/2000/svg">
<path fill-rule="evenodd" clip-rule="evenodd" d="M29.2124 13.7947C31.6842 13.7947 34.1426 14.1048 36.52 14.7161L38.6975 15.2778L37.5761 19.6305L35.4009 19.071C33.3898 18.5519 31.3067 18.289 29.2124 18.289C15.5837 18.289 4.49422 29.3784 4.49422 43.0072C4.49422 56.6359 15.5837 67.7254 29.2124 67.7254C42.8411 67.7254 53.9306 56.6359 53.9306 43.0072C53.9306 40.9106 53.6677 38.8298 53.1509 36.8164L52.5891 34.6412L56.9417 33.5199L57.5013 35.6973C58.1147 38.0748 58.4248 40.5331 58.4248 43.0072C58.4248 59.1144 45.3197 72.2196 29.2124 72.2196C13.1051 72.2196 0 59.1144 0 43.0072C0 26.8999 13.1051 13.7947 29.2124 13.7947ZM55.5604 0L57.8074 11.2354L63.8271 5.21549C64.7057 4.33688 66.1258 4.33688 67.0043 5.21549C67.8463 6.05749 67.8814 7.39685 67.1096 8.2803L67.0043 8.39287L60.9846 14.4128L72.2196 16.6599L59.4118 29.4683L48.1746 27.2212L43.3188 32.0781C45.6656 35.1003 47.0644 38.8935 47.0644 43.0072C47.0644 52.8503 39.0556 60.8592 29.2124 60.8592C19.3692 60.8592 11.3604 52.8503 11.3604 43.0072C11.3604 33.164 19.3692 25.1551 29.2124 25.1551C33.3257 25.1551 37.1186 26.5537 40.1407 28.9002L44.9996 24.0416L42.7526 12.8061L55.5604 0ZM29.2124 29.6181C21.8284 29.6181 15.8234 35.6231 15.8234 43.0072C15.8234 50.3912 21.8284 56.3962 29.2124 56.3962C36.5965 56.3962 42.6014 50.3912 42.6014 43.0072C42.6014 40.1243 41.6861 37.4517 40.1308 35.2645L35.5263 39.87C35.9488 40.7487 36.2027 41.7194 36.2027 42.7575C36.2027 46.4742 33.1782 49.4988 29.4617 49.4988C25.7452 49.4988 22.7208 46.4742 22.7208 42.7575C22.7208 39.0409 25.7452 36.0163 29.4617 36.0163C30.4054 36.0163 31.2935 36.2261 32.1089 36.58L32.3513 36.6904L36.9534 32.0876C34.7666 30.533 32.0945 29.6181 29.2124 29.6181ZM30.7297 44.5993L30.9784 44.3931C30.7852 44.5729 30.5672 44.7257 30.3223 44.829C30.4652 44.771 30.6008 44.6928 30.7297 44.5993ZM27.8192 44.2657L27.7139 44.1449C27.7476 44.1859 27.7828 44.2262 27.8192 44.2657ZM27.3877 43.618L27.4531 43.7561C27.4311 43.7139 27.4084 43.6666 27.3877 43.618Z" fill="#0AD1BD"/>
</svg>
