<svg width="396" height="289" viewBox="0 0 396 289" fill="none" xmlns="http://www.w3.org/2000/svg">
<path d="M193.701 282.282C271.651 282.282 334.842 219.091 334.842 141.141C334.842 63.191 271.651 0 193.701 0C115.751 0 52.5599 63.191 52.5599 141.141C52.5599 219.091 115.751 282.282 193.701 282.282Z" fill="#FAEFE9"/>
<path d="M307.169 287.031C307.231 285.702 307.271 284.369 307.271 283.014C307.271 218.98 238.486 167.07 153.637 167.07C68.7884 167.07 0 218.991 0 283.014C0 284.358 0.0401695 285.691 0.10225 287.031H307.169Z" fill="#E2E2E2"/>
<path d="M395.019 287.03C395.063 286.091 395.096 285.149 395.096 284.2C395.096 238.972 343.734 202.309 280.376 202.309C217.017 202.309 165.655 238.972 165.655 284.2C165.655 285.149 165.684 286.091 165.732 287.03H395.019Z" fill="#EFEFEF"/>
<path d="M59.1331 287.028C59.3423 285.79 59.4474 284.537 59.4472 283.282C59.4472 273.316 52.9653 265.238 44.9679 265.238C36.9705 265.238 30.4923 273.316 30.4923 283.282C30.492 284.537 30.5971 285.79 30.8063 287.028H59.1331Z" fill="#99574A"/>
<path d="M298.043 287.028C298.252 285.79 298.357 284.537 298.357 283.282C298.357 273.316 291.875 265.238 283.878 265.238C275.88 265.238 269.398 273.316 269.398 283.282C269.398 284.537 269.503 285.79 269.712 287.028H298.043Z" fill="#99574A"/>
<path d="M353.448 119.42L311.449 287.029H395.447L353.448 119.42Z" fill="#99574A"/>
<path d="M250.782 172.563C243.288 179.702 271.148 205.513 275.197 201.974C279.247 198.435 258.103 165.588 250.782 172.563Z" fill="#73E5E2"/>
<path d="M253.937 176.137C257.077 178.857 271.465 194.538 275.197 201.973" stroke="#FBDC8E" stroke-width="2" stroke-miterlimit="10" stroke-linecap="round"/>
<path d="M114.925 180.626C125.698 185.527 126.932 203.695 124.975 207.755C121.845 214.241 110.455 223.626 107.391 230.104C106.077 232.887 94.957 261.875 84.6152 258.493C75.4091 255.473 70.3733 242.144 75.5734 232.872C83.2421 219.164 86.3315 200.876 89.0485 195.989C92.6345 189.566 104.441 175.857 114.925 180.626Z" fill="#50B89D"/>
<path d="M80.7589 286.192C80.7589 279.554 84.7758 226.431 103.882 204.732" stroke="#FBDC8E" stroke-width="3" stroke-miterlimit="10" stroke-linecap="round"/>
<path d="M97.0823 214.799L92.9449 198.973" stroke="#FBDC8E" stroke-width="3" stroke-miterlimit="10" stroke-linecap="round"/>
<path d="M99.7591 245.063L108.837 241.393" stroke="#FBDC8E" stroke-width="3" stroke-miterlimit="10" stroke-linecap="round"/>
<path d="M182.223 103.91C183.501 104.144 186.916 104.618 189.406 104.144C191.897 103.669 191.692 98.3958 188.618 98.3191C185.543 98.2424 182.223 103.91 182.223 103.91Z" fill="#1F161E"/>
<path d="M165.097 171.123C164.144 173.986 154.872 211.68 153.079 213.484C151.286 215.288 101.081 241.314 101.081 241.314L104.488 249.932C104.488 249.932 157.099 233.134 159.823 231.648C162.548 230.162 183.29 211.961 186.452 204.314C189.615 196.668 168.73 171.017 165.097 171.123Z" fill="#1F161E"/>
<path d="M215.498 273.777C215.498 274.643 214.991 280.102 216.002 280.606C217.014 281.11 228.134 281.417 228.638 280.909C229.141 280.402 229.448 279.343 229.003 279.04C228.557 278.736 224.255 277.878 223.671 277.473C223.087 277.068 222.28 274.917 222.576 273.777" fill="#1F161E"/>
<path d="M101.461 242.146C100.661 242.479 95.4244 244.104 95.3477 245.232C95.271 246.361 99.2478 256.746 99.9088 257.016C100.57 257.287 101.665 257.166 101.771 256.629C101.877 256.093 101.041 251.798 101.176 251.104C101.311 250.41 103.002 248.844 104.174 248.683" fill="#1F161E"/>
<path d="M213.559 149.641C212.482 149.955 203.824 152.109 202.925 152.109C202.027 152.109 200.771 160.808 201.669 160.72C202.567 160.632 213.921 157.225 216.747 156.955C219.574 156.685 213.559 149.641 213.559 149.641Z" fill="#F8CDBA"/>
<path d="M181.895 111.968C188.355 111.361 200.278 114.465 204.032 116.616C211.423 120.852 202.892 175.472 199.058 179.525C195.629 180.884 166.557 174.048 165.097 171.126C165.874 165.284 177.399 145.031 178.495 143.935C177.765 143.205 174.478 139.188 174.478 139.188C174.478 139.188 177.432 135.222 177.765 134.996C176.822 134.368 167.408 126.933 166.886 126.513C168.767 123.73 179.722 112.172 181.895 111.968Z" fill="#AB8DE5"/>
<path d="M191.167 159.402C190.659 158.164 175.055 139.913 174.493 139.179C175.343 137.996 176.753 136.177 177.911 134.815C173.456 131.565 168.675 127.877 166.955 126.387C166.923 126.423 166.908 126.463 166.875 126.504C166.097 127.435 159.159 137.824 159.159 139.285C159.159 140.745 180.394 161.425 183.045 162.437C185.696 163.449 191.674 160.644 191.167 159.402Z" fill="#F8CDBA"/>
<path d="M193.78 165.43C195.49 162.814 194.554 159.174 191.688 157.3C188.821 155.425 185.111 156.027 183.4 158.643C181.689 161.26 182.626 164.9 185.492 166.774C188.358 168.648 192.069 168.047 193.78 165.43Z" fill="#F8CDBA"/>
<path d="M216.064 157.968C218.848 157.968 221.104 155.711 221.104 152.928C221.104 150.145 218.848 147.889 216.064 147.889C213.281 147.889 211.025 150.145 211.025 152.928C211.025 155.711 213.281 157.968 216.064 157.968Z" fill="#F8CDBA"/>
<path d="M199.058 179.525C199.058 179.525 213.829 208.505 216.09 214.531C218.35 220.556 223.854 274.139 223.854 274.139C223.854 274.139 216.495 275.008 214.516 274.139C212.537 273.269 204.331 234.29 199.807 226.3C192.919 214.158 155.507 191.514 165.086 171.107" fill="#FBDC8E"/>
<path d="M188 114.949C187.832 115.899 195.552 117.286 195.724 116.333L197.448 106.722L189.728 105.334L188 114.949Z" fill="#F8CDBA"/>
<path d="M194.771 109.285C194.019 109.15 188.815 110.414 188.603 111.6L189.728 105.334C190.929 105.535 194.771 109.285 194.771 109.285Z" fill="#1F161E"/>
<path d="M197.736 110.332C203.813 110.332 208.739 105.406 208.739 99.329C208.739 93.2523 203.813 88.3262 197.736 88.3262C191.66 88.3262 186.733 93.2523 186.733 99.329C186.733 105.406 191.66 110.332 197.736 110.332Z" fill="#F8CDBA"/>
<path d="M209.351 103.714C209.449 103.168 208.679 102.573 207.631 102.385C206.582 102.197 205.653 102.487 205.555 103.033C205.457 103.579 206.228 104.174 207.276 104.362C208.324 104.55 209.253 104.26 209.351 103.714Z" fill="#FA9E9F"/>
<path d="M197.423 101.573C197.521 101.027 196.75 100.432 195.702 100.244C194.654 100.056 193.725 100.346 193.627 100.892C193.529 101.438 194.299 102.033 195.348 102.221C196.396 102.409 197.325 102.119 197.423 101.573Z" fill="#FA9E9F"/>
<path d="M203.188 100.498C203.455 101.068 204.894 103.518 202.823 104.037" stroke="#1F161E" stroke-width="1.2" stroke-miterlimit="10" stroke-linecap="round"/>
<path d="M198.547 105.831C197.981 105.711 197.225 104.864 196.874 104.141" stroke="#1F161E" stroke-width="1.2" stroke-miterlimit="10" stroke-linecap="round"/>
<path d="M177.308 135.538C178.312 134.417 182.055 129.786 183.666 128.486" stroke="#1F161E" stroke-miterlimit="10" stroke-linecap="round"/>
<path d="M199.241 84.6011C196.319 84.6011 187.646 83.1696 185.536 81.6797C184.696 82.2676 181.599 85.8427 179.284 90.4439L183.834 93.9935L178.433 92.2808C177.366 94.6556 176.747 97.2072 176.607 99.8071C178.374 103.196 182.702 104.142 183.487 104.142C188.599 104.142 189.549 96.0823 191.963 94.7968C196.06 92.6058 201.665 96.2576 208.005 95.1839C209.024 92.1164 206.237 84.6011 199.241 84.6011Z" fill="#1F161E"/>
<path d="M187.5 101.322C188.904 101.322 190.042 100.184 190.042 98.7799C190.042 97.3762 188.904 96.2383 187.5 96.2383C186.096 96.2383 184.959 97.3762 184.959 98.7799C184.959 100.184 186.096 101.322 187.5 101.322Z" fill="#F8CDBA"/>
<path d="M178.867 159.192C177.929 158.334 169.355 159.638 167.547 164.162C169.924 158.958 172.152 154.667 172.813 153.623C173.518 154.295 178.867 159.192 178.867 159.192Z" fill="#1F161E"/>
<path d="M205.23 152.398C205.029 153.859 206.351 159.465 209.079 158.745L204.079 160.111L205.23 152.398Z" fill="#1F161E"/>
<path d="M49.8321 102.25C64.6948 102.25 69.7124 112.329 69.7124 119.333C69.7124 133.94 66.5499 130.683 66.5499 145.783C66.5499 162.004 87.3358 182.494 87.3358 210.518C87.3358 248.825 53.8965 254.441 49.8321 254.441C28.7468 254.441 20.9101 231.238 20.9101 217.164C20.9101 200.494 35.5975 182.629 35.5975 166.554C35.5975 154.795 31.7559 150.227 31.7559 131.997C31.7705 113.68 42.3606 102.25 49.8321 102.25Z" fill="#73E5E2"/>
<path d="M48.7182 286.192V126.387" stroke="#FBDC8E" stroke-width="3" stroke-miterlimit="10" stroke-linecap="round"/>
<path d="M48.7182 230.105L73.4772 204.732" stroke="#FBDC8E" stroke-width="3" stroke-miterlimit="10" stroke-linecap="round"/>
<path d="M48.1011 158.893L40.1256 150.918" stroke="#FBDC8E" stroke-width="3" stroke-miterlimit="10" stroke-linecap="round"/>
<path d="M48.7182 137.503L59.8525 126.369" stroke="#FBDC8E" stroke-width="3" stroke-miterlimit="10" stroke-linecap="round"/>
<path d="M265.162 149.638C279.302 145.797 284.517 201.176 277.374 202.79C270.231 204.404 257.048 151.844 265.162 149.638Z" fill="#50B89D"/>
<path d="M268.405 158.893C269.559 162.245 276.008 185.744 277.392 202.791" stroke="#FBDC8E" stroke-width="2" stroke-miterlimit="10" stroke-linecap="round"/>
<path d="M319.106 141.141C322.364 141.141 325.953 146.396 326.187 148.221C326.848 153.37 324.796 156.818 324.913 158.892C325.176 163.519 326.892 167.656 325.621 170.18C318.124 185.115 292.569 181.81 289.523 186.948C288.742 188.409 286.496 193.018 286.496 193.018C285.309 191.831 282.304 183.698 282.304 180.525C282.304 177.352 286.708 168.624 295.348 162.398C299.916 159.107 308.308 141.141 319.106 141.141Z" fill="#73E5E2"/>
<path d="M283.878 201.084C284.831 197.797 294.132 169.678 317.39 156.682" stroke="#FBDC8E" stroke-width="2" stroke-miterlimit="10" stroke-linecap="round"/>
<path d="M309.36 162.138C309.542 160.768 310.477 157.924 309.36 153.717" stroke="#FBDC8E" stroke-width="2" stroke-miterlimit="10" stroke-linecap="round"/>
<path d="M303.714 167.334C303.911 165.114 303.714 161.959 302.922 160.166" stroke="#FBDC8E" stroke-width="2" stroke-miterlimit="10" stroke-linecap="round"/>
<path d="M298.503 173.339C302.378 172.802 306.32 173.006 310.119 173.942" stroke="#FBDC8E" stroke-width="2" stroke-miterlimit="10" stroke-linecap="round"/>
<path d="M313.49 171.959L285.631 287.026H341.349L313.49 171.959Z" fill="#B37361"/>
<path d="M45.2564 287.031C45.2564 283.598 51.4644 271.693 62.0546 271.693C72.4 271.693 74.7773 275.484 83.3626 275.484C89.7752 275.484 89.3369 272.957 95.3514 272.957C107.651 272.957 112.434 282.707 112.434 287.042L45.2564 287.031Z" fill="#B37361"/>
<path d="M313.49 208.367V287.03" stroke="#FBDC8E" stroke-width="3" stroke-miterlimit="10" stroke-linecap="round"/>
<path d="M353.448 167.336V287.03" stroke="#FBDC8E" stroke-width="3" stroke-miterlimit="10" stroke-linecap="round"/>
<path d="M313.49 237.754L320.881 230.363" stroke="#FBDC8E" stroke-width="3" stroke-miterlimit="10" stroke-linecap="round"/>
<path d="M313.49 269.677L301.994 258.182" stroke="#FBDC8E" stroke-width="3" stroke-miterlimit="10" stroke-linecap="round"/>
<path d="M353.448 201.526L345.041 193.119" stroke="#FBDC8E" stroke-width="3" stroke-miterlimit="10" stroke-linecap="round"/>
<path d="M353.448 249.917L370.195 233.166" stroke="#FBDC8E" stroke-width="3" stroke-miterlimit="10" stroke-linecap="round"/>
<path d="M30.4923 77.0901C30.4923 71.7695 43.7044 70.6411 48.9228 70.6411C59.5129 70.6411 60.2177 64.5792 69.0075 64.5792C76.7346 64.5792 80.6676 70.8347 87.8689 70.8347C103.323 70.8347 106.763 53.0469 121.79 53.0469C137.077 53.0469 136.299 71.6161 150.526 71.6161C157.76 71.6161 201.22 72.9856 201.22 77.0938L30.4923 77.0901Z" fill="white"/>
<path d="M241.017 99.5877C241.017 96.2244 252.469 90.9622 258.732 90.9622C271.086 90.9622 267.229 95.275 275 95.275C283.856 95.275 285.879 76.0703 299.354 76.0703C314.082 76.0703 311.77 94.8514 320.808 94.8514C324.701 94.8514 326.651 93.0255 332.187 93.0255C335.393 93.0255 338.906 96.2317 338.906 99.5987L241.017 99.5877Z" fill="white"/>
</svg>
