<svg fill="none" height="35" viewBox="0 0 35 35" width="35" xmlns="http://www.w3.org/2000/svg"><g stroke="#fff" stroke-linecap="round" stroke-linejoin="round" stroke-width="2"><path d="m26.25 11.6667c0-2.32069-.9219-4.54628-2.5628-6.18723-1.641-1.64094-3.8666-2.56281-6.1872-2.56281s-4.5462.92187-6.1872 2.56281c-1.64093 1.64095-2.5628 3.86654-2.5628 6.18723 0 10.2083-4.375 13.125-4.375 13.125h26.25s-4.375-2.9167-4.375-13.125z"/><path d="m20.0229 30.625c-.2564.442-.6244.8089-1.0672 1.0639-.4427.255-.9447.3893-1.4557.3893s-1.013-.1343-1.4557-.3893c-.4428-.255-.8108-.6219-1.0672-1.0639"/></g></svg>