<svg width="66" height="66" viewBox="0 0 66 66" fill="none" xmlns="http://www.w3.org/2000/svg">
<path fill-rule="evenodd" clip-rule="evenodd" d="M33 66C51.2254 66 66 51.2254 66 33C66 14.7746 51.2254 0 33 0C14.7746 0 0 14.7746 0 33C0 51.2254 14.7746 66 33 66Z" fill="white"/>
<path d="M33 59.8125C47.8081 59.8125 59.8125 47.8081 59.8125 33C59.8125 18.1919 47.8081 6.1875 33 6.1875C18.1919 6.1875 6.1875 18.1919 6.1875 33C6.1875 47.8081 18.1919 59.8125 33 59.8125Z" fill="#6979F8"/>
<path d="M31.256 32.178H32.796C33.588 32.178 34.1673 32.0533 34.534 31.804C34.9153 31.54 35.106 31.078 35.106 30.418V29.714C35.106 28.9953 34.9007 28.4747 34.49 28.152C34.0793 27.8293 33.456 27.668 32.62 27.668C32.0187 27.668 31.4247 27.734 30.838 27.866C30.2513 27.9833 29.6207 28.1593 28.946 28.394V25.996C30.266 25.16 31.8427 24.742 33.676 24.742C35.1867 24.742 36.3453 25.1453 37.152 25.952C37.9587 26.7587 38.362 27.8367 38.362 29.186V30.484C38.362 33.256 36.8073 34.642 33.698 34.642V36.534H31.256V32.178ZM31.52 41.022C31.388 41.022 31.278 40.9853 31.19 40.912C31.1167 40.8387 31.08 40.7287 31.08 40.582V38.338C31.08 38.03 31.2267 37.876 31.52 37.876H33.412C33.7347 37.876 33.896 38.03 33.896 38.338V40.582C33.896 40.8753 33.7347 41.022 33.412 41.022H31.52Z" fill="white"/>
</svg>
