<svg width="36" height="36" viewBox="0 0 36 36" fill="none" xmlns="http://www.w3.org/2000/svg">
<path d="M29.2934 13.1977H16.1684C14.5576 13.1977 13.2517 14.5035 13.2517 16.1144V29.2394C13.2517 30.8502 14.5576 32.156 16.1684 32.156H29.2934C30.9042 32.156 32.2101 30.8502 32.2101 29.2394V16.1144C32.2101 14.5035 30.9042 13.1977 29.2934 13.1977Z" stroke="white" stroke-width="2" stroke-linecap="round" stroke-linejoin="round"/>
<path d="M7.4184 21.9477H5.96006C5.18651 21.9477 4.44465 21.6404 3.89767 21.0934C3.35069 20.5465 3.0434 19.8046 3.0434 19.031V5.90604C3.0434 5.13249 3.35069 4.39063 3.89767 3.84365C4.44465 3.29667 5.18651 2.98938 5.96006 2.98938H19.0851C19.8586 2.98938 20.6005 3.29667 21.1475 3.84365C21.6944 4.39063 22.0017 5.13249 22.0017 5.90604V7.36438" stroke="white" stroke-width="2" stroke-linecap="round" stroke-linejoin="round"/>
</svg>
