<svg width="29" height="29" viewBox="0 0 29 29" fill="none" xmlns="http://www.w3.org/2000/svg">
<path d="M4.17009 23.0098C4.65821 20.9555 6.50292 19.4254 8.70725 19.4209C11.2882 19.4155 13.3849 21.5035 13.3902 24.0844C13.3956 26.6654 11.3077 28.7621 8.72667 28.7674C6.52233 28.772 4.67129 27.2497 4.17464 25.1973L1.56015 25.2028C0.956095 25.204 0.46539 24.7154 0.464135 24.1113C0.46288 23.5072 0.95155 23.0165 1.55561 23.0153L4.17009 23.0098ZM13.6957 13.4446C14.1838 11.3902 16.0285 9.86018 18.2329 9.8556C20.8138 9.85024 22.9105 11.9382 22.9158 14.5192C22.9212 17.1002 20.8333 19.1968 18.2523 19.2022C16.0479 19.2068 14.1969 17.6844 13.7002 15.6321L1.54032 15.6573C0.936264 15.6586 0.445559 15.1699 0.444304 14.5659C0.443049 13.9618 0.931719 13.4711 1.53578 13.4698L13.6957 13.4446ZM4.13043 3.91898C4.61855 1.8646 6.46325 0.334575 8.66759 0.329996C11.2486 0.324634 13.3452 2.41259 13.3506 4.99357C13.3559 7.57456 11.268 9.6712 8.68701 9.67657C6.48267 9.68115 4.63163 8.1588 4.13498 6.10647L1.52049 6.1119C0.916433 6.11316 0.425728 5.62449 0.424473 5.02043C0.423218 4.41637 0.911888 3.92566 1.51595 3.92441L4.13043 3.91898ZM17.0318 6.07968C16.4278 6.08093 15.9371 5.59226 15.9358 4.9882C15.9345 4.38414 16.4232 3.89344 17.0273 3.89218L27.7659 3.86987C28.37 3.86862 28.8607 4.35729 28.8619 4.96135C28.8632 5.56541 28.3745 6.05611 27.7704 6.05737L17.0318 6.07968ZM26.5971 15.6053C25.993 15.6065 25.5023 15.1179 25.5011 14.5138C25.4998 13.9097 25.9885 13.419 26.5925 13.4178L27.7857 13.4153C28.3898 13.4141 28.8805 13.9027 28.8817 14.5068C28.883 15.1108 28.3943 15.6015 27.7903 15.6028L26.5971 15.6053ZM17.0715 25.1705C16.4674 25.1718 15.9767 24.6831 15.9755 24.0791C15.9742 23.475 16.4629 22.9843 17.0669 22.983L27.8056 22.9607C28.4096 22.9595 28.9003 23.4482 28.9016 24.0522C28.9028 24.6563 28.4142 25.147 27.8101 25.1482L17.0715 25.1705ZM8.68246 7.48907C10.0553 7.48622 11.1659 6.37098 11.1631 4.99812C11.1602 3.62525 10.045 2.51464 8.67213 2.51749C7.29927 2.52034 6.18865 3.63558 6.19151 5.00845C6.19436 6.38131 7.3096 7.49192 8.68246 7.48907ZM18.2477 17.0147C19.6206 17.0118 20.7312 15.8966 20.7284 14.5237C20.7255 13.1509 19.6103 12.0402 18.2374 12.0431C16.8645 12.0459 15.7539 13.1612 15.7568 14.534C15.7596 15.9069 16.8749 17.0175 18.2477 17.0147ZM8.72212 26.5799C10.095 26.5771 11.2056 25.4618 11.2027 24.089C11.1999 22.7161 10.0847 21.6055 8.71179 21.6084C7.33893 21.6112 6.22832 22.7265 6.23117 24.0993C6.23402 25.4722 7.34926 26.5828 8.72212 26.5799Z" fill="white"/>
</svg>
