<svg width="29" height="29" viewBox="0 0 29 29" fill="none" xmlns="http://www.w3.org/2000/svg">
<path d="M27.7517 15.7248C27.5223 18.2072 26.5906 20.5729 25.0658 22.5451C23.5409 24.5173 21.4859 26.0145 19.1412 26.8614C16.7965 27.7083 14.2591 27.87 11.8259 27.3274C9.39273 26.7849 7.16436 25.5606 5.40157 23.7978C3.63878 22.035 2.41449 19.8066 1.87194 17.3734C1.32939 14.9402 1.49103 12.4028 2.33795 10.0581C3.18487 7.71344 4.68204 5.65844 6.65426 4.13358C8.62648 2.60873 10.9922 1.6771 13.4746 1.44769C12.0212 3.41392 11.3219 5.83647 11.5037 8.27476C11.6855 10.713 12.7365 13.0051 14.4654 14.734C16.1943 16.4629 18.4863 17.5138 20.9246 17.6957C23.3629 17.8775 25.7854 17.1781 27.7517 15.7248Z" stroke="white" stroke-width="2" stroke-linecap="round" stroke-linejoin="round"/>
</svg>
