<svg width="31" height="31" viewBox="0 0 31 31" fill="none" xmlns="http://www.w3.org/2000/svg">
<path d="M13.0746 5.36435H15.6267V29.6091C15.6267 30.3748 15.1163 30.8852 14.3507 30.8852H1.59025C0.824626 30.8852 0.314209 30.3748 0.314209 29.6091V5.36435H2.86629V7.53362L7.97046 0.642998L13.0746 7.53362V5.36435ZM7.97046 19.4008C10.1397 19.4008 11.7986 17.742 11.7986 15.5727C11.7986 13.4034 10.1397 11.7446 7.97046 11.7446C5.80119 11.7446 4.14233 13.4034 4.14233 15.5727C4.14233 17.742 5.80119 19.4008 7.97046 19.4008ZM28.3871 18.1248H30.9392V29.6091C30.9392 30.3748 30.4288 30.8852 29.6632 30.8852H19.4548C18.6892 30.8852 18.1788 30.3748 18.1788 29.6091V18.1248H20.7309V20.6769H23.283V18.1248H25.835V20.6769H28.3871V18.1248Z" fill="white"/>
</svg>
