<svg width="36" height="37" viewBox="0 0 36 37" fill="none" xmlns="http://www.w3.org/2000/svg">
<path d="M30.9616 19.6451C30.727 22.127 29.7905 24.4907 28.2615 26.4598C26.7326 28.4288 24.6745 29.9217 22.328 30.7638C19.9816 31.6058 17.4439 31.7622 15.0118 31.2146C12.5797 30.667 10.3539 29.4381 8.59478 27.6716C6.83566 25.9052 5.616 23.6743 5.07851 21.2399C4.54102 18.8056 4.70793 16.2686 5.55972 13.9256C6.4115 11.5827 7.91294 9.53082 9.88832 8.01007C11.8637 6.48932 14.2314 5.5626 16.7142 5.33836C15.2568 7.30156 14.5524 9.72266 14.7291 12.1613C14.9059 14.6 15.9521 16.8942 17.6774 18.6267C19.4027 20.3592 21.6926 21.4149 24.1305 21.6018C26.5684 21.7887 28.9924 21.0943 30.9616 19.6451Z" stroke="white" stroke-width="2" stroke-linecap="round" stroke-linejoin="round"/>
</svg>
