<svg width="35" height="36" viewBox="0 0 35 36" fill="none" xmlns="http://www.w3.org/2000/svg">
<g clip-path="url(#clip0)">
<path d="M17.5002 0.933655C7.85036 0.933655 0.000152588 8.78386 0.000152588 18.4337C0.000152588 28.0834 7.85036 35.9337 17.5002 35.9337C27.1499 35.9337 35.0002 28.0834 35.0002 18.4337C35.0002 8.78386 27.1499 0.933655 17.5002 0.933655ZM27.2681 29.2312C26.2997 26.3539 23.6222 24.267 20.4168 24.267H14.5835C11.3781 24.267 8.70349 26.3553 7.73515 29.2326C4.78494 26.5624 2.91682 22.7168 2.91682 18.4337C2.91682 10.3924 9.4589 3.85032 17.5002 3.85032C25.5414 3.85032 32.0835 10.3924 32.0835 18.4337C32.0835 22.7153 30.2168 26.5609 27.2681 29.2312Z" fill="white"/>
<path d="M17.5001 8.22534C14.2787 8.22534 11.6668 10.8372 11.6668 14.0587V15.517C11.6668 18.7385 14.2787 21.3503 17.5001 21.3503C20.7216 21.3503 23.3335 18.7385 23.3335 15.517V14.0587C23.3335 10.8372 20.7216 8.22534 17.5001 8.22534Z" fill="white"/>
</g>
<defs>
<clipPath id="clip0">
<rect width="35" height="35" fill="white" transform="translate(0.000152588 0.933655)"/>
</clipPath>
</defs>
</svg>
