<svg width="31" height="31" viewBox="0 0 31 31" fill="none" xmlns="http://www.w3.org/2000/svg">
<path d="M30.4792 28.2042C31.0926 28.8175 31.0926 29.8119 30.4792 30.4252C29.8659 31.0386 28.8715 31.0386 28.2582 30.4252L22.7614 24.9284C22.1481 24.3151 22.1481 23.3207 22.7614 22.7074C23.3747 22.0941 24.3691 22.0941 24.9825 22.7074L30.4792 28.2042ZM12.8783 25.3884C5.93938 25.3884 0.31424 19.7633 0.31424 12.8243C0.31424 5.88536 5.93938 0.260223 12.8783 0.260223C19.8173 0.260223 25.4424 5.88536 25.4424 12.8243C25.4424 19.7633 19.8173 25.3884 12.8783 25.3884ZM12.8783 22.2474C18.0826 22.2474 22.3014 18.0285 22.3014 12.8243C22.3014 7.6201 18.0826 3.40125 12.8783 3.40125C7.67412 3.40125 3.45527 7.6201 3.45527 12.8243C3.45527 18.0285 7.67412 22.2474 12.8783 22.2474Z" fill="white"/>
</svg>
