<svg width="36" height="36" viewBox="0 0 36 36" fill="none" xmlns="http://www.w3.org/2000/svg">
<path d="M18.3124 26.373C13.4424 26.3831 9.48635 22.4434 9.47623 17.5735C9.46611 12.7036 13.4058 8.74749 18.2757 8.73738C23.1457 8.72726 27.1017 12.6669 27.1118 17.5369C27.122 22.4068 23.1823 26.3629 18.3124 26.373ZM18.3073 23.9311C21.8286 23.9238 24.6773 21.0633 24.67 17.5419C24.6627 14.0206 21.8021 11.1719 18.2808 11.1792C14.7595 11.1865 11.9108 14.0471 11.9181 17.5684C11.9254 21.0898 14.7859 23.9385 18.3073 23.9311ZM35.7337 16.1911L35.7392 18.8076C35.7432 19.9591 34.9671 20.9673 33.853 21.258L31.8896 21.7704C31.6364 22.5901 31.3093 23.3851 30.9121 24.1456L31.9439 25.8895C32.5296 26.8794 32.3718 28.1401 31.5602 28.955L29.7126 30.8103C28.901 31.6253 27.641 31.7883 26.6488 31.2068L24.9004 30.1822C24.1596 30.5728 23.3855 30.897 22.5874 31.1508L22.0785 33.1359C21.7931 34.2507 20.7898 35.0311 19.6392 35.0334L17.0206 35.0389C15.8703 35.0409 14.8642 34.2647 14.5741 33.1507L14.0636 31.1844C13.2562 30.9339 12.4728 30.6117 11.7228 30.2215L9.92515 31.2854C8.93529 31.8711 7.6746 31.7134 6.85966 30.9018L5.00436 29.0542C4.18936 28.2426 4.02634 26.9825 4.60744 25.9911L5.66072 24.1908C5.26573 23.4402 4.93898 22.6556 4.6844 21.8465L2.63675 21.3208C1.52239 21.0356 0.742011 20.0327 0.739242 18.882L0.733802 16.2639C0.731311 15.1133 1.50762 14.1066 2.62061 13.8168L4.69326 13.276C4.93838 12.5022 5.24959 11.7509 5.62343 11.0303L4.52907 9.18094C3.94334 8.19108 4.10113 6.93039 4.91273 6.11545L6.76034 4.26015C7.57192 3.44515 8.83194 3.28213 9.82413 3.86368L11.6784 4.9503C12.4169 4.56292 13.1881 4.24154 13.9831 3.9899L14.5095 1.93646C14.7948 0.822105 15.7976 0.0417217 16.9483 0.0389524L19.5664 0.0335132C20.7171 0.031022 21.7237 0.807331 22.0137 1.92101L22.5505 3.98347C23.3389 4.23161 24.1041 4.5483 24.8373 4.92991L26.6326 3.86951C27.6225 3.28379 28.8832 3.44158 29.6981 4.25318L31.5529 6.10024C32.3679 6.91182 32.5309 8.17184 31.9494 9.16402L30.8933 10.9662C31.2763 11.6954 31.595 12.4566 31.8457 13.2412L33.8366 13.7519C34.9511 14.0374 35.7314 15.0407 35.7337 16.1911ZM33.2307 16.1174L30.5654 15.4336C30.1367 15.3237 29.8011 14.9903 29.6882 14.5624C29.4114 13.5132 28.9902 12.5075 28.4367 11.5742C28.2102 11.1922 28.2089 10.7173 28.4335 10.3341L29.8426 7.92935C29.8614 7.89734 29.8561 7.8567 29.8298 7.8305L27.975 5.9834C27.9488 5.95722 27.9081 5.95213 27.8753 5.97152L25.4782 7.38736C25.0959 7.61313 24.6212 7.61362 24.2385 7.38862C23.3009 6.83739 22.291 6.41937 21.2381 6.1466C20.8093 6.03551 20.4743 5.7009 20.3628 5.27224L19.6506 2.53625C19.6412 2.50033 19.6088 2.47529 19.5716 2.47537L16.9537 2.48081C16.9166 2.4809 16.8843 2.50607 16.875 2.54241L16.1752 5.27224C16.065 5.70226 15.73 6.03856 15.3005 6.15053C14.2417 6.42651 13.2267 6.84944 12.2852 7.40699C11.9033 7.63316 11.4287 7.63425 11.0458 7.40984L8.58945 5.97039C8.55744 5.95163 8.51679 5.95689 8.49059 5.9832L6.64295 7.83853C6.61677 7.86482 6.61168 7.90549 6.63057 7.93741L8.08016 10.3871C8.30614 10.769 8.30713 11.2434 8.08274 11.6263C7.53932 12.5534 7.126 13.5509 6.8544 14.5907C6.74275 15.0182 6.40885 15.352 5.98134 15.4636L3.23654 16.1797C3.20062 16.1891 3.17558 16.2215 3.17566 16.2588L3.1811 18.8766C3.18118 18.9137 3.20636 18.946 3.24315 18.9554L5.96864 19.6552C6.39921 19.7658 6.73566 20.1016 6.84702 20.5319C7.12421 21.6032 7.55173 22.6298 8.11684 23.5811C8.34365 23.963 8.34523 24.4378 8.12096 24.8212L6.7146 27.225C6.69584 27.2571 6.7011 27.2977 6.72741 27.3239L8.58274 29.1715C8.60903 29.1977 8.6497 29.2028 8.68155 29.184L11.0803 27.7643C11.4627 27.538 11.9378 27.5373 12.3208 27.7624C13.2731 28.3221 14.2998 28.7444 15.3703 29.0166C15.8017 29.1263 16.1392 29.4622 16.2511 29.8931L16.9374 32.5361C16.9467 32.572 16.9792 32.5971 17.0159 32.597L19.6342 32.5916C19.6713 32.5915 19.7037 32.5663 19.713 32.53L20.395 29.8696C20.5051 29.4403 20.8392 29.1043 21.268 28.9918C22.3295 28.7134 23.3467 28.2873 24.2897 27.726C24.6719 27.4984 25.1477 27.4968 25.5315 27.7217L27.8835 29.1001C27.9155 29.1188 27.9562 29.1136 27.9824 29.0873L29.83 27.2319C29.8562 27.2056 29.8613 27.165 29.8423 27.133L28.4543 24.7868C28.2277 24.4038 28.2274 23.928 28.4535 23.5448C29.0201 22.5841 29.4467 21.5475 29.7204 20.4663C29.8296 20.0348 30.165 19.6969 30.5957 19.5845L33.2365 18.8952C33.2724 18.8858 33.2974 18.8533 33.2973 18.8144L33.2919 16.1961C33.2918 16.159 33.2666 16.1266 33.2307 16.1174Z" fill="white"/>
</svg>
