<svg width="9" height="16" viewBox="0 0 9 16" fill="none" xmlns="http://www.w3.org/2000/svg">
<path d="M2.16703 6.98H3.56703C4.28703 6.98 4.8137 6.86667 5.14703 6.64C5.4937 6.4 5.66703 5.98 5.66703 5.38V4.74C5.66703 4.08667 5.48036 3.61333 5.10703 3.32C4.7337 3.02667 4.16703 2.88 3.40703 2.88C2.86036 2.88 2.32036 2.94 1.78703 3.06C1.2537 3.16667 0.680365 3.32667 0.0670313 3.54V1.36C1.26703 0.599999 2.70036 0.22 4.36703 0.22C5.74037 0.22 6.7937 0.586666 7.52703 1.32C8.26036 2.05333 8.62703 3.03333 8.62703 4.26V5.44C8.62703 7.96 7.2137 9.22 4.38703 9.22V10.94H2.16703V6.98ZM2.40703 15.02C2.28703 15.02 2.18703 14.9867 2.10703 14.92C2.04036 14.8533 2.00703 14.7533 2.00703 14.62V12.58C2.00703 12.3 2.14036 12.16 2.40703 12.16H4.12703C4.42036 12.16 4.56703 12.3 4.56703 12.58V14.62C4.56703 14.8867 4.42036 15.02 4.12703 15.02H2.40703Z" fill="white"/>
</svg>
