<svg fill="none" height="464" viewBox="0 0 294 464" width="294" xmlns="http://www.w3.org/2000/svg"><path clip-rule="evenodd" d="m293.857 275.428c0 60.569-39.55 94.359-91.063 94.359-51.514 0-91.064-33.79-91.064-94.359 0-127.526 58.122-274.542502 91.064-274.542502 32.941 0 91.063 147.016502 91.063 274.542502" fill="#cce3ff" fill-rule="evenodd"/><g stroke="#ecf6ff"><path d="m202.794 185.336v279.561" stroke-linecap="square" stroke-width="8"/><path d="m203.882 333.432 32.23-32.212" stroke-linecap="square" stroke-width="8"/><path d="m200.096 272.058-26.374-26.359" stroke-linecap="square" stroke-width="8"/><path d="m204.381 230.767 20.133-20.122" stroke-linecap="square" stroke-width="8"/></g><path clip-rule="evenodd" d="m136.215 357.475c0 46.685-30.536 67.636-68.0537 67.636-37.5147 0-68.050208-20.951-68.050208-67.636 0-86.963 37.138708-168.175 68.050208-168.175 30.9149 0 68.0537 81.212 68.0537 168.175" fill="#ecf6ff" fill-rule="evenodd"/><path d="m68.1632 281.89v181.97" stroke="#cce3ff" stroke-linecap="square" stroke-width="8"/><path d="m69.4013 394.473 25.272-25.231" stroke="#cce3ff" stroke-linecap="square" stroke-width="8"/><path d="m68.9886 313.3 15.704-15.677" stroke="#cce3ff" stroke-linecap="square" stroke-width="8"/><path d="m67.3378 357.629-23.2993-23.261" stroke="#cce3ff" stroke-linecap="square" stroke-width="8"/></svg>