<svg fill="none" height="35" viewBox="0 0 35 35" width="35" xmlns="http://www.w3.org/2000/svg"><path d="m30.3917 6.72289c-.7448-.7452-1.6292-1.33635-2.6026-1.73967s-2.0167-.61091-3.0703-.61091-2.0969.20759-3.0703.61091-1.8578.99447-2.6026 1.73967l-1.5458 1.54584-1.5459-1.54584c-1.5045-1.50455-3.5451-2.3498-5.6729-2.3498-2.12775 0-4.16836.84525-5.67291 2.3498s-2.3498 3.54521-2.3498 5.67291c0 2.1278.84525 4.1684 2.3498 5.6729l1.54583 1.5459 11.34588 11.3458 11.3458-11.3458 1.5458-1.5459c.7452-.7448 1.3364-1.6292 1.7397-2.6026s.6109-2.0167.6109-3.0703-.2076-2.0969-.6109-3.0703c-.4033-.97338-.9945-1.85775-1.7397-2.60261z" fill="#fff" stroke="#fff" stroke-linecap="round" stroke-linejoin="round" stroke-width="2"/></svg>