<svg fill="none" height="35" viewBox="0 0 35 35" width="35" xmlns="http://www.w3.org/2000/svg"><g stroke="#fff" stroke-linecap="round" stroke-linejoin="round" stroke-width="2"><path d="m20.0229 30.625c-.2564.442-.6244.8089-1.0672 1.0639-.4427.255-.9447.3893-1.4557.3893s-1.013-.1343-1.4557-.3893c-.4428-.255-.8108-.6219-1.0672-1.0639"/><path d="m27.1687 18.9583c-.6488-2.375-.9581-4.8299-.9188-7.2916"/><path d="m9.12917 9.12918c-.25337.82193-.38119 1.67742-.37917 2.53752 0 10.2083-4.375 13.125-4.375 13.125h20.4167"/><path d="m26.25 11.6667c.0023-1.5851-.426-3.14113-1.2391-4.50177-.8132-1.36065-1.9807-2.47484-3.3778-3.22358-1.3972-.74873-2.9715-1.10388-4.5547-1.0275-1.5833.07638-3.1161.58141-4.4347 1.46115"/><path d="m1.45834 1.45834 32.08336 32.08336"/></g></svg>