<svg width="35" height="35" viewBox="0 0 35 35" fill="none" xmlns="http://www.w3.org/2000/svg">
<path fill-rule="evenodd" clip-rule="evenodd" d="M17.5 35C27.165 35 35 27.165 35 17.5C35 7.83502 27.165 0 17.5 0C7.83502 0 0 7.83502 0 17.5C0 27.165 7.83502 35 17.5 35Z" fill="white"/>
<path d="M17.5 31.1109C25.0172 31.1109 31.1111 25.017 31.1111 17.4998C31.1111 9.98257 25.0172 3.88867 17.5 3.88867C9.98282 3.88867 3.88892 9.98257 3.88892 17.4998C3.88892 25.017 9.98282 31.1109 17.5 31.1109Z" fill="#00C48C"/>
<path d="M21.6687 13.6322C22.0799 13.2211 22.7465 13.2211 23.1576 13.6322C23.5688 14.0434 23.5688 14.71 23.1576 15.1211L16.8408 21.438C16.4296 21.8491 15.763 21.8491 15.3519 21.438L11.8425 17.9286C11.4314 17.5174 11.4314 16.8508 11.8425 16.4397C12.2537 16.0286 12.9203 16.0286 13.3314 16.4397L16.0963 19.2046L21.6687 13.6322Z" fill="white"/>
</svg>
