<svg fill="none" height="410" viewBox="0 0 191 410" width="191" xmlns="http://www.w3.org/2000/svg"><path clip-rule="evenodd" d="m20.7666 216.552c-2.9603-8.864-19.18595-7.363-19.18829-32.079-.00421-37.214 51.24679-32.966 54.26879-61.005 3.0225-28.0391-29.9106-27.3693-30.9303-51.0189-1.0196-23.65 24.0223-72.4491 62.0168-72.4491 29.9594 0 5.1455 37.6535 29.3234 54.4919 24.179 16.8384 51.793-4.7335 65.46 21.7449 18.826 36.4732-29.313 80.2762-24.563 108.2362 4.749 27.961 32.969 21.35 33.833 52.072.863 30.722-40.13 36.128-36.268 62.472 2.435 16.606 28.377 11.062 29.738 43.807 1.152 27.724-87.9826 62.029-154.94 5.613-66.958-56.417 2.5487-98.055-8.7504-131.885" fill="#08361e" fill-opacity=".87" fill-rule="evenodd"/><g stroke="#0b4d21" stroke-linecap="square" stroke-width="8"><path d="m94.5643 149.398v272.468"/><path d="m95.9677 333.882 35.0113-35.011"/><path d="m96.4352 234.154 17.7988-17.798"/><path d="m92.6933 273.78-27.918-27.918"/><path d="m93.3379 187.578-13.5647-13.564"/></g></svg>