<svg width="298" height="312" viewBox="0 0 298 312" fill="none" xmlns="http://www.w3.org/2000/svg">
<mask id="mask0" mask-type="alpha" maskUnits="userSpaceOnUse" x="199" y="297" width="99" height="15">
<path fill-rule="evenodd" clip-rule="evenodd" d="M282.234 311.99H199.338C202.382 310.891 205.504 309.951 208.273 308.452C210.753 307.112 211.989 304.764 214.66 305.373C229.12 299.476 244.073 296.917 259.69 297.163C268.104 297.294 275.568 299.465 283.578 301.976C286.751 302.971 289.853 304.154 293.159 304.605C294.621 304.804 296.316 304.652 297.57 305.207C292.288 307.281 287.475 309.92 282.234 311.99V311.99Z" fill="white"/>
</mask>
<g mask="url(#mask0)">
<path fill-rule="evenodd" clip-rule="evenodd" d="M-0.365265 311.99H543.312V-30.6208H-0.365265V311.99Z" fill="url(#paint0_linear)"/>
</g>
<mask id="mask1" mask-type="alpha" maskUnits="userSpaceOnUse" x="0" y="109" width="159" height="203">
<path fill-rule="evenodd" clip-rule="evenodd" d="M0 267.707V244.719C11.9155 249.061 22.9709 254.403 34.2817 260.471C48.0565 267.863 60.324 277.931 73.8787 285.524C73.4136 278.129 62.0312 270.866 57.1584 265.87C46.6233 255.074 38.6365 242.678 31.0345 229.696C24.6267 218.75 17.9511 207.328 13.0683 195.62C9.98191 188.215 3.16429 175.828 3.64956 167.757C14.6862 174.27 23.7052 184.113 31.6706 194.076C40.5814 205.223 50.3433 216.863 57.3243 229.367C61.3221 236.531 72.8378 264.526 83.2773 262.321C82.1698 234.259 67.173 206.413 62.2424 178.724C58.2811 156.482 55.4964 131.497 61.7358 109.376C70.2619 120.347 73.6298 140.486 77.4139 153.645C82.9593 172.924 88.526 192.334 92.6194 211.973C96.1507 228.918 103.523 244.758 107.278 261.539C103.49 236.925 101.778 210.705 106.752 186.27C108.927 175.578 111.419 165.383 114.101 154.839C115.287 150.166 115.962 144.575 118.864 140.968C124.321 149.584 123.114 165.94 124.311 176.007C126.114 191.171 128.559 206.485 127.538 221.799C126.416 238.647 126.48 256.425 124.169 273.163C121.642 258.378 130.566 234.488 136.639 221.064C140.964 211.505 147.629 194.915 156.967 189.581C160.674 204.51 153.559 227.017 150.726 241.604C147.618 257.612 141.908 278.713 133.172 292.675C128.423 300.262 120.588 308.273 111.988 311.998H98.6993C94.6495 310.946 90.8589 309.571 89.4777 309.109C80.768 306.197 72.8378 303.488 63.9044 301.327C48.9931 297.722 34.8676 288.357 21.7616 280.583C15.2968 276.748 7.64208 272.475 0 267.707H0Z" fill="white"/>
</mask>
<g mask="url(#mask1)">
<path fill-rule="evenodd" clip-rule="evenodd" d="M0 311.998H542.928V-27.5834H0V311.998Z" fill="url(#paint1_linear)"/>
</g>
<mask id="mask2" mask-type="alpha" maskUnits="userSpaceOnUse" x="177" y="56" width="60" height="236">
<path fill-rule="evenodd" clip-rule="evenodd" d="M226.897 138.117C232.492 135.409 238.181 139.574 236.704 146.062C235.458 151.532 228.632 151.083 224.097 152.352C218.496 153.92 216.136 156.347 212.697 158.138C212.063 163.708 211.495 169.287 211.004 174.871C213.461 168.881 217.515 162.89 220.988 160.183C227.167 155.366 230.775 163.628 230.106 169.248C229.373 175.393 223.873 176.775 219.215 178.964C215.629 180.648 212.163 183.124 210.227 184.641C210.019 187.55 209.826 190.463 209.664 193.377C209.54 195.643 209.429 197.908 209.33 200.174C211.714 195.661 215.297 191.667 219.033 189.573C221.229 188.343 225.294 185.806 227.787 187.489C230.955 189.628 229.608 194.443 227.875 196.845C223.588 202.788 213.922 203.409 209.059 207.679C208.888 213.431 208.816 219.185 208.866 224.939C210.621 219.67 214.394 214.006 216.925 211.427C219.275 209.034 222.852 207.089 225.879 208.531C229.219 210.122 229.649 215.019 227.78 218.211C225.909 221.402 222.541 223.345 219.437 225.356C216.14 227.494 212.51 231.435 209.016 232.877C209.094 235.582 209.189 238.287 209.329 240.993C209.352 241.489 209.395 241.983 209.424 242.478C210.21 241.09 211.074 239.823 211.664 238.92C213.526 236.069 216.009 233.332 219.32 232.529C222.63 231.727 226.743 233.722 227.079 237.114C227.36 239.955 225.006 242.434 222.426 243.654C219.848 244.873 216.944 245.264 214.34 246.431C212.702 247.165 211.313 248.357 209.934 249.426C210.464 255.489 211.186 261.515 211.986 267.53C213.883 263.653 218.597 258.608 219.826 257.679C222.016 256.027 224.671 254.75 227.401 254.987C230.133 255.225 232.811 257.394 232.868 260.137C232.927 262.979 230.322 265.209 227.644 266.156C225.963 266.752 215.478 271.249 212.544 271.699C213.345 277.557 214.178 283.417 214.914 289.311C215.185 291.48 212.233 292.304 211.566 290.137C209.288 282.753 207.792 275.056 206.74 267.286C204.941 266.532 203.071 264.706 201.112 264.172C197.693 263.24 194.049 263.243 190.711 262.058C187.372 260.875 184.213 257.918 184.495 254.385C184.572 253.409 184.923 252.443 185.558 251.697C187.569 249.341 191.375 249.999 194.176 251.322C198.636 253.428 203.173 257.147 206.045 261.604C205.507 256.676 205.111 251.744 204.779 246.866C204.493 246.47 204.209 246.073 203.928 245.682C202.556 243.781 201.124 241.825 199.097 240.651C197.459 239.703 195.561 239.343 193.743 238.819C191.192 238.081 188.742 236.995 186.483 235.6C184.06 234.1 181.753 232.094 180.882 229.381C180.013 226.666 181.113 223.181 183.796 222.221C185.692 221.542 187.8 222.239 189.584 223.175C194.764 225.896 198.693 230.599 201.428 235.773C202.64 238.068 203.655 240.476 204.533 242.933C204.158 236.696 203.962 230.443 203.919 224.189C202.324 222.379 200.443 220.934 198.287 219.75C195.461 218.2 192.637 216.65 189.813 215.101C187.082 213.604 184.304 212.069 182.161 209.808C178.852 206.32 177.377 201.182 178.326 196.468C178.697 194.63 179.585 192.683 181.326 191.99C183.326 191.193 185.542 192.36 187.294 193.615C192.474 197.324 196.781 202.214 199.922 207.75C200.887 209.45 202.68 212.783 203.947 216.142C204.026 210.483 204.224 204.826 204.527 199.18C201.438 193.6 198.028 188.526 192.875 184.489C189.981 182.221 186.783 180.357 183.946 178.021C181.108 175.686 178.577 172.751 177.634 169.197C176.897 166.417 177.568 162.852 180.211 161.725C181.054 161.365 181.998 161.302 182.912 161.363C189.195 161.767 193.823 167.386 196.736 172.971C199.721 178.693 203.523 187.007 204.809 194.386C205.278 187.104 205.925 179.831 206.714 172.574C204.581 169.084 201.192 166.171 198.184 163.689C192.935 159.358 187.166 155.618 182.631 150.504C179.768 147.276 177.36 143.24 177.465 138.907C177.481 138.212 177.573 137.49 177.949 136.917C178.653 135.849 180.1 135.639 181.358 135.754C184.461 136.037 187.323 137.674 189.818 139.627C196.035 144.492 200.513 151.444 203.477 158.867C204.941 162.535 206.092 166.351 206.98 170.217C207.769 163.21 208.673 156.216 209.66 149.242C209.729 148.762 209.803 148.279 209.875 147.798C206.123 145.284 202.535 142.394 198.901 139.735C195.26 137.072 191.361 134.022 190.392 129.616C190.088 128.24 190.115 126.74 190.767 125.492C191.887 123.351 194.647 122.462 197.018 122.918C199.39 123.374 201.413 124.908 203.129 126.607C205.296 128.751 209.101 134.085 211.234 139.241C211.89 135.242 212.531 131.212 213.021 127.174L212.838 127.341C207.907 122.771 201.585 119.767 196.847 115.003C193.146 111.28 190.934 106.114 190.795 100.864C190.755 99.3724 191.043 97.6078 192.377 96.9392C193.439 96.4075 194.716 96.8147 195.792 97.3112C201.585 99.9795 206.025 105.047 208.963 110.709C210.014 112.735 212.633 117.932 213.544 122.075C214.095 115.24 214.003 108.419 212.508 101.737L212.5 101.495C211.185 97.7548 209.68 94.071 207.491 90.5053C204.89 86.2723 201.813 82.3321 199.452 77.9582C197.094 73.5856 195.458 68.6173 196.074 63.6854C196.513 60.1663 199.16 56.2147 202.647 56.8582C204.254 57.1549 205.517 58.3702 206.617 59.5793C218.068 72.1704 225.381 96.4917 216.635 112.504C217.291 119.261 216.771 126.07 215.939 132.881C217.554 127.582 219.619 122.018 224.381 119.706C229.981 116.985 231.82 122.578 230.444 127.455C228.985 132.63 226.403 132.254 222.387 134.397C218.991 136.209 216.553 138.58 215.094 139.28C214.79 141.471 214.482 143.661 214.197 145.848C213.769 149.144 213.364 152.442 212.977 155.741C213.644 154.46 214.277 153.206 214.615 152.662C217.769 147.581 221.268 140.841 226.897 138.117Z" fill="white"/>
</mask>
<g mask="url(#mask2)">
<path fill-rule="evenodd" clip-rule="evenodd" d="M0.399445 311.958H542.832V-27.2853H0.399445V311.958Z" fill="url(#paint2_linear)"/>
</g>
<mask id="mask3" mask-type="alpha" maskUnits="userSpaceOnUse" x="15" y="138" width="110" height="174">
<path fill-rule="evenodd" clip-rule="evenodd" d="M120.067 311.998H116.504C112.064 307.734 108.085 302.922 104.413 297.86C102.597 298.215 100.304 297.786 98.436 298.392C95.1794 299.449 92.0961 301.337 88.8094 302.159C85.5227 302.982 81.6959 302.355 80.5593 299.508C80.2453 298.722 80.1662 297.801 80.4136 296.903C81.1998 294.059 84.6762 292.594 87.5635 292.155C92.1589 291.457 97.4476 291.953 101.613 293.874C99.2385 290.386 96.9854 286.819 94.8052 283.261C94.4096 283.106 94.0152 282.949 93.6233 282.796C91.7231 282.052 89.7501 281.296 87.5774 281.448C85.8203 281.571 84.0746 282.278 82.3301 282.817C79.8849 283.575 77.3868 284.011 74.9315 284.113C72.2966 284.221 69.5625 283.882 67.769 282.256C65.9768 280.631 65.5523 277.396 67.4488 275.273C68.7901 273.773 70.846 273.215 72.7211 273.008C78.1643 272.406 83.3211 273.97 87.6502 276.513C89.5718 277.64 91.3665 278.955 93.067 280.379C90.3203 275.803 87.7218 271.125 85.2514 266.363C83.1967 265.805 81.0416 265.672 78.7545 265.884C75.7592 266.16 72.7663 266.438 69.771 266.715C66.8761 266.982 63.9284 267.247 61.2332 266.627C57.0749 265.671 53.8258 262.507 52.7947 258.409C52.3941 256.813 52.3878 254.865 53.591 253.434C54.9763 251.787 57.3047 251.534 59.2765 251.587C65.1052 251.743 70.6564 253.252 75.4703 255.862C76.9473 256.661 79.7618 258.282 82.1417 260.196C80.0067 255.827 77.9734 251.399 76.0317 246.924C71.2467 244.255 66.3838 242.14 60.4483 241.72C57.1176 241.484 53.6852 241.714 50.3733 241.396C47.0615 241.078 43.7773 240.143 41.5945 237.913C39.8889 236.169 39.0688 233.096 40.8686 230.866C41.4425 230.154 42.2162 229.619 43.0137 229.191C48.4907 226.25 54.5945 228.15 59.2338 230.914C63.99 233.746 70.4441 238.136 74.404 243.111C71.9676 237.302 69.6843 231.406 67.5279 225.447C64.363 223.881 60.3616 223.409 56.8476 223.067C50.72 222.472 44.3801 222.595 38.5501 221.032C34.8703 220.046 31.2608 218.206 29.662 214.838C29.4058 214.298 29.2023 213.698 29.2978 213.066C29.4774 211.886 30.6215 210.975 31.7318 210.412C34.4684 209.022 37.5278 208.794 40.4001 208.996C47.5563 209.499 54.0532 212.497 59.4524 216.639C62.1199 218.686 64.579 221.011 66.8359 223.506C64.7762 217.739 62.8207 211.924 60.9419 206.079C60.8113 205.677 60.6869 205.269 60.5601 204.864C56.4055 204.883 52.2446 204.53 48.1315 204.377C44.0134 204.224 39.526 203.912 36.989 201.044C36.1965 200.149 35.6364 198.988 35.703 197.695C35.8185 195.478 37.8079 193.371 39.9932 192.493C42.1772 191.615 44.4868 191.738 46.6018 192.15C49.2706 192.669 54.5681 194.777 58.3811 197.617C57.3801 194.22 56.354 190.805 55.1973 187.465L55.1056 187.689C49.1526 186.745 42.6319 187.719 36.768 186.528C32.1851 185.596 28.3018 182.79 26.1404 178.848C25.525 177.729 25.0829 176.228 25.952 175.027C26.644 174.072 27.8836 173.722 28.9888 173.544C34.9306 172.588 40.6613 174.164 45.3534 176.974C47.0301 177.98 51.2701 180.599 53.655 183.294C51.4622 177.784 48.7293 172.614 44.8611 168.278L44.7619 168.097C42.1923 165.917 39.4845 163.88 36.243 162.286C32.3936 160.393 28.2541 158.973 24.5554 156.85C20.8568 154.729 17.5374 151.776 16.1395 147.685C15.1411 144.766 15.8432 140.374 19.0457 139.062C20.5214 138.457 22.065 138.733 23.4666 139.089C38.0616 142.79 53.7178 157.605 52.5473 174.377C55.7311 179.203 57.9427 184.679 59.8894 190.318C59.1936 185.431 58.7767 180.107 61.9064 175.875C65.5888 170.895 69.3226 174.221 70.0561 178.663C70.8347 183.375 68.5025 184.424 65.9379 188.14C63.7677 191.284 62.6248 194.36 61.664 195.65C62.2581 197.482 62.8509 199.317 63.46 201.137C64.3806 203.879 65.3225 206.61 66.2795 209.334C66.3448 208.007 66.3913 206.72 66.4667 206.131C67.1599 200.613 67.4978 193.648 71.2027 188.652C74.8851 183.685 81.3229 183.925 82.5976 189.652C83.6715 194.479 77.7184 197.669 74.3739 200.988C70.2432 205.084 69.1882 208.162 66.974 211.311C68.6055 215.898 70.2972 220.459 72.053 224.984C71.8018 219.132 72.9032 212.451 74.7884 208.583C78.1442 201.702 84.415 206.152 86.0364 210.798C87.8072 215.875 83.689 219.779 80.597 223.863C78.217 227.008 76.2465 230.694 75.199 232.856C76.156 235.189 77.1244 237.516 78.1216 239.829C78.8977 241.626 79.6864 243.415 80.4852 245.199C80.7464 240.514 82.2246 235.604 84.5732 232.072C85.9547 229.992 88.4075 225.95 91.173 225.947C94.6884 225.942 95.4218 230.322 94.8893 233.055C93.5731 239.819 85.6319 245.296 83.1754 251.078C85.2702 255.565 87.4493 260.003 89.7313 264.377C89.1661 259.439 90.1558 253.154 91.2949 249.874C92.3511 246.828 94.6243 243.489 97.7478 243.026C101.193 242.513 103.465 246.034 103.124 249.443C102.783 252.851 100.688 256.081 98.8429 259.225C96.8837 262.567 95.344 267.457 92.9464 270.37C94.0667 272.398 95.1995 274.417 96.37 276.413C96.5848 276.781 96.8134 277.137 97.0306 277.501C97.155 276.032 97.3936 274.616 97.5405 273.621C98.0077 270.476 99.0451 267.097 101.536 264.772C104.024 262.445 108.285 261.843 109.889 264.261C111.233 266.289 110.204 269.403 108.495 271.671C106.787 273.938 104.481 275.738 102.73 277.979C101.63 279.389 100.918 281.018 100.167 282.55C102.974 286.912 105.931 291.145 108.949 295.332C109.045 291.385 111.073 285.088 111.754 283.741C112.963 281.345 114.714 278.994 117.118 277.763C119.523 276.53 122.635 276.803 123.749 278.872C124.906 281.015 123.568 284.068 121.669 286.178C120.48 287.503 113.354 296.37 111.045 298.231C114.003 302.297 116.988 306.347 119.906 310.473C120.251 310.961 120.26 311.515 120.067 311.998V311.998Z" fill="white"/>
</mask>
<g mask="url(#mask3)">
<path fill-rule="evenodd" clip-rule="evenodd" d="M0.173065 311.998H542.561V-27.4816H0.173065V311.998Z" fill="url(#paint3_linear)"/>
</g>
<mask id="mask4" mask-type="alpha" maskUnits="userSpaceOnUse" x="131" y="85" width="53" height="199">
<path fill-rule="evenodd" clip-rule="evenodd" d="M132.764 232.934C130.704 203.952 134.781 175.994 144.152 148.457C149.202 133.62 157.283 121.627 166.272 108.863C169.835 103.805 173.684 98.9803 176.368 93.3794C177.556 90.9024 178.258 87.8125 179.949 85.9058C180.698 98.8258 183.339 110.98 183.267 124.107C183.185 138.906 182.616 154.822 180.029 169.362C175.616 194.168 173.813 219.24 172.015 244.336C171.124 256.763 169.075 275.109 156.131 281.347C151.185 283.731 144.786 283.241 139.303 282.917C133.697 271.454 136.686 258.054 134.508 246.007C133.576 240.851 130.166 237.322 132.764 232.934Z" fill="white"/>
</mask>
<g mask="url(#mask4)">
<path fill-rule="evenodd" clip-rule="evenodd" d="M0.441895 311.901H541.565V-27.1351H0.441895V311.901Z" fill="url(#paint4_linear)"/>
</g>
<mask id="mask5" mask-type="alpha" maskUnits="userSpaceOnUse" x="161" y="160" width="131" height="152">
<path fill-rule="evenodd" clip-rule="evenodd" d="M196.753 311.998H161.875C163.317 300.297 171.474 290.509 175.063 279.594C176.701 274.61 175.381 269.874 179.763 267.255C191.776 240.767 208.706 218.118 230.103 198.373C241.632 187.735 254.478 181.05 268.489 174.121C274.042 171.374 279.735 168.971 284.775 165.328C287.004 163.716 289.097 161.334 291.496 160.467C285.992 172.194 282.522 184.151 276.195 195.67C269.062 208.652 260.969 222.386 251.751 233.941C236.026 253.656 222.476 274.854 208.918 296.076C205.729 301.066 201.673 307.107 196.753 311.998V311.998Z" fill="white"/>
</mask>
<g mask="url(#mask5)">
<path fill-rule="evenodd" clip-rule="evenodd" d="M0.25235 311.998H542.874V-27.4246H0.25235V311.998Z" fill="url(#paint5_linear)"/>
</g>
<mask id="mask6" mask-type="alpha" maskUnits="userSpaceOnUse" x="76" y="80" width="76" height="232">
<path fill-rule="evenodd" clip-rule="evenodd" d="M128.231 311.998H114.976C113.698 311.257 112.846 310.14 112.661 308.56C105.509 290.296 96.6804 272.933 93.2424 253.376C91.3222 242.451 88.0728 231.677 86.4468 220.742C84.5014 207.664 83.9657 194.386 81.8091 181.301C78.9709 164.093 74.757 145.752 76.4747 128.31C78.0491 112.311 83.6828 96.7162 85.7828 80.7788C99.6696 81.3841 113.661 94.7154 122.91 103.961C128.897 109.946 134.342 114.712 135.497 123.116C141.493 166.69 153.852 212.394 150.545 256.63C149.304 273.22 149.067 297.779 134.289 309.163C132.859 310.263 130.674 311.267 128.231 311.998H128.231Z" fill="white"/>
</mask>
<g mask="url(#mask6)">
<path fill-rule="evenodd" clip-rule="evenodd" d="M0.000305176 311.998H543.078V-27.6599H0.000305176V311.998Z" fill="url(#paint6_linear)"/>
</g>
<mask id="mask7" mask-type="alpha" maskUnits="userSpaceOnUse" x="61" y="128" width="176" height="184">
<path fill-rule="evenodd" clip-rule="evenodd" d="M61.8603 128.949H236.938V312H61.8603V128.949Z" fill="white"/>
</mask>
<g mask="url(#mask7)">
<path fill-rule="evenodd" clip-rule="evenodd" d="M195.639 314.763C184.175 305.503 200.016 291 200.306 281.604C200.408 278.258 199.524 274.841 199.774 271.338C200.132 266.327 202.36 262.095 203.107 257.429C203.71 253.676 202.86 250.139 203.265 245.983C204.134 237.077 210.004 234.133 213.628 227.962C216.998 222.222 217.038 214.456 221.652 208.547C227.374 201.223 230.378 192.14 236.23 184.654C235.863 192.616 238.604 200.898 235.247 208.483C234.036 211.219 231.867 213.404 231.632 216.244C231.379 219.305 233.732 223.077 234.201 226.115C235.754 236.135 228.64 237.474 227.303 244.284C226.607 247.826 229.355 254.334 229.353 258.332C229.347 265.114 228.787 271.963 224.705 277.667C223.118 279.888 220.483 281.24 219.998 283.951C219.351 287.566 221.39 292.423 220.836 296.407C219.761 304.122 213.125 307.44 210.814 312.969C208.814 317.758 208.606 326.677 199.881 325.907C195.793 325.547 194.518 322.647 195.639 314.763" fill="#6376E8"/>
<path fill-rule="evenodd" clip-rule="evenodd" d="M114.268 312.964C104.873 305.118 89.385 289.188 87.5114 276.175C86.6973 270.521 88.654 270.494 85.3736 266.804C79.7679 260.501 73.041 257.405 70.7572 248.452C69.0321 241.695 68.7074 233.194 70.1784 226.348C71.2492 221.364 73.6727 219.594 71.896 214.898C69.095 207.492 63.6818 202.665 62.3354 194.339C61.4043 188.582 61.9995 182.491 62.7721 176.693C63.2905 172.795 65.3566 170.643 66.3041 167.352C68.0066 161.441 63.0376 156.275 62.2272 150.032C61.3414 143.21 62.9495 135.686 64.316 128.949C71.6091 129.895 77.8339 138.626 80.6147 144.888C82.6381 149.448 81.6616 155.728 84.9835 159.099C87.4724 161.625 91.616 161.92 94.1615 165.816C96.4667 169.342 97.9264 173.866 98.7933 177.942C100.586 186.356 98.8537 193.621 98.8361 201.933C98.8185 209.616 105.445 214.467 109.67 220.981C115.936 230.636 119.102 241.67 120.396 253.023C121.133 259.481 118.937 269.057 121.614 274.275C123.496 277.946 127.87 280.627 129.731 284.733C131.874 289.459 132.068 295.301 131.793 300.435C131.227 310.931 123.787 314.13 114.268 312.964" fill="#6376E8"/>
</g>
<mask id="mask8" mask-type="alpha" maskUnits="userSpaceOnUse" x="136" y="92" width="112" height="220">
<path fill-rule="evenodd" clip-rule="evenodd" d="M136.703 311.999C136.719 307.159 137.155 302.206 137.165 297.71C137.213 276.296 139.754 252.948 146.578 232.619C152.688 214.423 158.463 195.994 165.733 178.243C171.128 165.067 177.099 148.278 188.113 138.71C188.376 145.708 188.95 152.872 188.782 159.88C188.667 164.765 186.94 169.781 187.147 174.478C194.728 157.719 202.613 143.909 214.498 129.565C224.274 117.768 234.121 100.68 247.121 92.3419C246.718 107.476 242.502 125.305 238.088 139.807C231.892 160.159 225.529 180.538 219.223 200.847C209.691 231.542 196.413 259.655 181.924 288.304C179.071 293.944 175.704 303.438 171.19 311.999H136.703H136.703Z" fill="white"/>
</mask>
<g mask="url(#mask8)">
<path fill-rule="evenodd" clip-rule="evenodd" d="M-0.17984 311.999H543.004V-27.2448H-0.17984V311.999Z" fill="url(#paint7_linear)"/>
</g>
<mask id="mask9" mask-type="alpha" maskUnits="userSpaceOnUse" x="119" y="170" width="42" height="142">
<path fill-rule="evenodd" clip-rule="evenodd" d="M140.244 312C139.703 310.827 139.169 309.678 138.614 308.603C132.774 297.281 127.721 284.256 125.758 271.651C124.002 260.371 122.004 249.059 120.983 237.696C120.224 229.263 118.779 218.762 121.976 210.697C124.031 214.32 126.297 217.948 128.128 221.694C129.405 224.306 129.866 227.428 131.262 229.852C130.675 218.927 131.058 209.479 133.408 198.652C135.34 189.749 135.86 178.032 140.444 170.073C144.376 178.175 147.033 188.745 148.673 197.611C150.975 210.053 153.195 222.555 155.427 235.006C158.798 253.823 159.485 272.302 159.679 291.395C159.729 296.301 161.114 304.916 160.175 312H140.244V312Z" fill="white"/>
</mask>
<g mask="url(#mask9)">
<path fill-rule="evenodd" clip-rule="evenodd" d="M0.202393 312H542.993V-26.9559H0.202393V312Z" fill="url(#paint8_linear)"/>
</g>
<path fill-rule="evenodd" clip-rule="evenodd" d="M166.469 304.689C156.1 297.119 148.186 285.353 140.55 275.14C129.933 260.942 113.121 241.016 111.347 223.033C118.397 224.088 126.624 232.911 131.73 237.331C141.045 245.398 148.883 254.09 156.674 263.624C164.95 273.754 171.204 285.469 179.245 295.684C181.256 289.822 174.788 280.56 172.623 275.137C167.944 263.416 165.745 251.276 164.033 238.809C162.587 228.298 161.092 217.334 161.072 206.722C161.061 200.011 159.763 188.255 162.727 182.177C169.167 190.749 172.981 201.249 175.942 211.5C179.256 222.971 183.067 235.093 184.454 246.993C185.247 253.809 185.172 279.128 193.946 280.777C202.088 258.745 199.424 232.422 204.491 209.452C208.561 191.001 214.42 170.807 226.333 155.721C229.406 166.933 225.551 183.571 224.258 194.949C222.361 211.622 220.44 228.4 217.309 244.882C214.604 259.107 215.223 273.708 212.745 287.875C217.711 267.646 224.793 246.842 236.471 229.565C241.58 222.004 246.775 214.93 252.228 207.645C254.644 204.415 256.956 200.314 260.355 198.458C261.812 206.866 255.635 219.113 253.332 227.273C249.864 239.565 246.844 252.178 241.144 263.679C234.874 276.334 229.225 290.087 222.075 302.275C224.861 290.044 239.416 274.454 248.414 266.032C254.821 260.037 265.29 249.363 274.218 248.238C272.295 260.958 259.582 276.061 252.715 286.42C247.34 294.529 240.111 304.215 232.333 311.999H175.726C172.76 309.504 169.747 307.082 166.469 304.689Z" fill="#0AD9C6"/>
<mask id="mask10" mask-type="alpha" maskUnits="userSpaceOnUse" x="111" y="155" width="164" height="157">
<path fill-rule="evenodd" clip-rule="evenodd" d="M166.469 304.689C156.1 297.119 148.186 285.353 140.55 275.14C129.933 260.942 113.121 241.016 111.347 223.033C118.397 224.088 126.624 232.911 131.73 237.331C141.045 245.398 148.883 254.09 156.674 263.624C164.95 273.754 171.204 285.469 179.245 295.684C181.256 289.822 174.788 280.56 172.623 275.137C167.944 263.416 165.745 251.276 164.033 238.809C162.587 228.298 161.092 217.334 161.072 206.722C161.061 200.011 159.763 188.255 162.727 182.177C169.167 190.749 172.981 201.249 175.942 211.5C179.256 222.971 183.067 235.093 184.454 246.993C185.247 253.809 185.172 279.128 193.946 280.777C202.088 258.745 199.424 232.422 204.491 209.452C208.561 191.001 214.42 170.807 226.333 155.721C229.406 166.933 225.551 183.571 224.258 194.949C222.361 211.622 220.44 228.4 217.309 244.882C214.604 259.107 215.223 273.708 212.745 287.875C217.711 267.646 224.793 246.842 236.471 229.565C241.58 222.004 246.775 214.93 252.228 207.645C254.644 204.415 256.956 200.314 260.355 198.458C261.812 206.866 255.635 219.113 253.332 227.273C249.864 239.565 246.844 252.178 241.144 263.679C234.874 276.334 229.225 290.087 222.075 302.275C224.861 290.044 239.416 274.454 248.414 266.032C254.821 260.037 265.29 249.363 274.218 248.238C272.295 260.958 259.582 276.061 252.715 286.42C247.34 294.529 240.111 304.215 232.333 311.999H175.726C172.76 309.504 169.747 307.082 166.469 304.689Z" fill="white"/>
</mask>
<g mask="url(#mask10)">
</g>
<path fill-rule="evenodd" clip-rule="evenodd" d="M127.975 311.999H121.252C121.366 308.454 121.63 304.911 122.009 301.37C118.972 298.076 114.052 295.131 109.614 291.501C104.527 287.34 93.1653 275.201 99.1382 267.814C105.027 260.532 118.62 275.651 123.711 289.402C124.492 284.907 125.411 280.419 126.422 275.947C124.494 274.206 122.379 272.015 120.05 269.468C112.889 261.646 105.695 245.034 107.695 234.48C126.466 232.717 125.867 258.498 127.213 272.518C129.025 264.807 131.047 257.136 132.987 249.527C133.364 248.053 133.734 246.579 134.098 245.104C132.48 240.308 130.074 236.086 125.39 232.228C120.427 228.143 103.64 216.811 111.09 207.979C118.645 199.024 129.012 214.451 130.558 219.382C132.62 225.944 134.896 232.565 135.456 239.455C137.349 231.415 139.032 223.366 140.4 215.29C129.124 202.373 106.193 191.947 108.042 173.246C124.892 164.493 136.145 196.531 140.905 212.182C142.317 203.306 143.336 194.392 143.831 185.412C142.12 183.873 139.93 180.539 136.623 177.701C129.185 171.324 119.853 166.501 117.619 156.424C114.55 142.592 127.706 147.076 133.634 154.2C140.165 162.049 141.675 171.259 144.051 180.5C144.055 180.386 144.061 180.271 144.065 180.157C144.369 170.494 144.145 160.858 143.468 151.272C133.751 141.949 112.675 141.494 114.948 121.873C130.101 119.431 139.15 136.918 143.273 148.74C142.526 139.331 141.33 129.975 139.681 120.698C138.035 120.906 136.161 118.005 130.828 115.667C123.406 112.413 107.855 108.416 109.809 97.5119C111.181 89.856 122.98 94.3987 127.655 98.2651C132.928 102.624 135.321 110.613 138.846 116.24C138.477 114.333 138.117 112.421 137.712 110.52C136.149 103.203 134.301 95.9377 132.237 88.7395C121.624 80.7554 89.4124 66.4607 98.1918 56.2863C108.093 44.8156 123.463 71.2562 131.045 84.633C130.324 82.234 129.588 79.8388 128.813 77.4574C127.416 73.1585 125.828 68.9364 124.18 64.7369C113.342 56.1053 103.809 39.8001 99.9223 32.6308C95.4067 24.2971 87.8594 -9.08768 108.957 3.55988C129.686 15.9861 125.651 42.868 127.538 63.3236C129.243 67.1346 130.831 71.0148 132.305 74.9402C133.02 67.9884 136.014 58.5093 139.549 57.2406C148.812 53.92 143.651 67.0303 142.166 69.9787C140.056 74.1669 136.807 78.3551 134.421 80.8245C136.355 86.4121 138.09 92.0463 139.666 97.6452C139.805 95.9641 139.99 94.4189 140.06 93.3401C140.614 84.8518 143.512 74.099 153.296 70.6854C161.535 80.817 146.451 98.0928 141.955 106.132C142.11 106.733 142.27 107.335 142.422 107.934C143.345 111.571 144.17 115.239 144.949 118.917C146.9 108.495 153.74 97.0454 162.1 93.6858C174.711 107.904 151.744 117.465 146.598 127.336C147.806 134.05 148.766 140.816 149.47 147.614C150.656 141.668 152.448 135.764 155.799 131.364C160.437 125.275 169.143 121.355 168.383 131.691C167.941 137.69 162.455 141.382 158.463 145.492C154.953 149.104 152.217 152.886 150.195 155.914C150.632 161.989 150.863 168.082 150.869 174.181C153.258 165.905 156.805 157.53 163.017 152.762C174.847 143.685 181.36 156.599 177.024 166.634C172.569 176.947 158.258 179.189 150.669 184.74C150.428 190.228 149.991 195.696 149.388 201.149C154.259 193.395 159.526 184.921 167.769 181.095C176.153 177.203 188.997 181.798 184.161 191.678C178.233 203.787 158.825 198.58 149.07 203.932C148.188 211.241 147.011 218.524 145.595 225.794C149.715 219.923 155.024 214.331 159.315 211.197C167.825 204.978 175.823 212.766 173.086 221.661C169.18 234.357 152.399 231.226 143.716 234.84C142.86 238.721 141.948 242.6 140.978 246.48C139.859 250.96 138.73 255.426 137.627 259.887C142.625 253.644 149.403 248.011 154.787 246.343C165.955 242.879 171.493 253.669 162.871 261.034C154.675 268.033 143.243 264.274 135.319 269.439C133.838 275.738 132.462 282.04 131.278 288.369C139.393 279.332 153.164 272.194 162.79 274.174C173.375 276.352 174.591 285.759 165.365 290.958C158.734 294.696 139.599 291.47 130.093 295.106C129.185 300.704 128.456 306.329 127.975 311.999V311.999Z" fill="#6244C9"/>
<mask id="mask11" mask-type="alpha" maskUnits="userSpaceOnUse" x="94" y="0" width="92" height="312">
<path fill-rule="evenodd" clip-rule="evenodd" d="M127.975 311.999H121.252C121.366 308.454 121.63 304.911 122.009 301.37C118.972 298.076 114.052 295.131 109.614 291.501C104.527 287.34 93.1653 275.201 99.1382 267.814C105.027 260.532 118.62 275.651 123.711 289.402C124.492 284.907 125.411 280.419 126.422 275.947C124.494 274.206 122.379 272.015 120.05 269.468C112.889 261.646 105.695 245.034 107.695 234.48C126.466 232.717 125.867 258.498 127.213 272.518C129.025 264.807 131.047 257.136 132.987 249.527C133.364 248.053 133.734 246.579 134.098 245.104C132.48 240.308 130.074 236.086 125.39 232.228C120.427 228.143 103.64 216.811 111.09 207.979C118.645 199.024 129.012 214.451 130.558 219.382C132.62 225.944 134.896 232.565 135.456 239.455C137.349 231.415 139.032 223.366 140.4 215.29C129.124 202.373 106.193 191.947 108.042 173.246C124.892 164.493 136.145 196.531 140.905 212.182C142.317 203.306 143.336 194.392 143.831 185.412C142.12 183.873 139.93 180.539 136.623 177.701C129.185 171.324 119.853 166.501 117.619 156.424C114.55 142.592 127.706 147.076 133.634 154.2C140.165 162.049 141.675 171.259 144.051 180.5C144.055 180.386 144.061 180.271 144.065 180.157C144.369 170.494 144.145 160.858 143.468 151.272C133.751 141.949 112.675 141.494 114.948 121.873C130.101 119.431 139.15 136.918 143.273 148.74C142.526 139.331 141.33 129.975 139.681 120.698C138.035 120.906 136.161 118.005 130.828 115.667C123.406 112.413 107.855 108.416 109.809 97.5119C111.181 89.856 122.98 94.3987 127.655 98.2651C132.928 102.624 135.321 110.613 138.846 116.24C138.477 114.333 138.117 112.421 137.712 110.52C136.149 103.203 134.301 95.9377 132.237 88.7395C121.624 80.7554 89.4124 66.4607 98.1918 56.2863C108.093 44.8156 123.463 71.2562 131.045 84.633C130.324 82.234 129.588 79.8388 128.813 77.4574C127.416 73.1585 125.828 68.9364 124.18 64.7369C113.342 56.1053 103.809 39.8001 99.9223 32.6308C95.4067 24.2971 87.8594 -9.08768 108.957 3.55988C129.686 15.9861 125.651 42.868 127.538 63.3236C129.243 67.1346 130.831 71.0148 132.305 74.9402C133.02 67.9884 136.014 58.5093 139.549 57.2406C148.812 53.92 143.651 67.0303 142.166 69.9787C140.056 74.1669 136.807 78.3551 134.421 80.8245C136.355 86.4121 138.09 92.0463 139.666 97.6452C139.805 95.9641 139.99 94.4189 140.06 93.3401C140.614 84.8518 143.512 74.099 153.296 70.6854C161.535 80.817 146.451 98.0928 141.955 106.132C142.11 106.733 142.27 107.335 142.422 107.934C143.345 111.571 144.17 115.239 144.949 118.917C146.9 108.495 153.74 97.0454 162.1 93.6858C174.711 107.904 151.744 117.465 146.598 127.336C147.806 134.05 148.766 140.816 149.47 147.614C150.656 141.668 152.448 135.764 155.799 131.364C160.437 125.275 169.143 121.355 168.383 131.691C167.941 137.69 162.455 141.382 158.463 145.492C154.953 149.104 152.217 152.886 150.195 155.914C150.632 161.989 150.863 168.082 150.869 174.181C153.258 165.905 156.805 157.53 163.017 152.762C174.847 143.685 181.36 156.599 177.024 166.634C172.569 176.947 158.258 179.189 150.669 184.74C150.428 190.228 149.991 195.696 149.388 201.149C154.259 193.395 159.526 184.921 167.769 181.095C176.153 177.203 188.997 181.798 184.161 191.678C178.233 203.787 158.825 198.58 149.07 203.932C148.188 211.241 147.011 218.524 145.595 225.794C149.715 219.923 155.024 214.331 159.315 211.197C167.825 204.978 175.823 212.766 173.086 221.661C169.18 234.357 152.399 231.226 143.716 234.84C142.86 238.721 141.948 242.6 140.978 246.48C139.859 250.96 138.73 255.426 137.627 259.887C142.625 253.644 149.403 248.011 154.787 246.343C165.955 242.879 171.493 253.669 162.871 261.034C154.675 268.033 143.243 264.274 135.319 269.439C133.838 275.738 132.462 282.04 131.278 288.369C139.393 279.332 153.164 272.194 162.79 274.174C173.375 276.352 174.591 285.759 165.365 290.958C158.734 294.696 139.599 291.47 130.093 295.106C129.185 300.704 128.456 306.329 127.975 311.999V311.999Z" fill="white"/>
</mask>
<g mask="url(#mask11)">
</g>
<mask id="mask12" mask-type="alpha" maskUnits="userSpaceOnUse" x="46" y="245" width="91" height="67">
<path fill-rule="evenodd" clip-rule="evenodd" d="M136.614 312H98.0406C88.2171 305.051 77.4922 295.938 67.152 284.371C60.8398 277.311 57.6761 269.011 54.0548 260.301C52.6188 256.849 51.3966 253.326 49.3998 250.149C48.5171 248.743 47.1629 247.389 46.7354 245.91C53.5845 249.686 60.6537 252.248 67.3431 256.511C74.8851 261.318 82.842 266.733 89.4409 272.739C100.7 282.985 112.937 291.98 125.19 300.981C128.963 303.753 133.764 307.492 136.614 312V312Z" fill="white"/>
</mask>
<g mask="url(#mask12)">
<path fill-rule="evenodd" clip-rule="evenodd" d="M-0.0617065 312H542.972V-26.8384H-0.0617065V312Z" fill="url(#paint9_linear)"/>
</g>
<mask id="mask13" mask-type="alpha" maskUnits="userSpaceOnUse" x="20" y="300" width="110" height="12">
<path fill-rule="evenodd" clip-rule="evenodd" d="M36.6775 311.999C35.869 311.386 35.0568 310.768 34.2375 310.149C31.2534 307.894 28.415 305.47 25.0869 303.735C23.6149 302.968 21.7637 302.482 20.6447 301.423C28.4577 301.219 35.8438 299.855 43.7674 300.154C52.6969 300.49 62.2921 301.144 71.0183 302.991C85.9046 306.145 101.001 307.722 116.113 309.298C120.038 309.707 124.939 310.34 129.22 311.999H36.6775V311.999Z" fill="white"/>
</mask>
<g mask="url(#mask13)">
<path fill-rule="evenodd" clip-rule="evenodd" d="M0.0551758 311.999H542.443V-27.2448H0.0551758V311.999Z" fill="url(#paint10_linear)"/>
</g>
<defs>
<linearGradient id="paint0_linear" x1="239.976" y1="250.567" x2="79.7586" y2="321.385" gradientUnits="userSpaceOnUse">
<stop stop-color="#9FAAFA"/>
<stop offset="1" stop-color="#DCA3B5"/>
</linearGradient>
<linearGradient id="paint1_linear" x1="-72.8093" y1="224.241" x2="-40.4747" y2="392.707" gradientUnits="userSpaceOnUse">
<stop stop-color="#DD8691"/>
<stop offset="1" stop-color="#9C395F"/>
</linearGradient>
<linearGradient id="paint2_linear" x1="1.50982" y1="121.754" x2="1.50982" y2="378.97" gradientUnits="userSpaceOnUse">
<stop stop-color="#6C4BDC"/>
<stop offset="1" stop-color="#402B8A"/>
</linearGradient>
<linearGradient id="paint3_linear" x1="-135.671" y1="121.662" x2="-135.671" y2="379.056" gradientUnits="userSpaceOnUse">
<stop stop-color="#6C4BDC"/>
<stop offset="1" stop-color="#402B8A"/>
</linearGradient>
<linearGradient id="paint4_linear" x1="25.2406" y1="119.884" x2="16.2076" y2="295.775" gradientUnits="userSpaceOnUse">
<stop stop-color="#9FAAFA"/>
<stop offset="1" stop-color="#DCA3B5"/>
</linearGradient>
<linearGradient id="paint5_linear" x1="99.541" y1="129.531" x2="90.5123" y2="305.624" gradientUnits="userSpaceOnUse">
<stop stop-color="#9FAAFA"/>
<stop offset="1" stop-color="#DCA3B5"/>
</linearGradient>
<linearGradient id="paint6_linear" x1="-17.0193" y1="114.129" x2="-26.0529" y2="290.344" gradientUnits="userSpaceOnUse">
<stop stop-color="#9FAAFA"/>
<stop offset="1" stop-color="#DCA3B5"/>
</linearGradient>
<linearGradient id="paint7_linear" x1="26.848" y1="207.282" x2="26.848" y2="413.462" gradientUnits="userSpaceOnUse">
<stop stop-color="#C75A6A"/>
<stop offset="1" stop-color="#7B2B71"/>
</linearGradient>
<linearGradient id="paint8_linear" x1="-24.6985" y1="207.372" x2="-24.6985" y2="413.376" gradientUnits="userSpaceOnUse">
<stop stop-color="#C75A6A"/>
<stop offset="1" stop-color="#7B2B71"/>
</linearGradient>
<linearGradient id="paint9_linear" x1="41.8591" y1="322.217" x2="148.125" y2="388.042" gradientUnits="userSpaceOnUse">
<stop stop-color="#9FAAFA"/>
<stop offset="1" stop-color="#DCA3B5"/>
</linearGradient>
<linearGradient id="paint10_linear" x1="35.1906" y1="350.126" x2="141.47" y2="415.804" gradientUnits="userSpaceOnUse">
<stop stop-color="#9FAAFA"/>
<stop offset="1" stop-color="#DCA3B5"/>
</linearGradient>
</defs>
</svg>
