<svg fill="none" height="329" viewBox="0 0 548 329" width="548" xmlns="http://www.w3.org/2000/svg" xmlns:xlink="http://www.w3.org/1999/xlink"><linearGradient id="a"><stop offset="0" stop-color="#6ceda0"/><stop offset="1" stop-color="#199d56"/></linearGradient><linearGradient id="b" gradientUnits="userSpaceOnUse" x1="255.538" x2="255.538" xlink:href="#a" y1="251.738" y2="267.624"/><linearGradient id="c" gradientUnits="userSpaceOnUse" x1="273.901" x2="258.665" xlink:href="#a" y1="257.613" y2="262.113"/><linearGradient id="d" gradientUnits="userSpaceOnUse" x1="265.733" x2="256.193" xlink:href="#a" y1="251.693" y2="264.395"/><linearGradient id="e"><stop offset="0" stop-color="#fff8e1"/><stop offset="1" stop-color="#ffcc80"/></linearGradient><linearGradient id="f" gradientUnits="userSpaceOnUse" x1="132.021" x2="121.327" xlink:href="#e" y1="170.037" y2="174.581"/><linearGradient id="g" gradientUnits="userSpaceOnUse" x1="114.35" x2="101.318" xlink:href="#e" y1="182.846" y2="190.906"/><linearGradient id="h"><stop offset="0" stop-color="#98d0fc"/><stop offset="1" stop-color="#3481d7"/></linearGradient><linearGradient id="i" gradientUnits="userSpaceOnUse" x1="138.996" x2="137.852" xlink:href="#h" y1="176.449" y2="195.311"/><linearGradient id="j" gradientUnits="userSpaceOnUse" x1="164" x2="164.808" xlink:href="#e" y1="180.5" y2="193.327"/><linearGradient id="k" gradientUnits="userSpaceOnUse" x1="121" x2="146.847" xlink:href="#h" y1="189" y2="219.376"/><linearGradient id="l" gradientUnits="userSpaceOnUse" x1="70" x2="101" y1="217" y2="251.5"><stop offset="0" stop-color="#68c9ba"/><stop offset="1" stop-color="#68c9ba"/></linearGradient><linearGradient id="m" gradientUnits="userSpaceOnUse" x1="240" x2="166.369" y1="226" y2="223.12"><stop offset="0" stop-color="#6979f8"/><stop offset="1" stop-color="#dba0f5"/></linearGradient><path d="m157.784 41.2095c4.345-23.7499 25.04-41.002835 49.184-41.002835h290.317c27.614 0 50 22.385735 50 50.000035v227.9923c0 27.614-22.386 50-50 50h-332.024c-31.217 0-54.801-28.29-49.184-58.997z" fill="#68c9ba" opacity=".1"/><path d="m500.729 127.633c25.724 26.733-4.65 52.545-58.111 53.241-106.287-6.417-130.272-92.6565-122.239-111.9921 8.033-19.3357 31.951-19.8634 67.39 19.5259 35.439 39.3892 80.804 5.8105 112.96 39.2252z" stroke="#fff" stroke-width="1.5"/><ellipse rx="16.6779" ry="9.2298" stroke="#fff" stroke-width="1.5" transform="matrix(.944875 .32743 -.381598 .924328 410.633 54.3986)"/><ellipse cx="150.157" cy="280.26" fill="#98c3e8" opacity=".2" rx="150.157" ry="9.73991"/><path d="m250.397 251.781c-2.992-.748 1.87 8.417 4.676 13.093 2.129 3.741 6.546 3.273 6.546.935s-7.481-13.092-11.222-14.028z" fill="url(#b)"/><path d="m272.404 252.695c-.13-3.082-7.543 4.178-11.232 8.193-2.985 3.101-1.286 7.205.957 6.542 2.242-.662 10.437-10.882 10.275-14.735z" fill="url(#c)"/><path d="m261.597 248.64c-1.944-2.396-3.559 7.853-4.124 13.277-.544 4.269 3.269 6.548 4.673 4.678 1.404-1.869 1.88-14.961-.549-17.955z" fill="url(#d)"/><path d="m51.6723 277.799 1.4028-5.144h-4.2083l-6.5462 8.417z" fill="#6fcf97"/><path d="m23.6172 281.072 3.7407-3.273-3.2732-2.338-10.2868 5.611z" fill="#6fcf97"/><path d="m111.524 174.93-2.806 6.546-1.403 1.87-4.676 1.403-.467-5.144 3.273-7.949z" fill="#0ad1bd"/><path d="m125.551 177.735 1.403 1.87 3.741-1.87-1.871-3.273c-1.402-2.338-4.068-5.471-5.611-7.014-1.402-1.403-1.247-.467-1.402.468l2.805 3.74s-1.15.994-1.403 1.871c-.308 1.067-.146 1.88.468 2.805.504.761 1.87 1.403 1.87 1.403z" fill="url(#f)"/><path d="m105.912 188.957 2.338 3.273 4.208-3.273c-1.247-1.403-3.741-4.302-3.741-4.676v-2.805c-.935.312-2.286 1.325-3.74.935-1.497-.402-2.182-1.87-2.806-2.806 0 0-.944.464-1.403.936-1.5277 1.57-1.0939 3.712 0 5.611 1.143 1.982 5.144 2.805 5.144 2.805z" fill="url(#g)"/><path d="m130.695 177.735 17.305 16.765-9.356 2.406-11.69-17.3z" fill="url(#i)"/><path d="m159.218 185.684c-1.496-3.367 4.053-8.261 7.014-10.287l12.625 14.963-6.079 7.949-4.676 10.287-7.481-10.287 2.805-6.079c-.779-.779-2.712-3.179-4.208-6.546z" fill="url(#j)"/><path d="m27.3581 277.331-3.2731-1.87 47.2262-46.291h36.9388l7.949 15.43-48.6285 8.884z" fill="#68c9ba"/><path d="m114.5 244.5-47 9-8 4.5 14-28z" fill="#000" opacity=".2"/><path d="m127.889 219.818c-2.993 1.87-8.573 3.273-10.755 3.741l9.352 13.092 28.523-7.949 11.689-27.587-4.676-6.079c-2.026-.312-7.294-1.496-10.286-1.87-3.741-.468-21.977 5.611-25.25 5.611-2.619 0-10.443-6.547-14.028-9.82l-4.208 3.273c3.117 4.209 10.38 12.999 14.495 14.496 5.144 1.87 19.171-1.871 18.236 0-.935 1.87-9.352 10.754-13.092 13.092z" fill="url(#k)"/><path d="m146.5 208.5c-1.6 4-13.333 9.333-19 11.5 6-4 10.5-9.5 13.5-13 2.667-1 7.1-2.5 5.5 1.5z" fill="#000" opacity=".2"/><path d="m53.0755 272.655h-4.2083c4.3641-17.612 14.2146-52.837 18.7034-52.837 4.4889 0 34.9134 2.494 49.5644 3.741l7.949 10.286-21.084 9.655-28.948-6.381z" fill="url(#l)"/><path d="m114.33 278.266c-27.1202 1.403-30.3933-4.208-32.7313-8.416-2.8055-8.417 0-14.028 14.0276-22.444 14.0277-8.417 31.3287-16.834 45.3557-24.783 14.028-7.949 35.537-45.823 57.513-49.564 21.977-3.74 35.537 24.315 40.68 53.773 5.144 29.458-10.754 46.291-16.365 46.291s-81.36 3.74-108.48 5.143z" fill="url(#m)"/><path d="m166.231 185.684c-2.992-1.122-1.246-7.014 0-9.819 1.539-5.144 11.69-14.028 18.704-15.431 7.013-1.402 16.365 6.547 16.365 11.69 0 5.144 0 7.949 6.546 11.69 6.547 3.74 7.949 13.56.936 17.768-7.014 4.208-6.079.935-16.366 4.676s-15.898 21.041-20.106 13.56 2.805-7.014-1.403-12.157c-4.208-5.144 6.079-13.093 5.611-16.833-.468-3.741-6.546-3.741-10.287-5.144z" fill="#45292f"/><path d="m33.2783 166.628h36.4717v27.12h-36.4717z" fill="#9c69e2"/><path d="m51.9463 109h36.4717v27.12h-36.4717z" fill="#9c69e2"/><path d="m124.184 109h36.4717v27.12h-36.4717z" fill="#9c69e2"/><path d="m249.461 261.133c1.402-2.338 20.847-1.87 21.509 0 .661 1.871-.936 12.158-4.209 13.093-3.272.935-9.819 1.402-12.625 0-2.806-1.403-6.078-10.755-4.675-13.093z" fill="#b5bdfc"/><path d="m69.0833 116.583-4.5833 3.667h-3.6667v5.5h3.6667l4.5833 3.667z" stroke="#fff" stroke-linecap="round" stroke-linejoin="round" stroke-width="2"/><path d="m76.4808 116.519c1.7185 1.719 2.6839 4.05 2.6839 6.481s-.9654 4.762-2.6839 6.481m-3.2358-9.726c.8592.86 1.3419 2.025 1.3419 3.24 0 1.216-.4827 2.381-1.3419 3.241" stroke="#fff" stroke-linecap="round" stroke-linejoin="round" stroke-width="2"/><path d="m57 177.48c0-3.6-2.8889-6.48-6.5-6.48s-6.5 2.88-6.5 6.48c0 2.232 1.1556 4.248 2.8889 5.4v1.8c0 .936.5778 1.728 1.4444 2.016v.144c0 1.224.9389 2.16 2.1667 2.16s2.1667-.936 2.1667-2.16v-.144c.8666-.288 1.4444-1.08 1.4444-2.016v-1.8c1.7333-1.152 2.8889-3.168 2.8889-5.4zm-11.5556 0c0-2.808 2.2389-5.04 5.0556-5.04s5.0556 2.232 5.0556 5.04c0 2.52-1.8778 4.608-4.3334 4.968v-1.8l1.2278-1.224c.2889-.288.2889-.72 0-1.008s-.7222-.288-1.0111 0l-.9389.936-.9389-.936c-.2889-.288-.7222-.288-1.0111 0s-.2889.72 0 1.008l1.2278 1.224v1.8c-2.4556-.36-4.3334-2.448-4.3334-4.968zm5.0556 10.08c-.4333 0-.7222-.288-.7222-.72h1.4444c0 .432-.2889.72-.7222.72zm2.1667-2.88c0 .432-.2889.72-.7223.72h-2.8888c-.4334 0-.7223-.288-.7223-.72v-1.08c.65.216 1.3723.36 2.1667.36s1.5167-.144 2.1667-.36z" fill="#fff"/><g stroke="#fff"><path d="m142 130.333c4.602 0 8.333-3.731 8.333-8.333s-3.731-8.333-8.333-8.333-8.333 3.731-8.333 8.333 3.731 8.333 8.333 8.333z" stroke-linecap="round" stroke-linejoin="round" stroke-width="2"/><path d="m142 127c2.761 0 5-2.239 5-5s-2.239-5-5-5-5 2.239-5 5 2.239 5 5 5z" stroke-linecap="round" stroke-linejoin="round" stroke-width="2"/><path d="m142 123.667c.92 0 1.667-.746 1.667-1.667 0-.92-.747-1.667-1.667-1.667s-1.667.747-1.667 1.667c0 .921.747 1.667 1.667 1.667z" stroke-linecap="round" stroke-linejoin="round" stroke-width="2"/></g></svg>