<svg fill="none" height="595" viewBox="0 0 745 595" width="745" xmlns="http://www.w3.org/2000/svg"><path d="m332.037 490.91c34.855 0 63.11-6.246 63.11-13.95s-28.255-13.95-63.11-13.95c-34.854 0-63.11 6.246-63.11 13.95s28.256 13.95 63.11 13.95z" fill="#000"/><path d="m332.037 476.96-35.45 110.95" stroke="#000" stroke-linecap="round" stroke-miterlimit="10" stroke-width="4"/><path d="m332.037 476.96 35.45 110.95" stroke="#000" stroke-linecap="round" stroke-miterlimit="10" stroke-width="4"/><path d="m308.227 551.48 39.52-25.34" stroke="#000" stroke-linecap="round" stroke-miterlimit="10" stroke-width="2"/><path d="m316.167 526.14 39.53 25.34" stroke="#000" stroke-linecap="round" stroke-miterlimit="10" stroke-width="2"/><path d="m394.147 356.86c-.16 4.92-.09 22.15-.9 29.52" stroke="#1f161e" stroke-linecap="round" stroke-miterlimit="10"/><path d="m191.117 138.96c0-3.496-2.834-6.33-6.33-6.33s-6.33 2.834-6.33 6.33v21.85c0 3.496 2.834 6.33 6.33 6.33s6.33-2.834 6.33-6.33z" fill="#000"/><path d="m184.787 203.87c7.014 0 12.7-5.686 12.7-12.7s-5.686-12.7-12.7-12.7-12.7 5.686-12.7 12.7 5.686 12.7 12.7 12.7z" fill="#fbdc8e"/><path d="m609.367 342h6c.631-.003 1.235-.254 1.68-.7.446-.446.698-1.05.7-1.68v-36.88c.001-.313-.06-.622-.18-.911-.12-.288-.297-.55-.52-.769l-7.58-7.58c-.22-.222-.481-.398-.77-.518-.288-.12-.597-.182-.91-.182h-22.389c-.631.003-1.235.254-1.681.7-.445.446-.697 1.05-.699 1.68v3.56" fill="#fbdc8e"/><path d="m88.0575 430c18.9995 3.6 15.6095 117-20.86 110.14-34.44-6.54-2.32-114.55 20.86-110.14z" fill="#000"/><path d="m4.63747 444c15.12003-8.56 78.41003 71.08 49.46003 87.46-27.35 15.54-67.87-77.02-49.46003-87.46z" fill="#fbdc8e"/><path d="m81.6875 594.92h-38.18c-1.5378 0-3.0215-.568-4.1672-1.594-1.1457-1.025-1.8731-2.438-2.0428-3.966l-4.82-43.28c-.1045-.878-.0219-1.768.2423-2.611.2643-.844.7043-1.622 1.2909-2.283.5867-.662 1.3068-1.191 2.1129-1.554.806-.363 1.6799-.551 2.5639-.552h47.62c.8769.001 1.7439.186 2.5447.543.8007.358 1.5172.88 2.1029 1.533.5857.652 1.0275 1.421 1.2967 2.256.2692.834.3597 1.716.2657 2.588l-4.61 43.28c-.1537 1.544-.875 2.975-2.0243 4.017-1.1492 1.042-2.6444 1.621-4.1957 1.623z" fill="#969696"/><path d="m98.7875 385.84c14.4695 4.2 3.3795 91.73-24.33 83.67-26.16-7.6 6.72-88.79 24.33-83.67z" fill="#ab8de5"/><path d="m122.647 455.48c10 8.62-30.6795 74.56-49.8995 58-18.15-15.57 37.6895-68.48 49.8995-58z" fill="#fbdc8e"/><path d="m62.6975 394.94c21.66 0 41.4895 138.3 0 138.3-39.18 0-26.37-138.3 0-138.3z" fill="#78e5e1"/><path d="m100.707 529.72h-76.1995c-2.2368 0-4.05 1.813-4.05 4.05v7.38c0 2.237 1.8132 4.05 4.05 4.05h76.1995c2.237 0 4.05-1.813 4.05-4.05v-7.38c0-2.237-1.813-4.05-4.05-4.05z" fill="#d8d8d8"/><path d="m599.287 298.72h-22c-.352 0-.702.07-1.027.205-.326.135-.622.334-.871.583-.249.25-.446.547-.58.873-.134.327-.203.676-.201 1.029v43.8c-.001.712.282 1.394.784 1.899.502.504 1.184.788 1.895.791h29.391c.711-.003 1.393-.287 1.895-.791.503-.505.785-1.187.785-1.899v-36.4c.001-.352-.067-.702-.201-1.028s-.331-.622-.579-.872l-7.4-7.4c-.501-.503-1.181-.787-1.891-.79z" fill="#d8d8d8"/><path d="m609.367 307.76h-7.469c-.398 0-.78-.158-1.061-.439-.281-.282-.439-.663-.439-1.061v-7.54" fill="#969696"/><path d="m617.778 301.83h-7.471c-.399-.003-.782-.163-1.064-.445-.283-.283-.443-.665-.446-1.065v-7.54" fill="#64ccc4"/><path d="m574.638 248.65h-51.56c-1.674 0-3.031 1.357-3.031 3.03v16.84c0 1.673 1.357 3.03 3.031 3.03h51.56c1.673 0 3.029-1.357 3.029-3.03v-16.84c0-1.673-1.356-3.03-3.029-3.03z" fill="#78e5e1"/><path d="m548.847 287.25 6.94-21.02h-13.88z" fill="#78e5e1"/><path d="m535.097 254.75-5.819 10.07h11.629z" fill="#fff"/><path d="m562.607 264.82 5.82-10.07h-11.64z" fill="#fff"/><path d="m548.847 264.16c2.414 0 4.37-1.957 4.37-4.37s-1.956-4.37-4.37-4.37c-2.413 0-4.37 1.957-4.37 4.37s1.957 4.37 4.37 4.37z" fill="#fff"/><path d="m544.357 200.12h-33.84c-1.463 0-2.65 1.186-2.65 2.65v20.46c0 1.464 1.187 2.65 2.65 2.65h33.84c1.464 0 2.65-1.186 2.65-2.65v-20.46c0-1.464-1.186-2.65-2.65-2.65z" fill="#d8d8d8"/><path d="m509.097 200.93 18.34 12.07" stroke="#969696" stroke-linecap="round" stroke-linejoin="round" stroke-width=".82"/><path d="m547.008 200.12-19.57 12.88" stroke="#969696" stroke-linecap="round" stroke-linejoin="round" stroke-width=".82"/><path d="m547.008 205.72c3.092 0 5.599-2.507 5.599-5.6s-2.507-5.6-5.599-5.6c-3.093 0-5.601 2.507-5.601 5.6s2.508 5.6 5.601 5.6z" fill="#fbdc8e"/><path d="m547.986 201.98h-.663v-4.395l-1.33.488v-.598l1.89-.71h.103z" fill="#fff"/><path d="m743.427 215.83h-146c-.679 0-1.229.551-1.229 1.23v.76c0 .679.55 1.23 1.229 1.23h146c.68 0 1.23-.551 1.23-1.23v-.76c0-.679-.55-1.23-1.23-1.23z" fill="#d8d8d8"/><path d="m659.097 151.89h-8.87c-1.413 0-2.56 1.146-2.56 2.56v58.82c0 1.414 1.147 2.56 2.56 2.56h8.87c1.414 0 2.56-1.146 2.56-2.56v-58.82c0-1.414-1.146-2.56-2.56-2.56z" fill="#969696"/><path d="m666.528 166.88h-2.741c-1.176 0-2.13.954-2.13 2.13v44.69c0 1.176.954 2.13 2.13 2.13h2.741c1.176 0 2.129-.954 2.129-2.13v-44.69c0-1.176-.953-2.13-2.129-2.13z" fill="#d8d8d8"/><path d="m673.597 166.88h-2.88c-1.137 0-2.06.922-2.06 2.06v44.83c0 1.138.923 2.06 2.06 2.06h2.88c1.138 0 2.06-.922 2.06-2.06v-44.83c0-1.138-.922-2.06-2.06-2.06z" fill="#969696"/><path d="m678.673 170.383-2.362 1.085c-1.105.507-1.589 1.813-1.082 2.917l18.588 40.487c.507 1.105 1.813 1.589 2.917 1.082l2.363-1.085c1.104-.507 1.588-1.813 1.081-2.917l-18.587-40.487c-.507-1.104-1.813-1.589-2.918-1.082z" fill="#d8d8d8"/><path d="m654.657 199.65c2.16 0 3.911-1.751 3.911-3.91s-1.751-3.91-3.911-3.91c-2.159 0-3.91 1.751-3.91 3.91s1.751 3.91 3.91 3.91z" fill="#d8d8d8"/><path d="m658.198 201.99h-7.081c-.519 0-.94.421-.94.94s.421.94.94.94h7.081c.519 0 .94-.421.94-.94s-.421-.94-.94-.94z" fill="#d8d8d8"/><path d="m658.198 206.8h-7.081c-.519 0-.94.421-.94.94s.421.94.94.94h7.081c.519 0 .94-.421.94-.94s-.421-.94-.94-.94z" fill="#d8d8d8"/><g fill="#969696"><path d="m586.557 303.24h-7.08c-.519 0-.94.421-.94.94s.421.94.94.94h7.08c.52 0 .94-.421.94-.94s-.42-.94-.94-.94z"/><path d="m586.557 307.76h-7.08c-.519 0-.94.421-.94.94s.421.94.94.94h7.08c.52 0 .94-.421.94-.94s-.42-.94-.94-.94z"/><path d="m604.917 315.49h-25.849c-.52 0-.94.421-.94.94s.42.94.94.94h25.849c.52 0 .94-.421.94-.94s-.42-.94-.94-.94z"/><path d="m604.917 319.93h-25.849c-.52 0-.94.421-.94.94s.42.94.94.94h25.849c.52 0 .94-.421.94-.94s-.42-.94-.94-.94z"/><path d="m604.917 324.37h-25.849c-.52 0-.94.421-.94.94s.42.94.94.94h25.849c.52 0 .94-.421.94-.94s-.42-.94-.94-.94z"/><path d="m665.888 174.27c0-.403-.327-.73-.731-.73-.403 0-.73.327-.73.73v34.16c0 .403.327.73.73.73.404 0 .731-.327.731-.73z"/></g><path d="m635.177 217.44h-6.26c-1.375 0-2.49 1.115-2.49 2.49s1.115 2.49 2.49 2.49h6.26c1.376 0 2.49-1.115 2.49-2.49s-1.114-2.49-2.49-2.49z" fill="#d8d8d8"/><path d="m711.938 217.44h-6.261c-1.375 0-2.489 1.115-2.489 2.49s1.114 2.49 2.489 2.49h6.261c1.375 0 2.489-1.115 2.489-2.49s-1.114-2.49-2.489-2.49z" fill="#d8d8d8"/><path d="m475.647 222.31h-36.51c-6.627 0-12 5.373-12 12v17.81c0 6.627 5.373 12 12 12h36.51c6.628 0 12-5.373 12-12v-17.81c0-6.627-5.372-12-12-12z" fill="#d8d8d8"/><path d="m448.757 229.04h-9.1v28.35h9.1z" fill="#ab8de5"/><path d="m461.947 247.9h-9.1v9.5h9.1z" fill="#ab8de5"/><path d="m475.127 239.9h-9.1v17.49h9.1z" fill="#ab8de5"/><path d="m184.787 152.88c-5.029-.001-10.009.988-14.656 2.912-4.646 1.923-8.868 4.744-12.425 8.299-3.557 3.556-6.378 7.778-8.303 12.424s-2.916 9.626-2.916 14.655h76.6c0-5.029-.99-10.009-2.915-14.655s-4.746-8.868-8.303-12.424c-3.557-3.555-7.779-6.376-12.426-8.299-4.646-1.924-9.626-2.913-14.656-2.912z" fill="#ab8de5"/><path d="m184.787 139.92v-138.92" stroke="#000" stroke-linecap="round" stroke-linejoin="round" stroke-width="2"/><path d="m485.187 574.68c0 2.37-1.39 17.32 1.38 18.7s33.22 2.22 34.6.83 2.21-4.29 1-5.12-13-3.18-14.6-4.29-3.81-7-3-10.12" fill="#1f161e"/><path d="m394.147 379.25 17.14-6.15c-.74-31.27-8.05-101.14-18.43-111.53-2.44-2.43-50.7-6.67-59.31-6.67-51.38 0-66.62 5.86-70.49 9.74-12 12-15.74 67.6-15.74 87.07s55 29.57 55 29.57l64.47 4.43s14.14 1.46 26.37 2.18c.27-3.75.99-8.64.99-8.64z" fill="#78e5e1"/><path d="m445.217 397.38c4.69-1.39 51.33-9 61.49 1s42.14 153.37 42.14 156.67h-25.75l-34.76-74.81" fill="#1f161e"/><path d="m275.407 384.63c-1.17 5.85-8.2 12.13-8.2 44 0 44.07 36.1 45 49.06 45 40.38 0 105.71-12 110.12-14.2 2.93 4.9 56.86 115 57.11 117.46h24.83s-15.39-164.72-43.16-183.4c-9.02-6-169.05-12.42-189.76-8.86z" fill="#55b79d"/><path d="m420.807 352.41c-6.52 0-11.9 1.55-26.66 4.45l-.77 28.24c14-5.64 17.25-13.48 21.31-13.48 10.14 0 15.44 5.23 21.43 5.23 4.18 0 11.7-3.28 11.7-7.74 0-9.34-18.93-16.7-27.01-16.7z" fill="#f8cdba"/><path d="m524.557 553.07c0 2.38-1.39 17.32 1.38 18.71s33.22 2.21 34.6.83 2.21-4.29 1-5.12-13-3.19-14.6-4.3-3.81-7-3-10.12" fill="#1f161e"/><path d="m342.637 261.55c0 3.77-21.89 3.88-21.89 0v-30.66h21.89z" fill="#f8cdba"/><path d="m335.507 241c-2 0-14.76 5.64-14.76 8.79v-16.64c3.18 0 14.76 7.85 14.76 7.85z" fill="#1f161e"/><path d="m339.737 242.3c14.636 0 26.5-11.864 26.5-26.5s-11.864-26.5-26.5-26.5c-14.635 0-26.5 11.864-26.5 26.5s11.865 26.5 26.5 26.5z" fill="#f8cdba"/><path d="m367.087 195c-3.28 5.21-10.14 7.6-17.57 7.6-6.33 0-15.55-1.84-22.11 1.9-3.55 2-7.62 6.55-8.44 15.66 0 1.56-1.77 7.61-1.77 9.56 0 1.33-1.5 2.2-4 2.2-1.29 0-3.84-2.09-3.84-5.28 0-3.69 1.47-5 1.47-8.13s-3.83-6.14-3.83-14.84c0-12.53 8-20.25 13.66-20.25 5.16 0 6.78 1.2 7.43 1.71 0-11.39 15-16.59 20.95-16.59 6.8 0 10 2.79 10 6.34 0 5.66-2.7 10.47-4.07 11.55 3.101-2.79 7.129-4.326 11.3-4.31 7.79 0 10.41 5.12 10.41 8.62 0 7.61-9.13 14.66-12.53 14.66-.855-1.81-1.858-3.546-3-5.19" fill="#1f161e"/><path d="m319.787 224.95c3.121 0 5.65-2.53 5.65-5.65s-2.529-5.65-5.65-5.65c-3.12 0-5.65 2.53-5.65 5.65s2.53 5.65 5.65 5.65z" fill="#f8cdba"/><path d="m366.497 220.66c2.419 0 4.38-1.021 4.38-2.28s-1.961-2.28-4.38-2.28-4.38 1.021-4.38 2.28 1.961 2.28 4.38 2.28z" fill="#fa9e9f"/><path d="m338.947 220.66c2.419 0 4.38-1.021 4.38-2.28s-1.961-2.28-4.38-2.28-4.38 1.021-4.38 2.28 1.961 2.28 4.38 2.28z" fill="#fa9e9f"/><path d="m355.797 213.65c.82 1.17 5 6.08.59 8.07" stroke="#1f161e" stroke-linecap="round" stroke-miterlimit="10"/><path d="m347.557 227.45c-1.32 0-3.35-1.64-4.42-3.11" stroke="#1f161e" stroke-linecap="round" stroke-miterlimit="10"/><path d="m382.497 298.62c2 4.25 11.65 45.25 11.65 58.24" stroke="#1f161e" stroke-linecap="round" stroke-miterlimit="10"/><path d="m247.317 348.41c0 46.09.43 59.46 18.93 59.46 42.64 0 107.1-35 118.59-35 10.15 0 15.45 5.24 21.44 5.24 4.17 0 11.69-3.29 11.69-7.74 0-9.35-18.93-16.71-27-16.71-18.17 0-90.68 17.52-92.45 17.52s-4.75-.77-4.75-3.75c0-5.41 3.54-17.91 4-19z" fill="#f8cdba"/><path d="m308.417 308.21c-1.22 3.51-10.73 39.78-11.83 44.2" stroke="#1f161e" stroke-linecap="round" stroke-miterlimit="10"/><path d="m669.456 588.747c.719 2.734 3.518 4.368 6.253 3.649 2.735-.718 4.369-3.518 3.65-6.253l-51.199-194.742c-.719-2.735-3.518-4.369-6.253-3.65s-4.369 3.519-3.65 6.253z" fill="#969696"/><path d="m617.748 394.013c.719-2.735-.915-5.535-3.65-6.254-2.734-.719-5.534.915-6.253 3.65l-51.199 194.742c-.719 2.735.915 5.535 3.65 6.254s5.535-.915 6.254-3.65z" fill="#969696"/><path d="m547.1 394.011c.719-2.734-.915-5.534-3.65-6.253s-5.535.915-6.254 3.65l-51.198 194.742c-.719 2.735.915 5.535 3.65 6.254 2.734.719 5.534-.915 6.253-3.65z" fill="#d8d8d8"/><path d="m597.917 585.152c.707 2.743 3.504 4.394 6.246 3.687 2.743-.707 4.394-3.504 3.687-6.247l-50.34-195.319c-.707-2.743-3.504-4.393-6.247-3.686s-4.393 3.503-3.686 6.246z" fill="#d8d8d8"/><path d="m258.679 394.017c.719-2.735-.915-5.535-3.65-6.254s-5.535.915-6.254 3.65l-51.198 194.742c-.719 2.735.915 5.535 3.65 6.254 2.734.719 5.534-.915 6.253-3.65z" fill="#969696"/><path d="m309.516 588.759c.719 2.735 3.519 4.369 6.254 3.65s4.369-3.519 3.65-6.253l-51.199-194.743c-.719-2.734-3.519-4.369-6.253-3.65-2.735.719-4.369 3.519-3.65 6.254z" fill="#969696"/><path d="m649.267 378.14h-495.17c-2.501 0-4.53 2.028-4.53 4.53v6.09c0 2.502 2.029 4.53 4.53 4.53h495.17c2.502 0 4.53-2.028 4.53-4.53v-6.09c0-2.502-2.028-4.53-4.53-4.53z" fill="#d8d8d8"/><path d="m185.504 394.02c.719-2.735-.915-5.535-3.65-6.254s-5.535.915-6.253 3.65l-51.199 194.742c-.719 2.735.915 5.535 3.65 6.254 2.734.719 5.534-.915 6.253-3.65z" fill="#d8d8d8"/><path d="m236.341 588.76c.719 2.734 3.519 4.368 6.254 3.649 2.734-.718 4.368-3.518 3.649-6.253l-51.198-194.742c-.719-2.735-3.519-4.369-6.254-3.65s-4.369 3.519-3.65 6.253z" fill="#d8d8d8"/><path d="m520.277 378.14h-92.51l16.76-57.64c.419-1.391 1.276-2.609 2.444-3.472s2.584-1.326 4.036-1.318h78.5c1.032-.017 2.052.208 2.981.656.929.447 1.741 1.106 2.37 1.923.63.816 1.06 1.769 1.256 2.782.196 1.012.152 2.056-.127 3.049z" fill="#000"/><path d="m485.377 352.58c3.126 0 5.66-2.534 5.66-5.66s-2.534-5.66-5.66-5.66c-3.125 0-5.66 2.534-5.66 5.66s2.535 5.66 5.66 5.66z" fill="#fff"/><path d="m438.757 374.09h-64.91v4.05h64.91z" fill="#000"/></svg>