<svg width="326" height="235" viewBox="0 0 326 235" fill="none" xmlns="http://www.w3.org/2000/svg">
<path d="M63.946 178.574C75.822 156.831 38.333 146.607 29.295 155.231C20.257 163.856 50.219 203.706 63.946 178.574Z" fill="#FBDC8E"/>
<path d="M79.707 171.937C103.012 171.937 92.465 130.253 82.501 130.253C70.009 130.254 52.781 171.937 79.707 171.937Z" fill="#FBDC8E"/>
<path d="M97.67 187.058C116.883 202.699 133.771 167.702 126.939 157.243C120.106 146.784 75.461 168.979 97.67 187.058Z" fill="#FBDC8E"/>
<path d="M73.168 197.407C69.925 189.903 65.178 182.911 59.06 176.627C48.651 165.937 37.703 160.923 37.593 160.874C37.267 160.727 36.883 160.872 36.736 161.197C36.589 161.523 36.734 161.907 37.06 162.054C37.167 162.103 47.926 167.036 58.164 177.564C64.164 183.733 68.816 190.591 71.99 197.947C72.35 198.782 72.685 199.625 73.007 200.473H74.392C74.01 199.442 73.605 198.419 73.168 197.407Z" fill="#FF78BA"/>
<path d="M81.922 138.801C81.964 138.446 81.71 138.124 81.355 138.081C80.999 138.038 80.678 138.292 80.635 138.647C80.593 139.001 77.325 166.935 77.492 200.472H78.787C78.621 167.023 81.88 139.154 81.922 138.801Z" fill="#FF78BA"/>
<path d="M120.466 161.926C120.267 161.628 119.865 161.548 119.568 161.747C119.475 161.809 110.127 168.097 100.51 178.438C95.272 184.071 89.318 191.622 84.956 200.472H86.404C90.668 192.012 96.39 184.773 101.438 179.342C110.954 169.104 120.195 162.885 120.288 162.823C120.585 162.626 120.665 162.223 120.466 161.926Z" fill="#FF78BA"/>
<path d="M78.788 200.473H77.493H74.392H73.007H54.93C54.235 200.473 53.742 201.151 53.957 201.813L55.098 205.314L55.675 207.086L63.936 232.432C64.16 233.12 64.802 233.586 65.525 233.586H95.302C96.025 233.586 96.667 233.12 96.891 232.432L105.153 207.086L105.73 205.314L106.871 201.813C107.087 201.152 106.594 200.473 105.899 200.473H86.401H84.953H78.788Z" fill="#73E5E2"/>
<path d="M105.732 205.313L105.155 207.085H55.676L55.099 205.313H105.732Z" fill="#AEC3FF"/>
<path d="M164.263 100.457H7.963C3.565 100.457 0 96.8919 0 92.4939V7.96289C0 3.56489 3.565 0 7.963 0H164.263C168.661 0 172.226 3.56489 172.226 7.96289V92.4939C172.226 96.8919 168.661 100.457 164.263 100.457Z" fill="#FAEFE9"/>
<path d="M153.013 31.2378H95.683C94.74 31.2378 93.976 30.474 93.976 29.531C93.976 28.588 94.74 27.824 95.683 27.824H153.013C153.956 27.824 154.72 28.588 154.72 29.531C154.72 30.473 153.956 31.2378 153.013 31.2378Z" fill="#D2DCFF"/>
<path d="M125.971 40.5469H95.683C94.74 40.5469 93.976 39.7828 93.976 38.8398C93.976 37.8968 94.74 37.1328 95.683 37.1328H125.971C126.914 37.1328 127.678 37.8968 127.678 38.8398C127.678 39.7828 126.914 40.5469 125.971 40.5469Z" fill="#D2DCFF"/>
<path d="M115.19 74.9399H95.683C94.74 74.9399 93.976 74.1759 93.976 73.2329C93.976 72.2899 94.74 71.5259 95.683 71.5259H115.19C116.133 71.5259 116.897 72.2899 116.897 73.2329C116.897 74.1759 116.133 74.9399 115.19 74.9399Z" fill="#89AEFF"/>
<path d="M278.166 120.846C278.166 122.981 279.33 124.845 281.057 125.837L281.566 124.791C282.986 121.874 283.008 118.482 281.647 115.559C279.599 116.44 278.166 118.476 278.166 120.846Z" fill="#F9AFAB"/>
<path d="M216.415 68.8469L218.126 65.511C217.658 62.766 217.459 59.7808 217.616 56.5808C217.651 55.8578 217.705 55.1249 217.778 54.3809C221.347 54.6969 231.82 55.1158 239.523 50.2278C238.955 54.7648 240.651 59.793 243.462 64.031C243.803 63.213 245.03 60.6829 247.144 60.6829C251.373 60.6829 252.013 67.4409 249.648 70.6599C251.281 71.8729 252.991 72.7879 254.685 73.2969C254.685 73.2969 254.692 73.2898 254.703 73.2788V92.7339H238.303V84.2559C236.098 85.0659 234.14 85.5298 232.759 85.5298C228.631 85.5298 222.374 79.9929 219.339 70.5059H217.43C216.801 70.5059 216.291 69.9959 216.291 69.3669C216.289 69.1859 216.332 69.0079 216.415 68.8469Z" fill="#FCBEB7"/>
<path d="M249.648 70.6609C252.013 67.4419 251.373 60.6838 247.144 60.6838C245.031 60.6838 243.804 63.214 243.462 64.032C240.651 59.793 238.955 54.766 239.523 50.229C231.819 55.117 221.347 54.6978 217.778 54.3818C217.705 55.1258 217.651 55.8598 217.616 56.5818C217.307 56.2888 216.582 55.4738 216.53 54.2458C216.528 54.2458 216.527 54.2458 216.527 54.2458C216.527 54.2108 216.527 54.1758 216.528 54.1418C216.528 54.1308 216.527 54.1209 216.527 54.1099C216.527 54.1039 216.528 54.0968 216.528 54.0908C216.622 47.0868 223.034 35.1938 238.68 35.1938C255.259 35.1938 258.36 45.9878 258.36 45.9878C258.36 45.9878 264.067 49.114 264.067 55.418C264.067 63.701 255.137 72.842 254.703 73.282C254.692 73.293 254.685 73.2998 254.685 73.2998C252.991 72.7888 251.281 71.8739 249.648 70.6609Z" fill="#311643"/>
<path d="M238.303 92.7349V84.2568C242.856 82.5848 248.462 79.4399 252.217 75.8669L238.303 92.7349Z" fill="#F9AFAB"/>
<path d="M235.591 72.5269C238.046 72.5269 240.037 70.5363 240.037 68.0808C240.037 65.6254 238.046 63.635 235.591 63.635C233.136 63.635 231.145 65.6254 231.145 68.0808C231.145 70.5363 233.136 72.5269 235.591 72.5269Z" fill="#F49795"/>
<path d="M226.086 74.9549C226.98 74.9549 227.591 74.6159 227.962 74.3079C228.424 73.9249 228.618 73.5109 228.639 73.4649C228.732 73.2589 228.64 73.0169 228.434 72.9229C228.229 72.8299 227.987 72.9211 227.894 73.1261C227.869 73.1801 227.32 74.2971 225.746 74.1151C225.521 74.0891 225.318 74.2499 225.292 74.4749C225.266 74.6999 225.427 74.903 225.652 74.929C225.803 74.947 225.948 74.9549 226.086 74.9549Z" fill="#311643"/>
<path d="M223.578 62.635C224.071 62.635 224.471 62.2349 224.471 61.7419V60.073C224.471 59.58 224.071 59.1799 223.578 59.1799C223.085 59.1799 222.685 59.58 222.685 60.073V61.7419C222.685 62.2349 223.085 62.635 223.578 62.635Z" fill="#311643"/>
<path d="M217.553 60.4978H220.31V55.4148C220.31 55.1888 220.493 55.0059 220.719 55.0059C220.945 55.0059 221.128 55.1888 221.128 55.4148V66.4009C221.128 66.6269 220.945 66.8098 220.719 66.8098C220.493 66.8098 220.31 66.6269 220.31 66.4009V61.3169H217.553C217.327 61.3169 217.144 61.134 217.144 60.908C217.144 60.682 217.327 60.4978 217.553 60.4978Z" fill="white"/>
<path d="M190.446 126.269L236.593 144.244L250.218 162.38C252.318 165.175 255.282 167.142 258.597 168.017L238.407 181.919L199.772 161.591L201.363 210.95H184.031L169.545 144.104C166.911 131.952 178.861 121.757 190.446 126.269Z" fill="#9562D7"/>
<path d="M201.363 217.918V230.164C201.363 231.592 200.205 232.749 198.777 232.749H164.043C163.713 232.749 163.445 232.481 163.445 232.151V229.894C163.445 228.805 164.08 227.815 165.07 227.362L185.697 217.917H201.363V217.918Z" fill="#2F3D6C"/>
<path d="M201.363 210.95V217.918H185.697L184.031 210.95H201.363Z" fill="#FCBEB7"/>
<path d="M217.111 170.714L238.407 181.919L254.291 170.714H217.111Z" fill="#9562D7"/>
<path d="M169.97 135.846C171.287 136.726 172.87 137.239 174.572 137.239C179.153 137.239 182.866 133.525 182.866 128.944C182.866 127.682 182.584 126.485 182.08 125.415C176.494 126.408 171.781 130.462 169.97 135.846Z" fill="#9562D7"/>
<path d="M275.885 104.724L281.386 115.034C283.006 118.07 283.073 121.698 281.566 124.791L281.093 125.762L276.816 108.031C276.547 106.913 276.236 105.811 275.885 104.724Z" fill="#FCBEB7"/>
<path d="M258.597 168.017C258.489 167.988 258.381 167.959 258.274 167.928C255.09 167.013 252.25 165.084 250.218 162.38L236.593 144.244L237.663 107.372L223.93 110.363L218.484 93.177L254.694 78.895C264.807 84.534 272.357 93.7849 275.885 104.724C276.235 105.81 276.547 106.913 276.816 108.031L281.093 125.762L291.583 169.251L262.145 168.523C260.934 168.493 259.745 168.32 258.597 168.017Z" fill="#AB8DE5"/>
<path d="M237.477 113.795L255.455 102.479L237.664 107.379L237.477 113.795Z" fill="#4A62D3"/>
<path d="M286.215 216.667L292.677 210.362C293.938 209.131 295.901 208.983 297.333 210.009L325.03 229.866C325.386 230.121 325.467 230.616 325.212 230.972L323.996 232.669C323.353 233.566 322.31 234.089 321.206 234.068L310.084 233.853L286.215 216.667Z" fill="#2F3D6C"/>
<path d="M286.215 233.852H310.084L286.215 216.667V233.852Z" fill="#FCBEB7"/>
<path d="M207.491 203.456L258.274 167.928C258.381 167.959 258.489 167.989 258.597 168.017C259.745 168.32 260.934 168.493 262.145 168.523L291.583 169.251C291.583 181.907 283.982 193.324 272.307 198.206L242.41 210.708L286.216 216.666V233.851H217.069C200.731 233.852 194.105 212.821 207.491 203.456Z" fill="#9562D7"/>
<path d="M204.957 228.737C207.302 227.272 208.862 224.668 208.862 221.698C208.862 217.167 205.228 213.484 200.716 213.405C199.517 218.845 201.164 224.694 204.957 228.737Z" fill="#4A5EA3"/>
<path d="M144.698 55.75L155.132 52.2839C155.751 52.0779 156.427 52.1359 157.002 52.4419L163.454 55.8798L164.914 56.198C165.459 56.317 165.909 56.6978 166.116 57.2148L168.655 63.5688L211.917 95.5349L218.484 93.1779L223.93 110.364L211.234 112.986C208.285 113.595 205.228 112.674 203.106 110.538L162.493 69.646L155.036 65.2619C154.349 64.8579 153.915 64.1309 153.885 63.3349L153.855 62.5439L153.372 62.0778C152.863 61.5878 152.604 60.8929 152.666 60.1899L152.724 59.5339C152.181 59.0039 151.93 58.2429 152.049 57.4939L152.154 56.833L145.12 57.656C144.679 57.708 144.259 57.4569 144.095 57.0439C143.887 56.5189 144.162 55.927 144.698 55.75Z" fill="#FCBEB7"/>
<path d="M202.379 109.805L203.107 110.537C205.229 112.674 208.286 113.594 211.235 112.985L211.83 112.863V112.862C211.486 110.159 209.179 108.07 206.383 108.07C204.804 108.069 203.38 108.737 202.379 109.805Z" fill="#F9AFAB"/>
</svg>
