<svg fill="none" height="191" viewBox="0 0 261 191" width="261" xmlns="http://www.w3.org/2000/svg"><path d="m127.541 185.867c51.326 0 92.934-41.608 92.934-92.9335 0-51.3258-41.608-92.9335-92.934-92.9335-51.3255 0-92.9332 41.6077-92.9332 92.9335 0 51.3255 41.6077 92.9335 92.9332 92.9335z" fill="#faefe9"/><path d="m202.254 188.993c.04-.875.067-1.753.067-2.645 0-42.163-45.291-76.343-101.159-76.343-55.8687 0-101.162 34.187-101.162 76.343 0 .885.0264494 1.762.0673257 2.645z" fill="#e2e2e2"/><path d="m260.098 188.993c.029-.618.051-1.239.051-1.864 0-29.779-33.819-53.92-75.537-53.92s-75.537 24.141-75.537 53.92c0 .625.019 1.246.05 1.864z" fill="#efefef"/><path d="m38.9359 188.993c.1378-.815.2069-1.64.2068-2.467 0-6.562-4.268-11.881-9.5338-11.881-5.2659 0-9.5314 5.319-9.5314 11.881-.0002.827.069 1.652.2068 2.467z" fill="#99574a"/><path d="m196.245 188.993c.137-.815.207-1.64.206-2.467 0-6.562-4.268-11.881-9.533-11.881-5.266 0-9.534 5.319-9.534 11.881 0 .827.069 1.652.207 2.467z" fill="#99574a"/><path d="m232.726 78.6316-27.654 110.3614h55.308z" fill="#99574a"/><path d="m165.126 113.622c-4.934 4.7 13.41 21.695 16.076 19.365 2.667-2.33-11.255-23.958-16.076-19.365z" fill="#73e5e2"/><path d="m167.203 115.976c2.068 1.791 11.542 12.116 13.999 17.011" stroke="#fbdc8e" stroke-linecap="round" stroke-miterlimit="10" stroke-width="2"/><path d="m75.6716 118.933c7.0933 3.227 7.906 15.189 6.6172 17.863-2.0607 4.271-9.5603 10.45-11.5776 14.716-.8657 1.832-8.1873 20.919-14.9968 18.692-6.0617-1.988-9.3775-10.765-5.9535-16.87 5.0494-9.026 7.0836-21.068 8.8725-24.285 2.3612-4.23 10.1349-13.256 17.0382-10.116z" fill="#50b89d"/><path d="m53.1752 188.442c0-4.371 2.645-39.349 15.2253-53.637" stroke="#fbdc8e" stroke-linecap="round" stroke-miterlimit="10" stroke-width="3"/><path d="m63.9233 141.432-2.7243-10.421" stroke="#fbdc8e" stroke-linecap="round" stroke-miterlimit="10" stroke-width="3"/><path d="m65.6858 161.36 5.9776-2.416" stroke="#fbdc8e" stroke-linecap="round" stroke-miterlimit="10" stroke-width="3"/><path d="m119.984 68.4173c.842.1539 3.09.4665 4.73.1539 1.639-.3126 1.505-3.7847-.52-3.8352-2.024-.0505-4.21 3.6813-4.21 3.6813z" fill="#1f161e"/><path d="m108.707 112.677c-.628 1.885-6.733 26.704-7.913 27.892-1.1808 1.188-34.2378 18.324-34.2378 18.324l2.2434 5.675s34.6414-11.061 36.4354-12.039c1.794-.979 15.451-12.963 17.533-17.998 2.083-5.035-11.669-21.924-14.061-21.854z" fill="#1f161e"/><path d="m141.894 180.267c0 .57-.335 4.164.332 4.496.666.332 7.987.534 8.319.2s.534-1.032.241-1.231c-.294-.2-3.126-.765-3.511-1.032s-.916-1.683-.721-2.433" fill="#1f161e"/><path d="m66.8063 159.439c-.5266.219-3.9746 1.289-4.0251 2.032s2.568 7.581 3.0032 7.759 1.1565.099 1.2263-.255c.0697-.353-.4809-3.181-.392-3.638.089-.456 1.2023-1.488 1.9741-1.594" fill="#1f161e"/><path d="m140.617 98.5287c-.709.2068-6.41 1.6253-7.002 1.6253-.591 0-1.419 5.728-.827 5.67.591-.058 8.067-2.301 9.928-2.479s-2.099-4.8163-2.099-4.8163z" fill="#f8cdba"/><path d="m119.768 73.724c4.253-.3991 12.104 1.6447 14.576 3.0609 4.866 2.7892-.751 38.7531-3.275 41.4221-2.258.895-21.4-3.607-22.362-5.53.512-3.847 8.101-17.1828 8.822-17.9041-.481-.4809-2.645-3.1258-2.645-3.1258s1.945-2.6113 2.164-2.7604c-.62-.4136-6.819-5.3091-7.163-5.5856 1.238-1.8322 8.452-9.4424 9.883-9.5771z" fill="#ab8de5"/><path d="m125.873 104.958c-.335-.815-10.609-12.8324-10.979-13.3157.56-.7791 1.488-1.9765 2.25-2.8734-2.933-2.14-6.081-4.5685-7.213-5.5495-.022.024-.031.0505-.053.0769-.512.6132-5.081 7.4539-5.081 8.4157s13.982 14.578 15.728 15.244c1.746.667 5.682-1.18 5.348-1.998z" fill="#f8cdba"/><path d="m127.593 108.926c1.126-1.723.51-4.12-1.377-5.354-1.888-1.234-4.331-.838-5.457.885-1.127 1.723-.51 4.12 1.377 5.354s4.331.837 5.457-.885z" fill="#f8cdba"/><path d="m142.266 104.013c1.833 0 3.319-1.485 3.319-3.318 0-1.8324-1.486-3.318-3.319-3.318-1.832 0-3.318 1.4856-3.318 3.318 0 1.833 1.486 3.318 3.318 3.318z" fill="#f8cdba"/><path d="m131.069 118.207s9.726 19.082 11.214 23.049c1.489 3.968 5.112 39.249 5.112 39.249s-4.845.572-6.148 0-6.706-26.238-9.685-31.499c-4.535-7.995-29.169-22.905-22.862-36.341" fill="#fbdc8e"/><path d="m123.788 75.6885c-.111.6252 4.972 1.5389 5.085.9113l1.135-6.3286-5.083-.9137z" fill="#f8cdba"/><path d="m128.246 71.9591c-.496-.0889-3.922.743-4.061 1.5245l.74-4.1261c.791.1322 3.321 2.6016 3.321 2.6016z" fill="#1f161e"/><path d="m130.198 72.6468c4.001 0 7.245-3.2436 7.245-7.2447 0-4.0012-3.244-7.2448-7.245-7.2448s-7.244 3.2436-7.244 7.2448c0 4.0011 3.243 7.2447 7.244 7.2447z" fill="#f8cdba"/><path d="m137.846 68.2906c.065-.3595-.443-.7512-1.133-.875s-1.302.0672-1.366.4267c-.065.3594.443.7512 1.133.875s1.302-.0673 1.366-.4267z" fill="#fa9e9f"/><path d="m129.992 66.8821c.064-.3595-.443-.7512-1.133-.875s-1.302.0672-1.366.4266c-.065.3595.442.7513 1.133.8751.69.1238 1.301-.0673 1.366-.4267z" fill="#fa9e9f"/><path d="m133.788 66.1715c.176.3751 1.123 1.9885-.24 2.33" stroke="#1f161e" stroke-linecap="round" stroke-miterlimit="10" stroke-width="1.2"/><path d="m130.732 69.6844c-.373-.0793-.87-.6371-1.101-1.1132" stroke="#1f161e" stroke-linecap="round" stroke-miterlimit="10" stroke-width="1.2"/><path d="m116.748 89.245c.661-.7382 3.125-3.7871 4.186-4.6431" stroke="#1f161e" stroke-linecap="round" stroke-miterlimit="10"/><path d="m131.189 55.7048c-1.924 0-7.634-.9426-9.024-1.9236-.553.3871-2.592 2.7411-4.117 5.7708l2.996 2.3371-3.556-1.1277c-.703 1.5637-1.11 3.2438-1.202 4.9557 1.164 2.2313 4.013 2.8541 4.53 2.8541 3.366 0 3.991-5.3067 5.581-6.1531 2.698-1.4427 6.388.9618 10.563.2549.671-2.0198-1.164-6.9682-5.771-6.9682z" fill="#1f161e"/><path d="m123.458 66.715c.925 0 1.674-.7493 1.674-1.6736 0-.9242-.749-1.6735-1.674-1.6735-.924 0-1.673.7493-1.673 1.6735 0 .9243.749 1.6736 1.673 1.6736z" fill="#f8cdba"/><path d="m117.774 104.819c-.618-.565-6.263.293-7.454 3.272 1.566-3.426 3.032-6.251 3.468-6.939.464.442 3.986 3.667 3.986 3.667z" fill="#1f161e"/><path d="m135.132 100.346c-.132.962.738 4.653 2.535 4.179l-3.292.9z" fill="#1f161e"/><path d="m32.8116 67.3257c9.7863 0 13.0901 6.6364 13.0901 11.2482 0 9.6179-2.0823 7.4731-2.0823 17.4157 0 10.6804 13.6863 24.1724 13.6863 42.6244 0 25.223-22.0179 28.921-24.6941 28.921-13.8835 0-19.0435-15.278-19.0435-24.545 0-10.976 9.6709-22.739 9.6709-33.324 0-7.742-2.5296-10.7502-2.5296-22.7534.0096-12.0609 6.9827-19.5869 11.9022-19.5869z" fill="#73e5e2"/><path d="m32.0783 188.442v-105.2226" stroke="#fbdc8e" stroke-linecap="round" stroke-miterlimit="10" stroke-width="3"/><path d="m32.0783 151.512 16.3024-16.707" stroke="#fbdc8e" stroke-linecap="round" stroke-miterlimit="10" stroke-width="3"/><path d="m31.6719 104.622-5.2514-5.2517" stroke="#fbdc8e" stroke-linecap="round" stroke-miterlimit="10" stroke-width="3"/><path d="m32.0783 90.5386 7.3312-7.3313" stroke="#fbdc8e" stroke-linecap="round" stroke-miterlimit="10" stroke-width="3"/><path d="m174.595 98.5287c9.31-2.5295 12.743 33.9343 8.04 34.9973s-13.383-33.545-8.04-34.9973z" fill="#50b89d"/><path d="m176.73 104.622c.76 2.207 5.006 17.68 5.917 28.904" stroke="#fbdc8e" stroke-linecap="round" stroke-miterlimit="10" stroke-width="2"/><path d="m210.114 92.9335c2.145 0 4.508 3.46 4.662 4.6623.435 3.3902-.916 5.6602-.839 7.0262.173 3.046 1.303 5.77.466 7.432-4.936 9.834-21.763 7.658-23.768 11.041-.515.962-1.993 3.997-1.993 3.997-.782-.782-2.761-6.137-2.761-8.226 0-2.09 2.9-7.836 8.589-11.936 3.008-2.166 8.534-13.9965 15.644-13.9965z" fill="#73e5e2"/><path d="m186.918 132.403c.627-2.164 6.752-20.678 22.066-29.236" stroke="#fbdc8e" stroke-linecap="round" stroke-miterlimit="10" stroke-width="2"/><path d="m203.696 106.759c.12-.901.736-2.774 0-5.544" stroke="#fbdc8e" stroke-linecap="round" stroke-miterlimit="10" stroke-width="2"/><path d="m199.979 110.181c.13-1.462 0-3.54-.522-4.72" stroke="#fbdc8e" stroke-linecap="round" stroke-miterlimit="10" stroke-width="2"/><path d="m196.548 114.134c2.551-.354 5.147-.219 7.648.397" stroke="#fbdc8e" stroke-linecap="round" stroke-miterlimit="10" stroke-width="2"/><path d="m206.416 113.227-18.344 75.766h36.688z" fill="#b37361"/><path d="m29.7988 188.993c0-2.26 4.0876-10.099 11.0607-10.099 6.8119 0 8.3772 2.496 14.0301 2.496 4.2223 0 3.9338-1.664 7.894-1.664 8.0983 0 11.2482 6.42 11.2482 9.274z" fill="#b37361"/><g stroke="#fbdc8e"><path d="m206.416 137.198v51.795" stroke-linecap="round" stroke-miterlimit="10" stroke-width="3"/><path d="m232.726 110.181v78.812" stroke-linecap="round" stroke-miterlimit="10" stroke-width="3"/><path d="m206.416 156.549 4.866-4.867" stroke-linecap="round" stroke-miterlimit="10" stroke-width="3"/><path d="m206.416 177.567-7.57-7.57" stroke-linecap="round" stroke-miterlimit="10" stroke-width="3"/><path d="m232.726 132.694-5.536-5.535" stroke-linecap="round" stroke-miterlimit="10" stroke-width="3"/><path d="m232.726 164.556 11.027-11.029" stroke-linecap="round" stroke-miterlimit="10" stroke-width="3"/></g><path d="m20.0775 50.7588c0-3.5034 8.6994-4.2464 12.1354-4.2464 6.9731 0 7.4371-3.9914 13.2247-3.9914 5.0879 0 7.6776 4.1189 12.4192 4.1189 10.1758 0 12.4408-11.7123 22.3353-11.7123 10.0652 0 9.553 12.2268 18.9209 12.2268 4.763 0 33.379.9017 33.379 3.6068z" fill="#fff"/><path d="m158.696 65.5728c0-2.2145 7.541-5.6794 11.664-5.6794 8.135 0 5.596 2.8397 10.712 2.8397 5.831 0 7.163-12.6452 16.036-12.6452 9.697 0 8.175 12.3663 14.126 12.3663 2.563 0 3.847-1.2023 7.493-1.2023 2.111 0 4.424 2.1112 4.424 4.3281z" fill="#fff"/></svg>