<svg fill="none" height="172" viewBox="0 0 213 172" width="213" xmlns="http://www.w3.org/2000/svg"><path d="m169.953 172c21.187 0 38.363-3.903 38.363-8.719 0-4.815-17.176-8.719-38.363-8.719-21.188 0-38.363 3.904-38.363 8.719 0 4.816 17.175 8.719 38.363 8.719z" fill="#68c9ba"/><path clip-rule="evenodd" d="m173.44 169.287c21.188 0 38.363-3.903 38.363-8.719 0-4.815-17.175-8.719-38.363-8.719-21.187 0-38.363 3.904-38.363 8.719 0 4.816 17.176 8.719 38.363 8.719z" fill-rule="evenodd" stroke="#3f3d56"/><path d="m111.633 84.8106c4.173 0 7.556-3.3831 7.556-7.5564 0-4.1732-3.383-7.5563-7.556-7.5563s-7.556 3.3831-7.556 7.5563c0 4.1733 3.383 7.5564 7.556 7.5564z" fill="#68c9ba"/><path d="m141.471 84.8106c4.173 0 7.556-3.3831 7.556-7.5564 0-4.1732-3.383-7.5563-7.556-7.5563s-7.556 3.3831-7.556 7.5563c0 4.1733 3.383 7.5564 7.556 7.5564z" fill="#68c9ba"/><path d="m172.859 84.8106c4.173 0 7.556-3.3831 7.556-7.5564 0-4.1732-3.383-7.5563-7.556-7.5563s-7.556 3.3831-7.556 7.5563c0 4.1733 3.383 7.5564 7.556 7.5564z" fill="#0ad9c6"/><path d="m4.29375 5.75944c.32102 0 .58126-.26024.58126-.58126s-.26024-.58126-.58126-.58126-.58126.26024-.58126.58126.26024.58126.58126.58126z" fill="#f86b75"/><path d="m6.23138 5.75944c.32102 0 .58125-.26024.58125-.58126s-.26023-.58126-.58125-.58126c-.32103 0-.58126.26024-.58126.58126s.26023.58126.58126.58126z" fill="#fad375"/><path d="m8.55639 5.75944c.32102 0 .58126-.26024.58126-.58126s-.26024-.58126-.58126-.58126-.58126.26024-.58126.58126.26024.58126.58126.58126z" fill="#8bcc55"/><path d="m18.4377 17.3848h51.9258v16.2753h-51.9258z" fill="#68c9ba"/><path d="m1 3.04736h92.2265v55.0259h-92.2265z" stroke="#3f3d56"/><path d="m1 7.11587h92.2265" stroke="#3f3d56"/><path clip-rule="evenodd" d="m4.68127 5.37248c.32102 0 .58125-.26024.58125-.58126s-.26023-.58126-.58125-.58126c-.32103 0-.58126.26024-.58126.58126s.26023.58126.58126.58126z" fill-rule="evenodd" stroke="#3f3d56"/><path clip-rule="evenodd" d="m6.61889 5.37248c.32102 0 .58126-.26024.58126-.58126s-.26024-.58126-.58126-.58126-.58126.26024-.58126.58126.26024.58126.58126.58126z" fill-rule="evenodd" stroke="#3f3d56"/><path clip-rule="evenodd" d="m8.94387 5.37248c.32102 0 .58126-.26024.58126-.58126s-.26024-.58126-.58126-.58126-.58126.26024-.58126.58126.26024.58126.58126.58126z" fill-rule="evenodd" stroke="#3f3d56"/><path d="m21.5379 14.2848h51.9258v16.2753h-51.9258z" stroke="#3f3d56"/><path d="m11.0751 39.8605h70.1386v2.71254h-70.1386z" fill="#f2f2f2"/><path d="m11.0751 45.2848h70.1386v2.71254h-70.1386z" fill="#f2f2f2"/><path d="m11.0751 49.9352h70.1386v2.71254h-70.1386z" fill="#f2f2f2"/><path d="m11.8501 39.0848h70.1386v2.71254h-70.1386z" stroke="#3f3d56"/><path d="m11.8501 44.123h70.1386v2.71254h-70.1386z" stroke="#3f3d56"/><path d="m11.8501 49.1604h70.1386v2.71254h-70.1386z" stroke="#3f3d56"/><path d="m25.2191 100.311c.3211 0 .5813-.26.5813-.5814 0-.321-.2602-.5813-.5813-.5813-.321 0-.5812.2603-.5812.5813 0 .3214.2602.5814.5812.5814z" fill="#f86b75"/><path d="m27.9316 100.311c.3211 0 .5813-.26.5813-.5814 0-.321-.2602-.5813-.5813-.5813-.321 0-.5812.2603-.5812.5813 0 .3214.2602.5814.5812.5814z" fill="#fad375"/><path d="m30.2567 100.311c.3211 0 .5813-.26.5813-.5814 0-.321-.2602-.5813-.5813-.5813-.321 0-.5812.2603-.5812.5813 0 .3214.2602.5814.5812.5814z" fill="#8bcc55"/><path d="m39.3631 111.936h51.9258v16.2753h-51.9258z" fill="#68c9ba"/><path d="m114.927 108.42v43.817h-92.2267v-55.0261h74.9974" stroke="#3f3d56"/><path d="m22.3129 102.055h75.1762" stroke="#3f3d56"/><path clip-rule="evenodd" d="m25.6066 100.311c.321 0 .5813-.26.5813-.5814 0-.321-.2603-.5813-.5813-.5813s-.5812.2603-.5812.5813c0 .3214.2602.5814.5812.5814z" fill-rule="evenodd" stroke="#3f3d56"/><path clip-rule="evenodd" d="m27.9316 100.311c.3211 0 .5813-.26.5813-.5814 0-.321-.2602-.5813-.5813-.5813-.321 0-.5812.2603-.5812.5813 0 .3214.2602.5814.5812.5814z" fill-rule="evenodd" stroke="#3f3d56"/><path clip-rule="evenodd" d="m30.2567 100.311c.3211 0 .5813-.26.5813-.5814 0-.321-.2602-.5813-.5813-.5813-.321 0-.5812.2603-.5812.5813 0 .3214.2602.5814.5812.5814z" fill-rule="evenodd" stroke="#3f3d56"/><path d="m42.8507 108.449h51.9258v16.2753h-51.9258z" stroke="#3f3d56"/><path d="m100.395 57.2978c.321 0 .582-.2603.582-.5813s-.261-.5812-.582-.5812-.5809.2602-.5809.5812.2599.5813.5809.5813z" fill="#f86b75"/><path d="m102.72 57.2978c.321 0 .582-.2603.582-.5813s-.261-.5812-.582-.5812-.581.2602-.581.5812.26.5813.581.5813z" fill="#fad375"/><path d="m105.433 57.2978c.321 0 .581-.2603.581-.5813s-.26-.5812-.581-.5812-.581.2602-.581.5812.26.5813.581.5813z" fill="#8bcc55"/><g stroke="#3f3d56"><path d="m97.489 53.4231h92.2265v55.0259h-92.2265z"/><path d="m97.489 57.8794h92.226"/><path clip-rule="evenodd" d="m100.783 56.9108c.321 0 .581-.2602.581-.5812 0-.3211-.26-.5813-.581-.5813s-.581.2602-.581.5813c0 .321.26.5812.581.5812z" fill-rule="evenodd"/><path clip-rule="evenodd" d="m103.495 56.9108c.321 0 .582-.2602.582-.5812 0-.3211-.261-.5813-.582-.5813s-.581.2602-.581.5813c0 .321.26.5812.581.5812z" fill-rule="evenodd"/><path clip-rule="evenodd" d="m105.82 56.9108c.321 0 .582-.2602.582-.5812 0-.3211-.261-.5813-.582-.5813s-.581.2602-.581.5813c0 .321.26.5812.581.5812z" fill-rule="evenodd"/><path clip-rule="evenodd" d="m113.183 83.6489c4.173 0 7.556-3.3831 7.556-7.5564s-3.383-7.5564-7.556-7.5564-7.556 3.3831-7.556 7.5564 3.383 7.5564 7.556 7.5564z" fill-rule="evenodd"/><path clip-rule="evenodd" d="m143.409 83.6489c4.173 0 7.556-3.3831 7.556-7.5564s-3.383-7.5564-7.556-7.5564c-4.174 0-7.557 3.3831-7.557 7.5564s3.383 7.5564 7.557 7.5564z" fill-rule="evenodd"/><path clip-rule="evenodd" d="m174.022 83.6489c4.173 0 7.556-3.3831 7.556-7.5564s-3.383-7.5564-7.556-7.5564c-4.174 0-7.557 3.3831-7.557 7.5564s3.383 7.5564 7.557 7.5564z" fill-rule="evenodd"/></g><path d="m101.364 90.2362h20.9253v1.93753h-20.9253z" fill="#f2f2f2"/><path d="m131.59 90.2362h20.9253v1.93753h-20.9253z" fill="#f2f2f2"/><path d="m163.365 90.2362h20.9253v1.93753h-20.9253z" fill="#f2f2f2"/><path d="m102.527 90.2362h20.9253v1.93753h-20.9253z" stroke="#3f3d56"/><path d="m133.14 90.2362h20.9253v1.93753h-20.9253z" stroke="#3f3d56"/><path d="m163.753 90.2362h20.9253v1.93753h-20.9253z" stroke="#3f3d56"/><path d="m25.4129 134.412h16.2753v13.5627h-16.2753z" fill="#f2f2f2"/><path d="m55.2509 134.412h16.2753v13.5627h-16.2753z" fill="#f2f2f2"/><path d="m84.7014 134.412h16.2753v13.5627h-16.2753z" fill="#f2f2f2"/><path d="m28.1255 132.087h16.2753v13.5627h-16.2753z" stroke="#3f3d56"/><path d="m57.5759 132.474h16.2753v13.5627h-16.2753z" stroke="#3f3d56"/><path d="m87.0263 132.474h16.2753v13.5627h-16.2753z" stroke="#3f3d56"/><path d="m153.582 52.6482-7.267 3.8751 7.75-2.6311z" fill="#79758c"/><path d="m156.425 55.8929c1.042-.3384 1.334-2.3146.652-4.4139-.682-2.0992-2.079-3.5267-3.121-3.1882-1.042.3384-1.334 2.3146-.652 4.4139.682 2.0992 2.079 3.5267 3.121 3.1882z" fill="#3f3d56"/><path d="m162.246 51.7283c.786-.2553 1.033-1.6639.551-3.1462-.481-1.4823-1.509-2.4769-2.295-2.2215-.786.2553-1.033 1.6639-.551 3.1462.481 1.4822 1.509 2.4769 2.295 2.2215z" fill="#3f3d56"/><path d="m155.227 49.4116 5.114-1.8016 1.087 2.9378-4.949 3.2623z" fill="#3f3d56"/><path d="m155.026 60.0107 1.369-2.823s3.286-8.2122.274-6.6724-4.108 5.6459-4.108 5.6459l-.821 2.5663z" fill="#a0616a"/><path d="m190.103 102.123s-4.392 8.39-5.683 8.644c-1.292.255-1.292-7.627-1.292-7.627s2.583-2.289 3.617-2.034c1.033.254 3.358 1.017 3.358 1.017z" fill="#a0616a"/><path d="m183.185 154.175s2.23 1.261 1.239 4.036c-.991 2.774-1.487 2.018-1.982 4.288-.496 2.27-4.957 2.018-5.204 1.009-.248-1.009-.744-5.045.495-6.559 1.239-1.513 5.452-2.774 5.452-2.774z" fill="#55536e"/><path d="m160.983 154.175s-2.23 1.261-1.239 4.036c.991 2.774 1.487 2.018 1.982 4.288.496 2.27 4.957 2.018 5.204 1.009.248-1.009.744-5.045-.495-6.559-1.239-1.513-5.452-2.774-5.452-2.774z" fill="#55536e"/><path d="m182.59 104.666s2.016 1.281 2.52 9.221c.504 7.939 3.622 20.803 3.37 22.852s-2.15 7.31-2.58 8.6c-.86 1.72-1.798 7.478-1.798 7.478.753 1.622.753 3.501 0 5.123-1.26 2.817-5.04 5.635-6.048 2.817-.053-.983-.311-1.943-.756-2.817-.757-1.537-.858-7.441-.858-7.441s-1.29-9.46-1.29-12.04-1.129-18.169-1.633-20.73c-.504-2.562-.252-4.611-.504-3.842-.252.768-1.303 22.852-1.303 22.852s-2.981 12.749-3.233 14.542 1.008 5.378.252 6.659-2.269 5.891-5.041 3.073c-2.772-2.817-2.268-3.841-2.52-5.122s0-2.817 0-4.866-4.656-14.643-3.648-16.436c1.008-1.792.252 2.349 0-1.749s2.388-29.198 4.908-32.784c2.52-3.5858 20.162 4.61 20.162 4.61z" fill="#6979f8"/><path d="m175.572 56.9105c3.317 0 6.006-2.6891 6.006-6.0063s-2.689-6.0064-6.006-6.0064c-3.318 0-6.007 2.6892-6.007 6.0064s2.689 6.0063 6.007 6.0063z" fill="#a0616a"/><path d="m179.711 52.9501s-.251 8.99 1.001 10.4883c1.251 1.4983-10.759-1.2486-10.759-1.2486s2.752-5.7436 1.001-9.4895c-1.752-3.7458 8.757.2498 8.757.2498z" fill="#a0616a"/><path d="m182.553 62.7392s-.513-2.0252-3.588-2.5315-6.711-1.0126-7.84 0-1.641 2.2783-2.41 2.2783h-3.587l-5.638 9.8729s2.819 3.2909 2.05 9.3666c-.769 6.0756-2.05 17.2142-2.05 17.2142 2.054 2.7013 3.856 5.5823 5.381 8.6073 2.563 5.063 20.244 4.557 19.219-4.304 0 0-1.281-2.278-.768-4.3033.512-2.0252 2.05-15.6953 2.05-15.6953l5.894-15.4422s-8.201-4.0504-8.713-5.063z" fill="#9c58d4"/><path d="m189.016 67.3727h1.741s.995 5.836.746 9.3884-.249 11.9259-.249 11.9259.995 2.0299.747 3.8061c-.249 1.7762-.747 6.5972-.747 6.5972s-.248 6.8507-4.974 3.2987c0 0-1.492-.761-.746-4.0599.746-3.2986-.497-6.851-.497-6.851s.746-2.2837.497-3.8061c-.249-1.5225-1.244-6.3435-1.244-6.3435z" fill="#aa5ddb"/><path d="m166.078 63.5736-1.28-.7686s-1.791-.7687-4.349 0c-2.559.7686-3.838.5124-4.862.2562-1.023-.2562-.256-2.8185-.256-2.8185s-2.047-3.5872-4.094-1.5374c-2.046 2.0498-2.046 6.1495-2.046 6.1495s-1.28 2.5623 3.326 4.0996c4.605 1.5374 6.652 3.8435 6.652 3.8435h5.118z" fill="#9c58d4"/><path d="m175.743 57.6852c-.016-.4768-.304-.8996-.735-1.0806-.282-.0983-.576-.1577-.874-.1765-.87-.1149-1.766-.4417-2.273-1.1223-.675-.9063-.491-2.1741-1.032-3.1579-.251-.3874-.527-.7579-.825-1.1094-.944-1.2935-1.111-2.9449-1.197-4.5159-.042-.3185-.006-.6428.104-.9436.163-.2706.359-.5183.584-.7367.381-.4536.587-1.0345.578-1.6329-.027-1.2167 1.674-2.0344 2.879-2.4546 1.204-.4202 2.511-.4871 3.794-.5049.738-.0102 1.5-.0013 2.178.2746.39.1734.757.397 1.092.6653 1.422 1.0648 2.757 2.374 3.234 4.0309.187.7563.274 1.535.259 2.315.022.2424-.012.4868-.102.7125-.17.351-.572.5412-.832.8389-.486.556-.399 1.3605-.461 2.08-.16 1.5046-1.008 2.8422-2.286 3.6035-.262.1311-.503.3017-.716.5059-.16.2169-.292.4536-.394.7046-.511 1.0038-1.8 1.6686-2.975 1.7041z" fill="#3f3d56"/><path d="m49.996 3.04736-3.2703 1.93753 3.4876-1.31549z" fill="#79758c"/><path d="m51.3195 4.74375c.4946-.16065.6332-1.0987.3095-2.09519-.3236-.99649-.9869-1.674073-1.4815-1.51342-.4946.16066-.6331 1.09871-.3095 2.0952.3237.99649.9869 1.67407 1.4815 1.51341z" fill="#3f3d56"/><path d="m54.0824 2.76737c.3731-.12121.4903-.78985.2618-1.49345-.2285-.703607-.7162-1.1757355-1.0894-1.054531-.3731.121205-.4903.789841-.2618 1.493451.2285.7036.7162 1.17573 1.0894 1.05453z" fill="#3f3d56"/><path d="m50.2133 2.00975 2.5567-.90062.5434 1.46883-2.4744 1.63122z" fill="#3f3d56"/><path d="m72.4714 97.2109-3.2703 1.9376 3.4876-1.3155z" fill="#79758c"/><path d="m74.1227 99.0055c.4945-.1607.6331-1.0987.3095-2.0952-.3237-.9965-.987-1.6741-1.4815-1.5134-.4946.1606-.6332 1.0987-.3095 2.0952.3236.9964.9869 1.674 1.4815 1.5134z" fill="#3f3d56"/><path d="m76.8857 97.029c.3731-.1212.4903-.7899.2618-1.4935s-.7163-1.1757-1.0894-1.0545-.4903.7898-.2618 1.4934.7162 1.1758 1.0894 1.0546z" fill="#3f3d56"/><path d="m73.4637 95.3994 2.5566-.9006.5435 1.4688-2.4745 1.6312z" fill="#3f3d56"/></svg>