<svg fill="none" height="312" viewBox="0 0 298 312" width="298" xmlns="http://www.w3.org/2000/svg" xmlns:xlink="http://www.w3.org/1999/xlink"><linearGradient id="a"><stop offset="0" stop-color="#9faafa"/><stop offset="1" stop-color="#dca3b5"/></linearGradient><linearGradient id="b" gradientUnits="userSpaceOnUse" x1="239.976" x2="79.7586" xlink:href="#a" y1="250.567" y2="321.384"/><linearGradient id="c" gradientUnits="userSpaceOnUse" x1="-72.8093" x2="-40.4747" y1="224.241" y2="392.706"><stop offset="0" stop-color="#dd8691"/><stop offset="1" stop-color="#9c395f"/></linearGradient><linearGradient id="d"><stop offset="0" stop-color="#6c4bdc"/><stop offset="1" stop-color="#402b8a"/></linearGradient><linearGradient id="e" gradientUnits="userSpaceOnUse" x1="1.50979" x2="1.50979" xlink:href="#d" y1="121.754" y2="378.97"/><linearGradient id="f" gradientUnits="userSpaceOnUse" x1="-135.671" x2="-135.671" xlink:href="#d" y1="121.662" y2="379.056"/><linearGradient id="g" gradientUnits="userSpaceOnUse" x1="25.2406" x2="16.2076" xlink:href="#a" y1="119.884" y2="295.775"/><linearGradient id="h" gradientUnits="userSpaceOnUse" x1="99.541" x2="90.5122" xlink:href="#a" y1="129.531" y2="305.624"/><linearGradient id="i" gradientUnits="userSpaceOnUse" x1="-17.0193" x2="-26.0529" xlink:href="#a" y1="114.129" y2="290.344"/><linearGradient id="j"><stop offset="0" stop-color="#c75a6a"/><stop offset="1" stop-color="#7b2b71"/></linearGradient><linearGradient id="k" gradientUnits="userSpaceOnUse" x1="26.848" x2="26.848" xlink:href="#j" y1="207.282" y2="413.462"/><linearGradient id="l" gradientUnits="userSpaceOnUse" x1="-24.6985" x2="-24.6985" xlink:href="#j" y1="207.372" y2="413.376"/><linearGradient id="m" gradientUnits="userSpaceOnUse" x1="41.8591" x2="148.125" xlink:href="#a" y1="322.217" y2="388.042"/><linearGradient id="n" gradientUnits="userSpaceOnUse" x1="35.1906" x2="141.47" xlink:href="#a" y1="350.126" y2="415.804"/><mask id="o" height="15" maskUnits="userSpaceOnUse" width="99" x="199" y="297"><path clip-rule="evenodd" d="m282.234 311.99h-82.896c3.044-1.099 6.166-2.039 8.935-3.538 2.48-1.34 3.716-3.689 6.387-3.079 14.46-5.898 29.413-8.456 45.03-8.21 8.414.131 15.878 2.302 23.888 4.813 3.173.995 6.275 2.178 9.581 2.629 1.462.199 3.157.047 4.411.601-5.282 2.075-10.095 4.714-15.336 6.784z" fill="#fff" fill-rule="evenodd"/></mask><mask id="p" height="203" maskUnits="userSpaceOnUse" width="159" x="0" y="109"><path clip-rule="evenodd" d="m0 267.707v-22.988c11.9155 4.342 22.9709 9.684 34.2817 15.752 13.7748 7.392 26.0423 17.46 39.597 25.053-.4651-7.395-11.8475-14.658-16.7203-19.654-10.5351-10.796-18.5218-23.192-26.1239-36.174-6.4078-10.946-13.0834-22.368-17.9662-34.076-3.08639-7.405-9.90401-19.793-9.41874-27.863 11.03664 6.513 20.05564 16.356 28.02104 26.319 8.9108 11.147 18.6727 22.787 25.6537 35.291 3.9978 7.164 15.5135 35.159 25.953 32.954-1.1075-28.062-16.1043-55.908-21.0349-83.597-3.9613-22.242-6.746-47.227-.5066-69.348 8.5261 10.97 11.894 31.11 15.6781 44.269 5.5454 19.279 11.1121 38.689 15.2055 58.328 3.5313 16.945 10.9036 32.785 14.6586 49.566-3.788-24.614-5.5-50.834-.526-75.269 2.175-10.692 4.667-20.887 7.349-31.431 1.186-4.673 1.861-10.264 4.763-13.871 5.457 8.615 4.25 24.972 5.447 35.039 1.803 15.164 4.248 30.478 3.227 45.791-1.122 16.849-1.058 34.627-3.369 51.365-2.527-14.785 6.397-38.675 12.47-52.099 4.325-9.559 10.99-26.149 20.328-31.483 3.707 14.929-3.408 37.436-6.241 52.022-3.108 16.009-8.818 37.109-17.554 51.072-4.749 7.587-12.584 15.598-21.184 19.323h-13.2887c-4.0498-1.052-7.8404-2.427-9.2216-2.889-8.7097-2.912-16.6399-5.621-25.5733-7.782-14.9113-3.605-29.0368-12.97-42.1428-20.744-6.4648-3.835-14.11952-8.108-21.7616-12.876z" fill="#fff" fill-rule="evenodd"/></mask><mask id="q" height="236" maskUnits="userSpaceOnUse" width="60" x="177" y="56"><path clip-rule="evenodd" d="m226.897 138.117c5.595-2.708 11.284 1.457 9.807 7.945-1.246 5.47-8.072 5.021-12.607 6.29-5.601 1.568-7.961 3.995-11.4 5.786-.634 5.57-1.202 11.149-1.693 16.733 2.457-5.99 6.511-11.981 9.984-14.689 6.179-4.816 9.787 3.445 9.118 9.066-.733 6.145-6.233 7.527-10.891 9.716-3.586 1.684-7.052 4.16-8.988 5.677-.208 2.909-.401 5.821-.563 8.736-.124 2.266-.235 4.531-.334 6.797 2.384-4.513 5.967-8.507 9.703-10.601 2.196-1.23 6.261-3.767 8.754-2.084 3.168 2.139 1.821 6.954.088 9.356-4.287 5.943-13.953 6.564-18.816 10.834-.171 5.752-.243 11.506-.193 17.26 1.755-5.269 5.528-10.933 8.059-13.512 2.35-2.393 5.927-4.338 8.954-2.896 3.34 1.591 3.77 6.488 1.901 9.68-1.871 3.191-5.239 5.134-8.343 7.145-3.297 2.138-6.927 6.078-10.421 7.521.078 2.705.173 5.41.313 8.116.023.496.066.99.095 1.485.786-1.388 1.65-2.655 2.24-3.558 1.862-2.852 4.345-5.588 7.656-6.391 3.31-.802 7.423 1.193 7.759 4.585.281 2.841-2.073 5.32-4.653 6.54-2.578 1.219-5.482 1.61-8.086 2.777-1.638.734-3.027 1.926-4.406 2.995.53 6.063 1.252 12.089 2.052 18.104 1.897-3.877 6.611-8.922 7.84-9.851 2.19-1.652 4.845-2.929 7.575-2.692 2.732.238 5.41 2.406 5.467 5.15.059 2.842-2.546 5.072-5.224 6.019-1.681.596-12.166 5.093-15.1 5.543.801 5.858 1.634 11.717 2.37 17.612.271 2.169-2.681 2.993-3.348.826-2.278-7.384-3.774-15.081-4.826-22.851-1.799-.754-3.669-2.58-5.628-3.114-3.419-.932-7.063-.929-10.401-2.114-3.339-1.183-6.498-4.14-6.216-7.673.077-.976.428-1.942 1.063-2.688 2.011-2.356 5.817-1.698 8.618-.375 4.46 2.106 8.997 5.825 11.869 10.282-.538-4.928-.934-9.86-1.266-14.738-.286-.396-.57-.793-.851-1.184-1.372-1.901-2.804-3.857-4.831-5.031-1.638-.948-3.536-1.308-5.354-1.833-2.551-.737-5.001-1.823-7.26-3.218-2.423-1.5-4.73-3.506-5.601-6.219-.869-2.715.231-6.2 2.914-7.16 1.896-.679 4.004.018 5.788.953 5.18 2.722 9.109 7.425 11.844 12.599 1.212 2.295 2.227 4.703 3.105 7.16-.375-6.237-.571-12.49-.614-18.744-1.595-1.81-3.476-3.255-5.632-4.439-2.826-1.55-5.65-3.1-8.474-4.65-2.731-1.496-5.509-3.031-7.652-5.292-3.309-3.488-4.784-8.626-3.835-13.34.371-1.838 1.259-3.785 3-4.478 2-.797 4.216.37 5.968 1.625 5.18 3.709 9.487 8.599 12.628 14.135.965 1.7 2.758 5.033 4.025 8.392.079-5.659.277-11.316.58-16.962-3.089-5.58-6.499-10.654-11.652-14.691-2.894-2.268-6.092-4.132-8.929-6.468-2.838-2.335-5.369-5.27-6.312-8.824-.737-2.781-.066-6.345 2.577-7.472.843-.36 1.787-.423 2.701-.362 6.283.404 10.911 6.022 13.824 11.608 2.985 5.722 6.787 14.036 8.073 21.415.469-7.282 1.116-14.555 1.905-21.812-2.133-3.491-5.522-6.403-8.53-8.885-5.249-4.331-11.018-8.071-15.553-13.186-2.863-3.227-5.271-7.263-5.166-11.596.016-.696.108-1.417.484-1.99.704-1.068 2.151-1.278 3.409-1.163 3.103.283 5.965 1.92 8.46 3.873 6.217 4.865 10.695 11.817 13.659 19.24 1.464 3.668 2.615 7.484 3.503 11.35.789-7.007 1.693-14.001 2.68-20.975.069-.481.143-.963.215-1.445-3.752-2.513-7.34-5.403-10.974-8.062-3.641-2.663-7.54-5.713-8.509-10.119-.304-1.376-.277-2.876.375-4.124 1.12-2.141 3.88-3.03 6.251-2.574 2.372.456 4.395 1.99 6.111 3.689 2.167 2.144 5.972 7.478 8.105 12.634.656-3.999 1.297-8.029 1.787-12.067l-.183.167c-4.931-4.57-11.253-7.574-15.991-12.338-3.701-3.723-5.913-8.889-6.052-14.139-.04-1.4916.248-3.2563 1.582-3.9249 1.062-.5317 2.339-.1244 3.415.372 5.793 2.6683 10.233 7.7359 13.171 13.3979 1.051 2.026 3.67 7.223 4.581 11.366.551-6.835.459-13.656-1.036-20.339l-.008-.241c-1.315-3.7402-2.82-7.424-5.009-10.9897-2.601-4.2331-5.678-8.1733-8.039-12.5471-2.358-4.3726-3.994-9.3409-3.378-14.2728.439-3.5192 3.086-7.4707 6.573-6.8272 1.607.2966 2.87 1.512 3.97 2.7211 11.451 12.5911 18.764 36.9124 10.018 52.9247.656 6.757.136 13.566-.696 20.377 1.615-5.299 3.68-10.863 8.442-13.175 5.6-2.721 7.439 2.872 6.063 7.749-1.459 5.175-4.041 4.799-8.057 6.942-3.396 1.812-5.834 4.183-7.293 4.883-.304 2.191-.612 4.381-.897 6.568-.428 3.296-.833 6.594-1.22 9.893.667-1.281 1.3-2.535 1.638-3.08 3.154-5.08 6.653-11.82 12.282-14.544z" fill="#fff" fill-rule="evenodd"/></mask><mask id="r" height="174" maskUnits="userSpaceOnUse" width="110" x="15" y="138"><path clip-rule="evenodd" d="m120.067 311.998h-3.563c-4.44-4.264-8.419-9.076-12.091-14.138-1.816.355-4.109-.074-5.977.532-3.2566 1.057-6.3399 2.945-9.6266 3.767-3.2867.823-7.1135.196-8.2501-2.651-.314-.786-.3931-1.707-.1457-2.605.7862-2.844 4.2626-4.309 7.1499-4.748 4.5954-.698 9.8841-.202 14.0495 1.719-2.3745-3.488-4.6276-7.055-6.8078-10.613-.3956-.155-.79-.312-1.1819-.465-1.9002-.744-3.8732-1.5-6.0459-1.348-1.7571.123-3.5028.83-5.2473 1.369-2.4452.758-4.9433 1.194-7.3986 1.296-2.6349.108-5.369-.231-7.1625-1.857-1.7922-1.625-2.2167-4.86-.3202-6.983 1.3413-1.5 3.3972-2.058 5.2723-2.265 5.4432-.602 10.6.962 14.9291 3.505 1.9216 1.127 3.7163 2.442 5.4168 3.866-2.7467-4.576-5.3452-9.254-7.8156-14.016-2.0547-.558-4.2098-.69-6.4969-.479-2.9953.276-5.9882.554-8.9835.831-2.8949.267-5.8426.532-8.5378-.088-4.1583-.956-7.4074-4.12-8.4385-8.218-.4006-1.596-.4069-3.544.7963-4.975 1.3853-1.647 3.7137-1.9 5.6855-1.847 5.8287.156 11.3799 1.665 16.1938 4.275 1.477.799 4.2915 2.42 6.6714 4.334-2.135-4.369-4.1683-8.797-6.11-13.272-4.785-2.669-9.6479-4.784-15.5834-5.204-3.3307-.236-6.7631-.006-10.075-.324-3.3118-.318-6.596-1.253-8.7788-3.483-1.7056-1.744-2.5257-4.817-.7259-7.047.5739-.712 1.3476-1.247 2.1451-1.675 5.477-2.941 11.5808-1.041 16.2201 1.723 4.7562 2.832 11.2103 7.222 15.1702 12.197-2.4364-5.809-4.7197-11.705-6.8761-17.664-3.1649-1.566-7.1663-2.038-10.6803-2.38-6.1276-.595-12.4675-.472-18.2975-2.035-3.6798-.986-7.2893-2.826-8.8881-6.194-.2562-.54-.4597-1.14-.3642-1.772.1796-1.18 1.3237-2.091 2.434-2.654 2.7366-1.39 5.796-1.618 8.6683-1.416 7.1562.503 13.6531 3.501 19.0523 7.643 2.6675 2.047 5.1266 4.372 7.3835 6.867-2.0597-5.767-4.0152-11.582-5.894-17.427-.1306-.402-.255-.81-.3818-1.215-4.1546.019-8.3155-.334-12.4286-.487-4.1181-.153-8.6055-.465-11.1425-3.333-.7925-.895-1.3526-2.056-1.286-3.349.1155-2.217 2.1049-4.324 4.2902-5.202 2.184-.878 4.4936-.755 6.6086-.343 2.6688.519 7.9663 2.627 11.7793 5.467-1.001-3.397-2.0271-6.812-3.1838-10.152l-.0917.224c-5.953-.944-12.4737.03-18.3376-1.161-4.5829-.932-8.4662-3.738-10.6276-7.68-.6154-1.119-1.0575-2.62-.1884-3.821.692-.955 1.9316-1.305 3.0368-1.483 5.9418-.956 11.6725.62 16.3646 3.43 1.6767 1.006 5.9167 3.625 8.3016 6.32-2.1928-5.51-4.9257-10.68-8.7939-15.016l-.0992-.181c-2.5696-2.18-5.2774-4.217-8.5189-5.811-3.8494-1.893-7.9889-3.313-11.6876-5.436-3.6986-2.121-7.018-5.074-8.4159-9.165-.9984-2.919-.2963-7.311 2.9062-8.623 1.4757-.605 3.0193-.329 4.4209.027 14.595 3.701 30.2512 18.516 29.0807 35.288 3.1838 4.826 5.3954 10.302 7.3421 15.941-.6958-4.887-1.1127-10.211 2.017-14.443 3.6824-4.98 7.4162-1.654 8.1497 2.788.7786 4.712-1.5536 5.761-4.1182 9.477-2.1702 3.144-3.3131 6.22-4.2739 7.51.5941 1.832 1.1869 3.667 1.796 5.487.9206 2.742 1.8625 5.473 2.8195 8.197.0653-1.327.1118-2.614.1872-3.203.6932-5.518 1.0311-12.483 4.736-17.479 3.6824-4.967 10.1202-4.727 11.3949 1 1.0739 4.827-4.8792 8.017-8.2237 11.336-4.1307 4.096-5.1857 7.174-7.3999 10.323 1.6315 4.587 3.3232 9.148 5.079 13.673-.2512-5.852.8502-12.533 2.7354-16.401 3.3558-6.881 9.6266-2.431 11.248 2.215 1.7708 5.077-2.3474 8.981-5.4394 13.065-2.38 3.145-4.3505 6.831-5.398 8.993.957 2.333 1.9254 4.66 2.9226 6.973.7761 1.797 1.5648 3.586 2.3636 5.37.2612-4.685 1.7394-9.595 4.088-13.127 1.3815-2.08 3.8343-6.122 6.5998-6.125 3.5154-.005 4.2488 4.375 3.7163 7.108-1.3162 6.764-9.2573 12.241-11.7139 18.023 2.0948 4.487 4.2739 8.925 6.5559 13.299-.5652-4.938.4245-11.223 1.5636-14.503 1.0562-3.046 3.3294-6.385 6.4529-6.848 3.4452-.513 5.7172 3.008 5.3762 6.417-.341 3.408-2.436 6.638-4.2811 9.782-1.9592 3.342-3.4989 8.232-5.8965 11.145 1.1203 2.028 2.2531 4.047 3.4236 6.043.2148.368.4434.724.6606 1.088.1244-1.469.363-2.885.51-3.88.4672-3.145 1.5045-6.523 3.9954-8.849 2.488-2.327 6.749-2.929 8.353-.511 1.344 2.028.315 5.142-1.394 7.41-1.708 2.267-4.014 4.067-5.765 6.308-1.1 1.41-1.812 3.039-2.563 4.571 2.807 4.362 5.764 8.595 8.782 12.782.096-3.947 2.124-10.244 2.805-11.591 1.209-2.396 2.96-4.747 5.364-5.978 2.405-1.233 5.517-.96 6.631 1.109 1.157 2.143-.181 5.196-2.08 7.306-1.189 1.325-8.315 10.192-10.624 12.053 2.958 4.066 5.943 8.116 8.861 12.242.345.488.354 1.042.161 1.525z" fill="#fff" fill-rule="evenodd"/></mask><mask id="s" height="199" maskUnits="userSpaceOnUse" width="53" x="131" y="85"><path clip-rule="evenodd" d="m132.764 232.933c-2.06-28.981 2.017-56.939 11.388-84.476 5.05-14.837 13.131-26.83 22.12-39.594 3.563-5.058 7.412-9.8828 10.096-15.4837 1.188-2.477 1.891-5.5669 3.581-7.4737.749 12.9201 3.39 25.0734 3.318 38.2014-.082 14.799-.651 30.715-3.238 45.255-4.413 24.806-6.216 49.878-8.014 74.974-.891 12.427-2.94 30.773-15.884 37.011-4.946 2.384-11.345 1.894-16.828 1.57-5.606-11.463-2.617-24.863-4.795-36.91-.932-5.156-4.342-8.685-1.744-13.074z" fill="#fff" fill-rule="evenodd"/></mask><mask id="t" height="152" maskUnits="userSpaceOnUse" width="131" x="161" y="160"><path clip-rule="evenodd" d="m196.753 311.998h-34.878c1.442-11.701 9.599-21.489 13.188-32.404 1.638-4.984.318-9.72 4.7-12.339 12.013-26.488 28.943-49.138 50.34-68.882 11.529-10.638 24.375-17.323 38.386-24.252 5.553-2.747 11.246-5.15 16.286-8.793 2.229-1.612 4.322-3.994 6.721-4.861-5.503 11.727-8.974 23.684-15.301 35.203-7.133 12.982-15.226 26.715-24.444 38.271-15.725 19.715-29.275 40.913-42.833 62.135-3.189 4.99-7.245 11.031-12.165 15.922z" fill="#fff" fill-rule="evenodd"/></mask><mask id="u" height="232" maskUnits="userSpaceOnUse" width="76" x="76" y="80"><path clip-rule="evenodd" d="m128.231 311.998h-13.255c-1.278-.741-2.13-1.858-2.315-3.438-7.152-18.264-15.9806-35.627-19.4186-55.184-1.9202-10.925-5.1696-21.7-6.7956-32.634-1.9454-13.078-2.4811-26.356-4.6377-39.441-2.8382-17.208-7.0521-35.549-5.3344-52.991 1.5744-15.999 7.2081-31.5938 9.3081-47.5313 13.8868.6053 27.8782 13.9366 37.1272 23.1823 5.987 5.985 11.432 10.751 12.587 19.155 5.996 43.574 18.355 89.278 15.048 133.514-1.241 16.589-1.478 41.149-16.256 52.533-1.43 1.1-3.615 2.104-6.058 2.835z" fill="#fff" fill-rule="evenodd"/></mask><mask id="v" height="184" maskUnits="userSpaceOnUse" width="176" x="61" y="128"><path clip-rule="evenodd" d="m61.8603 128.949h175.0777v183.05h-175.0777z" fill="#fff" fill-rule="evenodd"/></mask><mask id="w" height="220" maskUnits="userSpaceOnUse" width="112" x="136" y="92"><path clip-rule="evenodd" d="m136.703 311.999c.016-4.84.452-9.793.462-14.289.048-21.414 2.589-44.762 9.413-65.091 6.11-18.196 11.885-36.625 19.155-54.376 5.395-13.176 11.366-29.965 22.38-39.533.263 6.998.837 14.162.669 21.17-.115 4.885-1.842 9.901-1.635 14.598 7.581-16.759 15.466-30.569 27.351-44.913 9.776-11.797 19.623-28.885 32.623-37.2231-.402 15.1341-4.618 32.9631-9.033 47.4651-6.196 20.352-12.559 40.731-18.865 61.04-9.532 30.695-22.81 58.808-37.299 87.457-2.853 5.64-6.22 15.134-10.734 23.695z" fill="#fff" fill-rule="evenodd"/></mask><mask id="x" height="142" maskUnits="userSpaceOnUse" width="42" x="119" y="170"><path clip-rule="evenodd" d="m140.244 312c-.541-1.173-1.075-2.322-1.63-3.397-5.84-11.322-10.893-24.347-12.856-36.952-1.756-11.28-3.754-22.592-4.775-33.955-.759-8.434-2.204-18.934.993-26.999 2.055 3.623 4.321 7.251 6.152 10.997 1.277 2.612 1.738 5.734 3.134 8.157-.587-10.924-.204-20.372 2.146-31.2 1.932-8.902 2.452-20.619 7.036-28.579 3.932 8.103 6.589 18.673 8.229 27.538 2.302 12.443 4.522 24.945 6.754 37.396 3.371 18.817 4.058 37.296 4.252 56.389.05 4.906 1.435 13.521.496 20.605z" fill="#fff" fill-rule="evenodd"/></mask><mask height="157" maskUnits="userSpaceOnUse" width="164" x="111" y="155"><path clip-rule="evenodd" d="m166.469 304.689c-10.369-7.57-18.283-19.336-25.919-29.549-10.617-14.199-27.429-34.125-29.203-52.107 7.05 1.054 15.277 9.878 20.383 14.298 9.315 8.067 17.153 16.759 24.944 26.293 8.276 10.13 14.53 21.845 22.571 32.06 2.011-5.863-4.457-15.124-6.622-20.548-4.679-11.721-6.878-23.86-8.59-36.327-1.446-10.511-2.941-21.475-2.961-32.087-.011-6.711-1.309-18.467 1.655-24.545 6.44 8.572 10.254 19.072 13.215 29.323 3.314 11.47 7.125 23.593 8.512 35.493.793 6.816.718 32.135 9.492 33.784 8.142-22.032 5.478-48.355 10.545-71.326 4.07-18.45 9.929-38.644 21.842-53.73 3.073 11.212-.782 27.85-2.075 39.228-1.897 16.672-3.818 33.451-6.949 49.933-2.705 14.225-2.086 28.826-4.564 42.993 4.966-20.229 12.048-41.033 23.726-58.31 5.109-7.561 10.304-14.635 15.757-21.92 2.416-3.23 4.728-7.331 8.127-9.187 1.457 8.407-4.72 20.655-7.023 28.815-3.468 12.292-6.488 24.905-12.188 36.406-6.27 12.655-11.919 26.408-19.069 38.596 2.786-12.231 17.341-27.821 26.339-36.243 6.407-5.995 16.876-16.669 25.804-17.794-1.923 12.72-14.636 27.823-21.503 38.182-5.375 8.108-12.604 17.795-20.382 25.579h-56.607c-2.966-2.495-5.979-4.917-9.257-7.31z" fill="#fff" fill-rule="evenodd"/></mask><mask height="312" maskUnits="userSpaceOnUse" width="92" x="94" y="0"><path clip-rule="evenodd" d="m127.975 311.999h-6.723c.114-3.545.378-7.088.757-10.629-3.037-3.294-7.957-6.239-12.395-9.869-5.087-4.161-16.4487-16.3-10.4758-23.687 5.8888-7.282 19.4818 7.837 24.5728 21.588.781-4.495 1.7-8.983 2.711-13.455-1.928-1.741-4.043-3.932-6.372-6.479-7.161-7.822-14.355-24.434-12.355-34.988 18.771-1.763 18.172 24.018 19.518 38.038 1.812-7.711 3.834-15.382 5.774-22.992.377-1.473.747-2.947 1.112-4.422-1.619-4.796-4.025-9.018-8.709-12.876-4.963-4.085-21.75-15.417-14.3-24.249 7.555-8.955 17.922 6.472 19.468 11.403 2.062 6.562 4.338 13.183 4.898 20.073 1.893-8.04 3.576-16.089 4.944-24.165-11.276-12.917-34.207-23.343-32.358-42.044 16.85-8.753 28.103 23.285 32.863 38.936 1.412-8.877 2.431-17.79 2.926-26.77-1.711-1.539-3.901-4.873-7.208-7.711-7.438-6.377-16.77-11.2-19.003-21.277-3.07-13.832 10.087-9.348 16.014-2.224 6.531 7.848 8.041 17.058 10.417 26.3.004-.115.01-.229.014-.343.304-9.663.08-19.299-.597-28.885-9.717-9.323-30.793-9.778-28.52-29.399 15.153-2.442 24.202 15.045 28.325 26.867-.747-9.409-1.943-18.765-3.592-28.042-1.646.208-3.52-2.693-8.853-5.031-7.422-3.254-22.973-7.252-21.019-18.1552 1.372-7.6559 13.171-3.1131 17.846.7532 5.273 4.359 7.666 12.348 11.191 17.975-.369-1.907-.729-3.819-1.134-5.72-1.563-7.317-3.411-14.5823-5.475-21.7806-10.613-7.9841-42.8246-22.2788-34.0452-32.4531 9.9012-11.4707 25.2712 14.9698 32.8532 28.3466-.721-2.399-1.457-4.7942-2.232-7.1756-1.397-4.2988-2.985-8.521-4.633-12.7205-10.838-8.6316-20.371-24.9367-24.2577-32.1061-4.5156-8.3336-12.0629-41.71844 9.0347-29.07088 20.729 12.42628 16.694 39.30818 18.581 59.76378 1.705 3.811 3.293 7.6911 4.767 11.6165.715-6.9518 3.709-16.4309 7.244-17.6995 9.263-3.3206 4.102 9.7896 2.617 12.7381-2.11 4.1882-5.359 8.3764-7.745 10.8458 1.934 5.5876 3.67 11.2217 5.245 16.8206.139-1.681.324-3.2263.394-4.3051.554-8.4883 3.452-19.241 13.236-22.6547 8.239 10.1316-6.845 27.4074-11.341 35.4467.155.601.315 1.203.467 1.802.923 3.637 1.748 7.305 2.527 10.983 1.951-10.422 8.791-21.8716 17.151-25.2312 12.611 14.2182-10.356 23.7792-15.502 33.6502 1.208 6.714 2.169 13.48 2.872 20.278 1.186-5.946 2.978-11.85 6.329-16.25 4.638-6.089 13.344-10.009 12.584.327-.442 5.999-5.928 9.691-9.92 13.801-3.51 3.612-6.246 7.394-8.268 10.422.437 6.075.668 12.168.674 18.267 2.389-8.276 5.936-16.651 12.148-21.419 11.83-9.077 18.343 3.837 14.007 13.872-4.455 10.313-18.766 12.554-26.355 18.106-.241 5.488-.678 10.956-1.281 16.409 4.871-7.754 10.138-16.228 18.381-20.054 8.384-3.892 21.228.702 16.392 10.583-5.928 12.109-25.336 6.902-35.091 12.254-.882 7.309-2.059 14.592-3.475 21.862 4.12-5.872 9.429-11.463 13.72-14.597 8.51-6.219 16.508 1.569 13.771 10.464-3.906 12.696-20.687 9.565-29.37 13.179-.856 3.881-1.768 7.76-2.738 11.64-1.119 4.48-2.248 8.946-3.351 13.407 4.998-6.243 11.776-11.876 17.16-13.544 11.168-3.464 16.706 7.326 8.084 14.691-8.196 6.999-19.628 3.24-27.552 8.405-1.481 6.299-2.857 12.601-4.041 18.93 8.115-9.037 21.886-16.175 31.512-14.195 10.586 2.178 11.801 11.585 2.575 16.784-6.631 3.738-25.766.512-35.272 4.148-.908 5.598-1.637 11.223-2.118 16.893z" fill="#fff" fill-rule="evenodd"/></mask><mask id="y" height="67" maskUnits="userSpaceOnUse" width="91" x="46" y="245"><path clip-rule="evenodd" d="m136.614 312h-38.5735c-9.8234-6.949-20.5483-16.062-30.8885-27.629-6.3123-7.06-9.4759-15.36-13.0973-24.07-1.4359-3.452-2.6581-6.975-4.6549-10.152-.8827-1.406-2.2369-2.76-2.6644-4.239 6.8491 3.776 13.9182 6.338 20.6077 10.601 7.5419 4.807 15.4988 10.222 22.0977 16.228 11.2592 10.246 23.4962 19.241 35.7492 28.242 3.773 2.772 8.574 6.511 11.424 11.019z" fill="#fff" fill-rule="evenodd"/></mask><mask id="z" height="12" maskUnits="userSpaceOnUse" width="110" x="20" y="300"><path clip-rule="evenodd" d="m36.6775 311.999c-.8086-.613-1.6208-1.231-2.4401-1.85-2.984-2.255-5.8224-4.679-9.1506-6.414-1.4719-.767-3.3231-1.253-4.4421-2.313 7.813-.203 15.1991-1.567 23.1226-1.268 8.9296.336 18.5248.989 27.2509 2.837 14.8864 3.153 29.9828 4.731 45.0948 6.307 3.925.409 8.826 1.042 13.107 2.701z" fill="#fff" fill-rule="evenodd"/></mask><g mask="url(#o)"><path clip-rule="evenodd" d="m-.365295 311.99h543.677295v-342.611h-543.677295z" fill="url(#b)" fill-rule="evenodd"/></g><g mask="url(#p)"><path clip-rule="evenodd" d="m0 311.998h542.928v-339.5815h-542.928z" fill="url(#c)" fill-rule="evenodd"/></g><g mask="url(#q)"><path clip-rule="evenodd" d="m.399414 311.958h542.432586v-339.2433h-542.432586z" fill="url(#e)" fill-rule="evenodd"/></g><g mask="url(#r)"><path clip-rule="evenodd" d="m.173096 311.998h542.387904v-339.4796h-542.387904z" fill="url(#f)" fill-rule="evenodd"/></g><g mask="url(#s)"><path clip-rule="evenodd" d="m.441895 311.901h541.123105v-339.0362h-541.123105z" fill="url(#g)" fill-rule="evenodd"/></g><g mask="url(#t)"><path clip-rule="evenodd" d="m.252319 311.998h542.621681v-339.4227h-542.621681z" fill="url(#h)" fill-rule="evenodd"/></g><g mask="url(#u)"><path clip-rule="evenodd" d="m.00030518 311.998h543.07769482v-339.6579h-543.07769482z" fill="url(#i)" fill-rule="evenodd"/></g><g clip-rule="evenodd" fill="#6376e8" fill-rule="evenodd" mask="url(#v)"><path d="m195.639 314.763c-11.464-9.26 4.377-23.763 4.667-33.159.102-3.346-.782-6.763-.532-10.266.358-5.011 2.586-9.243 3.333-13.909.603-3.753-.247-7.29.158-11.446.869-8.906 6.739-11.851 10.363-18.021 3.37-5.74 3.41-13.506 8.024-19.415 5.722-7.324 8.726-16.407 14.578-23.893-.367 7.962 2.374 16.244-.983 23.829-1.211 2.736-3.38 4.921-3.615 7.761-.253 3.061 2.1 6.833 2.569 9.871 1.553 10.02-5.561 11.358-6.898 18.169-.696 3.542 2.052 10.05 2.05 14.048-.006 6.781-.566 13.631-4.648 19.335-1.587 2.221-4.222 3.573-4.707 6.284-.647 3.615 1.392 8.472.838 12.456-1.075 7.715-7.711 11.033-10.022 16.562-2 4.789-2.208 13.708-10.933 12.938-4.088-.36-5.363-3.26-4.242-11.144z"/><path d="m114.268 312.964c-9.395-7.846-24.8829-23.776-26.7565-36.789-.8142-5.654 1.1425-5.681-2.1379-9.371-5.6057-6.303-12.3326-9.399-14.6164-18.352-1.7251-6.757-2.0497-15.258-.5788-22.104 1.0708-4.984 3.4943-6.754 1.7176-11.45-2.801-7.406-8.2142-12.233-9.5605-20.559-.9312-5.757-.336-11.848.4366-17.646.5184-3.898 2.5845-6.05 3.532-9.341 1.7025-5.911-3.2665-11.077-4.0769-17.32-.8858-6.822.7223-14.347 2.0888-21.083 7.2931.946 13.5179 9.677 16.2987 15.939 2.0234 4.56 1.0469 10.84 4.3688 14.211 2.489 2.526 6.6325 2.821 9.1781 6.717 2.3052 3.526 3.7648 8.05 4.6318 12.126 1.7926 8.414.0604 15.679.0427 23.991-.0176 7.683 6.6089 12.534 10.8339 19.048 6.266 9.655 9.432 20.689 10.726 32.042.737 6.458-1.459 16.034 1.218 21.252 1.882 3.671 6.256 6.352 8.117 10.457 2.143 4.727 2.337 10.569 2.062 15.703-.566 10.496-8.006 13.695-17.525 12.529z"/></g><g mask="url(#w)"><path clip-rule="evenodd" d="m-.17981 311.999h543.18381v-339.2437h-543.18381z" fill="url(#k)" fill-rule="evenodd"/></g><g mask="url(#x)"><path clip-rule="evenodd" d="m.202393 312h542.790607v-338.9561h-542.790607z" fill="url(#l)" fill-rule="evenodd"/></g><path clip-rule="evenodd" d="m166.469 304.689c-10.369-7.57-18.283-19.336-25.919-29.549-10.617-14.199-27.429-34.125-29.203-52.107 7.05 1.054 15.277 9.878 20.383 14.298 9.315 8.067 17.153 16.759 24.944 26.293 8.276 10.13 14.53 21.845 22.571 32.06 2.011-5.863-4.457-15.124-6.622-20.548-4.679-11.721-6.878-23.86-8.59-36.327-1.446-10.511-2.941-21.475-2.961-32.087-.011-6.711-1.309-18.467 1.655-24.545 6.44 8.572 10.254 19.072 13.215 29.323 3.314 11.47 7.125 23.593 8.512 35.493.793 6.816.718 32.135 9.492 33.784 8.142-22.032 5.478-48.355 10.545-71.326 4.07-18.45 9.929-38.644 21.842-53.73 3.073 11.212-.782 27.85-2.075 39.228-1.897 16.672-3.818 33.451-6.949 49.933-2.705 14.225-2.086 28.826-4.564 42.993 4.966-20.229 12.048-41.033 23.726-58.31 5.109-7.561 10.304-14.635 15.757-21.92 2.416-3.23 4.728-7.331 8.127-9.187 1.457 8.407-4.72 20.655-7.023 28.815-3.468 12.292-6.488 24.905-12.188 36.406-6.27 12.655-11.919 26.408-19.069 38.596 2.786-12.231 17.341-27.821 26.339-36.243 6.407-5.995 16.876-16.669 25.804-17.794-1.923 12.72-14.636 27.823-21.503 38.182-5.375 8.108-12.604 17.795-20.382 25.579h-56.607c-2.966-2.495-5.979-4.917-9.257-7.31z" fill="#0ad9c6" fill-rule="evenodd"/><path clip-rule="evenodd" d="m127.975 311.999h-6.723c.114-3.545.378-7.088.757-10.629-3.037-3.294-7.957-6.239-12.395-9.869-5.087-4.161-16.4487-16.3-10.4758-23.687 5.8888-7.282 19.4818 7.837 24.5728 21.588.781-4.495 1.7-8.983 2.711-13.455-1.928-1.741-4.043-3.932-6.372-6.479-7.161-7.822-14.355-24.434-12.355-34.988 18.771-1.763 18.172 24.018 19.518 38.038 1.812-7.711 3.834-15.382 5.774-22.992.377-1.473.747-2.947 1.112-4.422-1.619-4.796-4.025-9.018-8.709-12.876-4.963-4.085-21.75-15.417-14.3-24.249 7.555-8.955 17.922 6.472 19.468 11.403 2.062 6.562 4.338 13.183 4.898 20.073 1.893-8.04 3.576-16.089 4.944-24.165-11.276-12.917-34.207-23.343-32.358-42.044 16.85-8.753 28.103 23.285 32.863 38.936 1.412-8.877 2.431-17.79 2.926-26.77-1.711-1.539-3.901-4.873-7.208-7.711-7.438-6.377-16.77-11.2-19.003-21.277-3.07-13.832 10.087-9.348 16.014-2.224 6.531 7.848 8.041 17.058 10.417 26.3.004-.115.01-.229.014-.343.304-9.663.08-19.299-.597-28.885-9.717-9.323-30.793-9.778-28.52-29.399 15.153-2.442 24.202 15.045 28.325 26.867-.747-9.409-1.943-18.765-3.592-28.042-1.646.208-3.52-2.693-8.853-5.031-7.422-3.254-22.973-7.252-21.019-18.1552 1.372-7.6559 13.171-3.1131 17.846.7532 5.273 4.359 7.666 12.348 11.191 17.975-.369-1.907-.729-3.819-1.134-5.72-1.563-7.317-3.411-14.5823-5.475-21.7806-10.613-7.9841-42.8246-22.2788-34.0452-32.4531 9.9012-11.4707 25.2712 14.9698 32.8532 28.3466-.721-2.399-1.457-4.7942-2.232-7.1756-1.397-4.2988-2.985-8.521-4.633-12.7205-10.838-8.6316-20.371-24.9367-24.2577-32.1061-4.5156-8.3336-12.0629-41.71844 9.0347-29.07088 20.729 12.42628 16.694 39.30818 18.581 59.76378 1.705 3.811 3.293 7.6911 4.767 11.6165.715-6.9518 3.709-16.4309 7.244-17.6995 9.263-3.3206 4.102 9.7896 2.617 12.7381-2.11 4.1882-5.359 8.3764-7.745 10.8458 1.934 5.5876 3.67 11.2217 5.245 16.8206.139-1.681.324-3.2263.394-4.3051.554-8.4883 3.452-19.241 13.236-22.6547 8.239 10.1316-6.845 27.4074-11.341 35.4467.155.601.315 1.203.467 1.802.923 3.637 1.748 7.305 2.527 10.983 1.951-10.422 8.791-21.8716 17.151-25.2312 12.611 14.2182-10.356 23.7792-15.502 33.6502 1.208 6.714 2.169 13.48 2.872 20.278 1.186-5.946 2.978-11.85 6.329-16.25 4.638-6.089 13.344-10.009 12.584.327-.442 5.999-5.928 9.691-9.92 13.801-3.51 3.612-6.246 7.394-8.268 10.422.437 6.075.668 12.168.674 18.267 2.389-8.276 5.936-16.651 12.148-21.419 11.83-9.077 18.343 3.837 14.007 13.872-4.455 10.313-18.766 12.554-26.355 18.106-.241 5.488-.678 10.956-1.281 16.409 4.871-7.754 10.138-16.228 18.381-20.054 8.384-3.892 21.228.702 16.392 10.583-5.928 12.109-25.336 6.902-35.091 12.254-.882 7.309-2.059 14.592-3.475 21.862 4.12-5.872 9.429-11.463 13.72-14.597 8.51-6.219 16.508 1.569 13.771 10.464-3.906 12.696-20.687 9.565-29.37 13.179-.856 3.881-1.768 7.76-2.738 11.64-1.119 4.48-2.248 8.946-3.351 13.407 4.998-6.243 11.776-11.876 17.16-13.544 11.168-3.464 16.706 7.326 8.084 14.691-8.196 6.999-19.628 3.24-27.552 8.405-1.481 6.299-2.857 12.601-4.041 18.93 8.115-9.037 21.886-16.175 31.512-14.195 10.586 2.178 11.801 11.585 2.575 16.784-6.631 3.738-25.766.512-35.272 4.148-.908 5.598-1.637 11.223-2.118 16.893z" fill="#6244c9" fill-rule="evenodd"/><g mask="url(#y)"><path clip-rule="evenodd" d="m-.0617065 312h543.0337065v-338.8384h-543.0337065z" fill="url(#m)" fill-rule="evenodd"/></g><g mask="url(#z)"><path clip-rule="evenodd" d="m.0551758 311.999h542.3878242v-339.2438h-542.3878242z" fill="url(#n)" fill-rule="evenodd"/></g></svg>