<svg fill="none" height="188" viewBox="0 0 223 188" width="223" xmlns="http://www.w3.org/2000/svg"><path d="m113.813 188c51.907 0 93.986-42.085 93.986-94 0-51.9148-42.079-94-93.986-94-51.9078 0-93.987 42.0852-93.987 94 0 51.915 42.0792 94 93.987 94z" fill="#faefe9"/><path d="m165.973 53.0193h-57.632v89.2577h57.632z" fill="#fff"/><path d="m96.7904 107.498h59.0916" stroke="#000" stroke-miterlimit="10"/><path d="m96.7904 113.335h59.0916" stroke="#000" stroke-miterlimit="10"/><path d="m96.7904 119.172h59.0916" stroke="#000" stroke-miterlimit="10"/><path d="m96.7904 125.009h59.0916" stroke="#000" stroke-miterlimit="10"/><path d="m137.157 94.1216c8.327 0 15.077-6.7511 15.077-15.0789 0-8.3279-6.75-15.079-15.077-15.079-8.326 0-15.077 6.7511-15.077 15.079 0 8.3278 6.751 15.0789 15.077 15.0789z" fill="#f2f2f2"/><path d="m179.713 84.7581h-23.831v22.1319h23.831z" fill="#50b89d" opacity=".7"/><path d="m166.388 109.891 10.427 4.214v3.265l-13.626-6.313v-2.432l13.626-6.297v3.265zm-1.45 52.809h-2.648l10.127-26.335h2.632zm10.294 27.091-11.01-4.314v-3.165l14.225 6.296v2.432l-14.225 6.313v-3.198z" fill="#fff"/><g stroke="#000"><path d="m137.4 9.12024h-128.63845v84.63646h128.63845z" stroke-miterlimit="10"/><path d="m8.76155 13.6196h128.63845" stroke-miterlimit="10"/><path d="m56.7884 21.1591h-38.6647v38.6701h38.6647z" stroke-miterlimit="10"/><path d="m64.2052 24.564h59.0908" stroke-miterlimit="10"/><path d="m64.2052 30.4009h59.0908" stroke-miterlimit="10"/><path d="m64.2052 36.2379h59.0908" stroke-miterlimit="10"/><path d="m64.2052 42.075h59.0908" stroke-miterlimit="10"/></g><path d="m37.4561 31.3738-10.5295 18.2406h21.0589z" fill="#50b89d" opacity=".44"/><path d="m11.558 12.5252c.6044 0 1.0943-.49 1.0943-1.0945 0-.6044-.4899-1.0944-1.0943-1.0944-.6043 0-1.0942.49-1.0942 1.0944 0 .6045.4899 1.0945 1.0942 1.0945z" fill="#ab8de5"/><path d="m15.3272 12.5252c.6044 0 1.0943-.49 1.0943-1.0945 0-.6044-.4899-1.0944-1.0943-1.0944-.6043 0-1.0942.49-1.0942 1.0944 0 .6045.4899 1.0945 1.0942 1.0945z" fill="#73e5e2"/><path d="m19.0964 12.5252c.6044 0 1.0943-.49 1.0943-1.0945 0-.6044-.4899-1.0944-1.0943-1.0944-.6043 0-1.0942.49-1.0942 1.0944 0 .6045.4899 1.0945 1.0942 1.0945z" fill="#50b89d"/><path d="m65.421 78.1306 3.6476-3.2225h-3.7205z" fill="#ab8de5"/><path d="m84.9527 62.8693h-18.1504c-2.7774 0-5.0289 2.2518-5.0289 5.0295v2.3445c0 2.7778 2.2515 5.0296 5.0289 5.0296h18.1504c2.7774 0 5.0289-2.2518 5.0289-5.0296v-2.3445c0-2.7777-2.2515-5.0295-5.0289-5.0295z" fill="#ab8de5"/><path d="m72.1083 70.1656c.6044 0 1.0943-.49 1.0943-1.0945 0-.6044-.4899-1.0944-1.0943-1.0944s-1.0943.49-1.0943 1.0944c0 .6045.4899 1.0945 1.0943 1.0945z" fill="#fff"/><path d="m75.8775 70.1656c.6044 0 1.0943-.49 1.0943-1.0945 0-.6044-.4899-1.0944-1.0943-1.0944s-1.0943.49-1.0943 1.0944c0 .6045.4899 1.0945 1.0943 1.0945z" fill="#fff"/><path d="m79.6467 70.1656c.6043 0 1.0943-.49 1.0943-1.0945 0-.6044-.49-1.0944-1.0943-1.0944-.6044 0-1.0943.49-1.0943 1.0944 0 .6045.4899 1.0945 1.0943 1.0945z" fill="#fff"/><path d="m180.929 41.6493-3.648-3.2225h3.72z" fill="#73e5e2"/><path d="m161.397 38.7917h18.15c2.778 0 5.029-2.2518 5.029-5.0295v-2.3445c0-2.7778-2.251-5.0296-5.029-5.0296h-18.15c-2.778 0-5.029 2.2518-5.029 5.0296v2.3445c0 2.7777 2.251 5.0295 5.029 5.0295z" fill="#73e5e2"/><path d="m174.241 33.6842c.605 0 1.095-.49 1.095-1.0944s-.49-1.0944-1.095-1.0944c-.604 0-1.094.49-1.094 1.0944s.49 1.0944 1.094 1.0944z" fill="#fff"/><path d="m170.472 33.6842c.604 0 1.094-.49 1.094-1.0944s-.49-1.0944-1.094-1.0944-1.094.49-1.094 1.0944.49 1.0944 1.094 1.0944z" fill="#fff"/><path d="m166.703 33.6842c.604 0 1.094-.49 1.094-1.0944s-.49-1.0944-1.094-1.0944-1.094.49-1.094 1.0944.49 1.0944 1.094 1.0944z" fill="#fff"/><path d="m178.983 11.4307c.605 0 1.094-.49 1.094-1.0944 0-.60448-.489-1.09448-1.094-1.09448-.604 0-1.094.49-1.094 1.09448 0 .6044.49 1.0944 1.094 1.0944z" fill="#f98b67"/><path d="m181.293 15.9301c.605 0 1.095-.49 1.095-1.0945 0-.6044-.49-1.0944-1.095-1.0944-.604 0-1.094.49-1.094 1.0944 0 .6045.49 1.0945 1.094 1.0945z" fill="#f98b67"/><path d="m156.125 60.9236c.94 0 1.702-.7622 1.702-1.7025 0-.9402-.762-1.7024-1.702-1.7024s-1.702.7622-1.702 1.7024c0 .9403.762 1.7025 1.702 1.7025z" fill="#f98b67"/><path d="m166.095 66.7606c.94 0 1.702-.7622 1.702-1.7024 0-.9403-.762-1.7025-1.702-1.7025s-1.702.7622-1.702 1.7025c0 .9402.762 1.7024 1.702 1.7024z" fill="#f98b67"/><path d="m12.8955 68.7063c.9401 0 1.7022-.7622 1.7022-1.7025 0-.9402-.7621-1.7024-1.7022-1.7024s-1.7022.7622-1.7022 1.7024c0 .9403.7621 1.7025 1.7022 1.7025z" fill="#f98b67"/><path d="m160.064 144.77v-.244l-.583-.729-1.35-1.639-1.435-1.737s-1.381-.956-1.736-1.121c-1.294-.598-2.568-1.056-4.09-1.056-.936 0-4.436.141-4.443.73 0 .873 4.9 4.178 8.494 5.784 1.578.012 5.143.012 5.143.012z" fill="#1f161e"/><path d="m159.323 144.77c-4.988-3.838-15.17-24.771-12.558-32.53 5.559 2.834 11.658 12.604 14.535 20.853.154.537.278 1.082.372 1.632l1.167 5.351.282 4.701z" fill="#fbdc8e"/><path d="m162.727 144.77c-1.683-1.367-2.22-5.414-2.235-6.924-.027-2.819.406-4.896 2.816-7.997s1.768-8.245 4.968-11.715c3.2-3.471 5.321-4.439 9.119-4.439 3.799 0 5.005 6.158 4.985 7.707-.043 6.251-3.98 7.136-6.383 10.118-1.744 2.164-1.88 3.935-2.407 4.947-2.831 5.452-5.131 7.503-6.834 8.303" fill="#73e5e2"/><path d="m163.656 144.317c.049-10.66 11.281-26.67 13.681-29.07" stroke="#fff" stroke-linecap="round" stroke-linejoin="round" stroke-width=".4"/><path d="m164.261 139.473c-1.242-1.355-2.373-5.195-2.203-6.192" stroke="#fff" stroke-linecap="round" stroke-linejoin="round" stroke-width=".4"/><path d="m161.078 143.85c-1.76-3.12-10.113-18.335-13.228-29.542" stroke="#fff" stroke-linecap="round" stroke-linejoin="round" stroke-width=".4"/><path d="m166.766 144.77h5.233l-4.377 16.295h-11.704l-4.306-16.295z" fill="#b37361"/><path d="m148.139 139.305c2.551.175 5.761.292 8.025 1.836" stroke="#fff" stroke-linecap="round" stroke-linejoin="round" stroke-width=".4"/><path d="m188.574 78.0698c-.615 2.9355-5.085 39.3482-3.623 48.0462 1.461 8.697 25.29 26.92 26.333 27.239 1.216-.893 3.006-3.818 3.006-3.818s-17.472-20.257-17.806-21.07c-.333-.812 3.828-47.7219 3.828-47.7219z" fill="#1f161e"/><path d="m217.03 84.6973-17.827 72.7217h-6.004l6.084-75.8639z" fill="#ab8de5"/><path d="m204.368 43.0601c2.461 0 15.298.4158 17.618 4.9347 2.32 4.5188.134 25.4055-1.308 26.2154-.778.4353-.99.0121-1.216.8974s-2.432 9.5897-2.432 9.5897c-1.401.0389-21.822-3.0377-28.451-6.6347.039-.9996.36-3.5995.36-3.7989-.881.3599-1.946.4353-2.238 0-2.587-3.9181 1.27-24.3452 4.037-28.4554 1.177-1.7632 9.681-2.7361 13.63-2.7482z" fill="#fbdc8e"/><path d="m212.821 74.7744c.603 0 5.795 3.6481 5.35 5.4406.364-1.4398 1.512-5.8881 1.512-5.8881-.493.0949-6.42.4548-6.862.4475z" fill="#1f161e"/><path d="m207.546 45.4434c0 .7928-6.252.7928-6.252 0v-8.0259h6.252z" fill="#f8cdba"/><path d="m203.96 39.3169c.486 0 3.586 1.3717 3.586 2.1354v-4.0348c-.773 0-3.586 1.8994-3.586 1.8994z" fill="#1f161e"/><path d="m203.104 39.9033c3.358 0 6.081-2.7233 6.081-6.0826 0-3.3594-2.723-6.0827-6.081-6.0827-3.359 0-6.082 2.7233-6.082 6.0827 0 3.3593 2.723 6.0826 6.082 6.0826z" fill="#f8cdba"/><path d="m201.046 24.9288c-3.122 0-5.067 1.9603-5.067 4.4726 0 2.0892.505 3.2712 1.101 3.5703.377-2.0283 1.197-2.9671 1.875-3.3708.528.4037 1.43 1.3814 2.636 1.683 1.206.3015 4.346.2432 6.882 2.0867.829-.754 1.656-1.7341 1.656-2.8893 0-1.1553-.511-2.6048-3.514-3.4414-1.984-.5521-2.262-2.1111-5.569-2.1111z" fill="#1f161e"/><path d="m197.421 35.6275c.588 0 1.065-.2483 1.065-.5546 0-.3062-.477-.5545-1.065-.5545-.589 0-1.066.2483-1.066.5545 0 .3063.477.5546 1.066.5546z" fill="#fa9e9f"/><path d="m204.12 35.6275c.588 0 1.065-.2483 1.065-.5546 0-.3062-.477-.5545-1.065-.5545s-1.065.2483-1.065.5545c0 .3063.477.5546 1.065.5546z" fill="#fa9e9f"/><path d="m200.023 33.9227c-.2.2846-1.216 1.4787-.144 1.9603" stroke="#1f161e" stroke-linecap="round" stroke-miterlimit="10"/><path d="m202.026 37.2791c.321 0 .815-.3989 1.075-.7564" stroke="#1f161e" stroke-linecap="round" stroke-miterlimit="10"/><path d="m208.726 35.9266c.776 0 1.405-.6294 1.405-1.4057 0-.7764-.629-1.4058-1.405-1.4058-.777 0-1.406.6294-1.406 1.4058 0 .7763.629 1.4057 1.406 1.4057z" fill="#f8cdba"/><path d="m212.962 55.0283c-.11 1.3425-.538 7.9773-.377 8.8504-2.04.7101-20.721 9.5702-23.953 10.5431" stroke="#1f161e" stroke-linecap="round" stroke-miterlimit="10"/><path d="m191.266 52.9343c-.431 1.5031-1.88 8.325-.861 11.494" stroke="#1f161e" stroke-linecap="round" stroke-miterlimit="10"/><path d="m196.035 71.3182c.972.6835 10.295 4.8107 23.186 3.2542" stroke="#1f161e" stroke-linecap="round" stroke-miterlimit="10"/><path d="m195.142 64.4283c.625.0997-1.413-1.5273-2.568-.9217-1.155.6055-2.711 3.3465-2.393 3.9813.043.1152.111.2193.2.3047.088.0853.195.1497.312.1885.116.0387.24.0508.362.0353s.239-.0581.342-.1248c.314-.2019 2.656-3.6384 3.745-3.4633z" fill="#f8cdba"/><path d="m214.09 149.836c.333.243 3.288 2.242 3.312 3.502s-2.753 5.436-3.312 5.555-.958-.353-.958-1.197 1.055-2.322.914-2.979-1.505-1.858-2.205-1.88" fill="#1f161e"/><path d="m198.634 157.419c0 .579.336 4.213-.335 4.551-.672.338-8.079.537-8.414.201-.336-.335-.54-1.043-.244-1.245.297-.202 3.162-.776 3.551-1.043.389-.268.926-1.703.729-2.464" fill="#1f161e"/><path d="m53.3499 130.442h-47.02496v23.856h47.02496z" fill="#b37361"/><path d="m76.517 119.262c.2043 1.216 3.6719 29.017 4.2337 29.477.5617.459 6.5268 1.478 7.0374.715.1022-1.216.2432-20.605.5593-22.339" fill="#1f161e"/><path d="m9.4254 113.462c-2.40499-1.185 2.6093 22.294 15.8063 22.294s35.411-20.106 39.0075-20.106c7.9396 0 26.7345 15.59 28.2081 15.59 1.1284-1.128 3.385-3.103 3.385-3.891s-17.9948-30.4012-31.4594-30.4012c-5.2209.0073-49.5174 19.1962-54.9475 16.5142z" fill="#50b89d"/><path d="m16.8519 113.86c2.6385-.598 5.9213-2.147 8.8272-3.73-7.9055 2.585-14.3837 4.256-16.25369 3.331-1.27423-.627-.46689 5.657 2.52899 11.711-.5423-1.17-1.3156-9.891 4.8975-11.312z" fill="#1f161e"/><path d="m22.6686 72.6704c2.0792.056 12.9028-.2626 15.8696 2.5634 2.2007 2.0965 9.0436 20.1255 10.099 26.4562-4.596 2.337-37.7455 18.211-48.004952 11.231-.226152-5.423.826792-26.9836 7.535952-38.2903 2.4536-1.6344 12.5016-2.0113 14.5004-1.9603z" fill="#73e5e2"/><path d="m26.8853 67.512h-6.3225v6.7952c0 1.7025 6.3225 1.6879 6.3225 0z" fill="#f8cdba"/><path d="m20.5628 71.6148c0-.7539 2.0888-2.6485 3.3801-2.5804.0316-.8391-2.9497-2.0454-2.9497-2.0454l-.4304 1.1601z" fill="#1f161e"/><path d="m33.5069 67.5122c.142-.6577.2137-1.3287.214-2.0016 0-5.015-3.9175-9.0814-8.7543-9.0814-4.8367 0-8.7542 4.0664-8.7542 9.0814.0003.6729.072 1.3439.214 2.0016z" fill="#1f161e"/><path d="m31.1992 61.3905c-1.0724-.1629-2.1424-1.0069-2.8889-1.559-4.2556 3.118-6.9815 3.1593-7.2758 3.1593-.2942 0-1.4931 1.7219-2.0451 1.9165l-.0486-.0292c.1641.906.5148 1.768 1.0299 2.5312s1.1833 1.4109 1.9621 1.9019 1.6512.8147 2.5618.9504 1.8394.0806 2.7275-.162 1.7161-.6673 2.4313-1.2471 1.302-1.302 1.7231-2.1208.6674-1.7163.7231-2.6354-.0803-1.8397-.3995-2.7034c-.1664.0199-.3347.0191-.5009-.0024z" fill="#f8cdba"/><path d="m20.2247 57.56c1.4263 0 2.5826-1.1564 2.5826-2.5828 0-1.4265-1.1563-2.5829-2.5826-2.5829-1.4262 0-2.5825 1.1564-2.5825 2.5829 0 1.4264 1.1563 2.5828 2.5825 2.5828z" fill="#1f161e"/><path d="m21.375 62.8522c-.2791.0132-.5424.1334-.7352.3356-.1929.2022-.3004.4709-.3004.7503s.1075.5481.3004.7503c.1928.2022.4561.3224.7352.3356" stroke="#1f161e" stroke-linecap="round" stroke-miterlimit="10"/><path d="m29.6526 62.991c.3186.4256 1.1381 1.1722 0 1.9627" stroke="#1f161e" stroke-linecap="round" stroke-miterlimit="10"/><path d="m26.202 65.5227c0 .3186.1361 1.0798.8195 1.2768" stroke="#1f161e" stroke-linecap="round" stroke-miterlimit="10"/><path d="m24.0839 65.5979c.5533 0 1.0019-.233 1.0019-.5204 0-.2875-.4486-.5205-1.0019-.5205s-1.0019.233-1.0019.5205c0 .2874.4486.5204 1.0019.5204z" fill="#fa9e9f"/><path d="m31.5323 65.5979c.5534 0 1.0019-.233 1.0019-.5204 0-.2875-.4485-.5205-1.0019-.5205-.5533 0-1.0018.233-1.0018.5205 0 .2874.4485.5204 1.0018.5204z" fill="#fa9e9f"/><path d="m38.3096 91.4632 6.7578-1.739c.6492 1.1042 3.8105 11.9538 3.8105 11.9538l-10.4321 4.397c.1361-2.055.5471-11.4671-.1362-14.6118z" fill="#f8cdba"/><path d="m14.6147 89.7632c0 .8172-.6882 3.9278-1.0943 5.3895" stroke="#1f161e" stroke-linecap="round" stroke-miterlimit="10"/><path d="m38.3096 91.4633c-.1629-1.2866-1.1162-8.5366-2.7382-12.3526" stroke="#1f161e" stroke-linecap="round" stroke-miterlimit="10"/><path d="m38.3096 91.4632 6.7578-1.739c.6492 1.1042 3.8105 11.9538 3.8105 11.9538l-10.4321 4.397c.1361-2.055.5471-11.4671-.1362-14.6118z" fill="#f8cdba"/><path d="m92.6492 130.666c.1507.243 2.1642 2.714 2.8767 2.741s5.0381-2.904 4.8491-3.534c-.19-.63-2.9037-.219-3.3706-.44s-1.5101-1.262-1.6803-1.724" fill="#1f161e"/><path d="m82.0103 148.997c-.0511.27-.3258 3.453.1678 3.969.4936.515 5.6416 1.41 5.9407.824s-1.9453-2.174-2.118-2.656c-.1727-.481-.2091-1.945 0-2.402" fill="#1f161e"/><path d="m73.9394 102.359h-22.8997l5.452-14.4488h22.8996z" fill="#969696"/><path d="m54.8576 101.814h-22.8997v.545h22.8997z" fill="#969696"/><path d="m13.5205 95.1526c-.4402 1.6441-2.5777 8.6974-1.7071 9.9134.8705 1.216 22.6735-1.54 28.5072-3.356 1.4858-.487 2.5874-1.7613 3.2464-1.9267.8462-.1433 1.7155.0312 2.4408.4897.7254.459 1.2556 1.17 1.4889 1.996-2.3296 1.128-35.9654 18.304-46.864454 10.66-2.059686-1.477 1.553884-19.474 1.719234-20.3811 1.84083.2213 11.16902 2.6047 11.16902 2.6047z" fill="#f8cdba"/><path d="m38.6208 102.147c.6566-.155 1.2305-.308 1.7023-.454 1.4857-.487 2.5873-1.7611 3.2463-1.9265.8462-.1433 1.7155.0312 2.4409.4905.7253.458 1.2556 1.169 1.4888 1.995" stroke="#1f161e" stroke-linecap="round" stroke-miterlimit="10"/></svg>