<svg fill="none" height="163" viewBox="0 0 1056 163" width="1056" xmlns="http://www.w3.org/2000/svg" xmlns:xlink="http://www.w3.org/1999/xlink"><filter id="a" color-interpolation-filters="sRGB" filterUnits="userSpaceOnUse" height="162.816" width="1055.19" x="0" y="0"><feFlood flood-opacity="0" result="BackgroundImageFix"/><feColorMatrix in="SourceAlpha" type="matrix" values="0 0 0 0 0 0 0 0 0 0 0 0 0 0 0 0 0 0 127 0"/><feOffset dy="55"/><feGaussianBlur stdDeviation="8.5"/><feColorMatrix type="matrix" values="0 0 0 0 0 0 0 0 0 0 0 0 0 0 0 0 0 0 0.16 0"/><feBlend in2="BackgroundImageFix" mode="normal" result="effect1_dropShadow"/><feBlend in="SourceGraphic" in2="effect1_dropShadow" mode="normal" result="shape"/></filter><g filter="url(#a)"><path d="m19 76.0037h-2v2h2zm45.7152-10.2056-.935-1.7681zm-45.7152 9.2056v-2h-2v2zm45.2477-10.0896.9349 1.768zm28.2333-22.2378-1.409-1.4194zm2.6787-2.6707 1.4136 1.4148zm123.0463 2.6571 1.441-1.3865-.001-.0007zm.021.0217-1.442 1.3865.001.0007zm125.113 13.1433 1.043 1.7064.006-.0038zm.004-.0024-1.044-1.7064-.006.0037zm126.743-5.8091-.78 1.8416.001.0002zm.008.0032.78-1.8416-.001-.0003zm63.104 13.4337h2v-2h-2zm0 1v2h2v-2zm-63.502-13.5161.78-1.8416v-.0003zm-.007-.0032-.78 1.8416v.0002zm-125.821 5.7422-1.043-1.7064-.006.0038zm-.004.0025 1.043 1.7064.006-.0038zm-126.338-13.2789 1.441-1.3872-.001-.0009zm-.021-.0216-1.441 1.3872.001.0009zm-121.6633-2.6409-1.4135-1.4149zm-2.6572 2.6489-1.409-1.4194zm439.8065 21.0671h-2v2h2zm65.252-26.7964-1.247-1.5637v.0003zm-65.252 25.7964v-2h-2v2zm64.641-26.5881-1.247-1.5637v.0003zm.013-.01 1.247 1.5637v-.0003zm132.546 12.1964-1.478 1.3481.001.0002zm.045.0491 1.477-1.3482v-.0001zm103.626 31.6822-.803-1.8314zm24.312-15.5021 1.235 1.5728zm2.006-1.5803-1.239-1.5701zm107.891-6.0138.881-1.7953v-.0001zm2.309 1.1318.878-1.7967zm65.809 16.1854h2v-2h-2zm0 1v2h2v-2zm-66.249-16.2871.879-1.7967zm-2.293-1.1242-.881 1.7954zm-106.868 5.9087-1.238-1.5702zm-1.987 1.5659-1.236-1.5728zm-24.528 15.6314-.804-1.8314zm-104.722-31.8748 1.477-1.3481v-.0002zm-.045-.0491-1.477 1.3482v.0001zm-131.241-12.1278 1.247 1.5638v-.0004zm-579.257 40.357c19.9694 0 34.7454-4.1426 46.6501-10.4376l-1.8699-3.5361c-11.2802 5.9648-25.4056 9.9737-44.7802 9.9737zm-2-3v1h4v-1zm46.3128-11.8577c-11.1241 5.8823-25.0869 9.8577-44.3128 9.8577v4c19.8207 0 34.434-4.1092 46.1826-10.3216zm27.7592-21.8891c-8.1564 8.0968-16.5949 15.9856-27.7592 21.8891l1.8698 3.5361c11.7245-6.1997 20.5166-14.4554 28.7074-22.5864zm2.674-2.666c-.89.8893-1.7795 1.7781-2.674 2.666l2.818 2.8388c.9-.8933 1.7941-1.7868 2.6833-2.6753zm61.363-30.53231c-30.856 0-46.024 15.20511-61.363 30.53231l2.8273 2.8295c15.2887-15.2773 29.4327-29.3618 58.5357-29.3618zm64.537 33.21691c-15.643-16.247-31.927-33.21691-64.537-33.21691v4.00001c30.797 0 46.04 15.7731 61.656 31.9913zm.022.0223-.021-.0216-2.883 2.773.021.0217zm60.955 31.7059c-30.356 0-45.339-15.4874-60.956-31.7065l-2.881 2.7744c15.643 16.2465 31.666 32.9321 63.837 32.9321zm61.673-18.8824c-15.61 9.5435-30.875 18.8824-61.673 18.8824v4c31.903 0 47.936-9.7955 63.76-19.4696zm-.002.0013-.004.0025 2.099 3.4052.004-.0024zm64.291-19.6226c-32.181 0-48.406 9.9114-64.285 19.6189l2.087 3.4128c15.665-9.577 31.122-19.0317 62.198-19.0317zm64.282 13.6746c-16.042-6.7953-32.308-13.6746-64.282-13.6746v4c31.201 0 46.895 6.6537 62.722 13.3578zm.007.0029-.007-.0032-1.559 3.6837.007.0032zm62.325 13.2756c-31.003 0-46.553-6.5952-62.324-13.2753l-1.56 3.6832c15.986 6.7714 32.109 13.5921 63.884 13.5921zm2 3v-1h-4v1zm-66.282-11.6745c16.043 6.7952 32.309 13.6745 64.282 13.6745v-4c-31.201 0-46.894-6.6537-62.722-13.3577zm-.007-.003.008.0032 1.559-3.6837-.008-.0032zm-62.325-13.2756c31.003 0 46.554 6.5952 62.325 13.2754l1.56-3.6833c-15.987-6.7714-32.109-13.5921-63.885-13.5921zm-61.673 18.8824c15.611-9.5435 30.876-18.8824 61.673-18.8824v-4c-31.902 0-47.935 9.7955-63.759 19.4697zm.002-.0013.004-.0024-2.098-3.4053-.004.0024zm-64.291 19.6226c32.181 0 48.407-9.9113 64.285-19.6189l-2.086-3.4127c-15.665 9.577-31.123 19.0316-62.199 19.0316zm-64.537-33.2169c15.644 16.2471 31.927 33.2169 64.537 33.2169v-4c-30.796 0-46.039-15.7731-61.655-31.9913zm-.02-.0207.021.0216 2.88-2.7762-.021-.0216zm-60.957-31.7075c30.357 0 45.34 15.4875 60.956 31.7066l2.882-2.7744c-15.643-16.2466-31.667-32.93221-63.838-32.93221zm-57.8527 29.0934c15.2947-15.2799 29.1717-29.0934 57.8527-29.0934v-4.00001c-30.435 0-45.337 14.93591-60.6798 30.26361zm-2.6617 2.6534c.8934-.8869 1.7804-1.773 2.6617-2.6534l-2.8271-2.8298c-.882.8811-1.7644 1.7627-2.6527 2.6444zm-28.9445 22.7607c11.8644-6.2737 20.7449-14.6211 28.9445-22.7607l-2.8181-2.8388c-8.1649 8.1053-16.6918 16.0859-27.9963 22.0634zm467.3419-1.113c32.397 0 49.713-13.8403 66.5-27.233l-2.495-3.1268c-16.692 13.3169-33.071 26.3598-64.005 26.3598zm-2-3v1h4v-1zm65.394-28.1515c-16.673 13.3017-32.819 26.1515-63.394 26.1515v4c32.039 0 49.122-13.6479 65.889-27.0247zm.013-.0104-.013.0101 2.494 3.1275.013-.0101zm66.499-27.23261c-32.397 0-49.713 13.84041-66.5 27.23301l2.495 3.1268c16.692-13.3169 33.071-26.3598 64.005-26.3598zm68.771 39.64471c-17.644-19.3357-36.071-39.64471-68.771-39.64471v4.00001c30.723 0 48.044 18.8654 65.816 38.3409zm.045.0489-.045-.0491-2.954 2.6966.044.0491zm65.122 38.0642c-30.254 0-47.302-18.5354-65.122-38.0641l-2.955 2.6963c17.69 19.3859 35.844 39.3678 68.077 39.3678zm36.224-6.8651c-9.335 4.0965-20.799 6.8651-36.224 6.8651v4c15.937 0 27.953-2.8674 37.831-7.2023zm23.879-15.2435c-7.186 5.6451-14.515 11.134-23.879 15.2435l1.607 3.6628c9.86-4.327 17.526-10.0907 24.743-15.7607zm2.003-1.5776c-.667.5264-1.334 1.0522-2.003 1.5776l2.471 3.1456c.673-.5285 1.343-1.0569 2.01-1.583zm53.191-21.599c-25.845 0-39.481 10.7819-53.191 21.599l2.478 3.1402c13.61-10.7386 26.316-20.7392 50.713-20.7392zm56.82 15.3599c-15.79-7.7504-31.272-15.3599-56.82-15.3599v4c24.577 0 39.359 7.245 55.058 14.9507zm2.306 1.1305c-.77-.3767-1.538-.7535-2.306-1.1304l-1.762 3.5907c.767.3767 1.538.7549 2.311 1.1331zm64.931 15.9821c-30.95 0-48.482-7.9389-64.931-15.9821l-1.757 3.5934c16.694 8.1631 34.868 16.3887 66.688 16.3887zm2 3v-1h-4v1zm-69.127-14.4904c16.755 8.1931 35.087 16.4904 67.127 16.4904v-4c-31.16 0-48.86-8.0106-65.37-16.0838zm-2.296-1.1255c.762.374 1.527.7496 2.296 1.1255l1.757-3.5934c-.766-.3744-1.528-.7487-2.291-1.123zm-54.634-14.8566c24.342 0 38.945 7.1563 54.634 14.8566l1.762-3.5909c-15.779-7.7445-31.082-15.2657-56.396-15.2657zm-50.114 20.5402c13.602-10.7304 26.068-20.5402 50.114-20.5402v-4c-25.495 0-38.891 10.5921-52.591 21.3997zm-1.991 1.5684c.667-.5241 1.331-1.0477 1.991-1.5684l-2.477-3.1405c-.661.5212-1.321 1.0422-1.985 1.5633zm-24.959 15.89c9.984-4.3814 17.733-10.2138 24.959-15.8901l-2.471-3.1455c-7.194 5.6513-14.607 11.2089-24.096 15.3728zm-38.233 7.2866c16.065 0 28.219-2.8921 38.233-7.2866l-1.608-3.6628c-9.47 4.1561-21.072 6.9494-36.625 6.9494zm-68.771-39.6447c17.645 19.3357 36.071 39.6447 68.771 39.6447v-4c-30.722 0-48.044-18.8654-65.816-38.3409zm-.044-.0489.044.0491 2.955-2.6966-.045-.0491zm-65.123-38.0642c30.254 0 47.302 18.5354 65.123 38.0641l2.954-2.6963c-17.69-19.3859-35.844-39.36781-68.077-39.36781zm-63.394 26.1515c16.673-13.3016 32.819-26.1515 63.394-26.1515v-4.00001c-32.039 0-49.122 13.64791-65.888 27.02471zm-.013.0104.013-.01-2.494-3.1275-.013.01z" fill="#0ad9c6"/><g fill="#fff" stroke="#0ad9c6" stroke-width="4"><path d="m154.699 18c4.418 0 8-3.5817 8-8 0-4.41828-3.582-8-8-8s-8 3.58172-8 8c0 4.4183 3.582 8 8 8z"/><path d="m406.699 45c4.418 0 8-3.5817 8-8s-3.582-8-8-8-8 3.5817-8 8 3.582 8 8 8z"/><path d="m661.699 18c4.418 0 8-3.5817 8-8 0-4.41828-3.582-8-8-8s-8 3.58172-8 8c0 4.4183 3.582 8 8 8z"/><path d="m910.699 51c4.418 0 8-3.5817 8-8s-3.582-8-8-8-8 3.5817-8 8 3.582 8 8 8z"/></g></g></svg>