<svg fill="none" height="597" viewBox="0 0 698 597" width="698" xmlns="http://www.w3.org/2000/svg" xmlns:xlink="http://www.w3.org/1999/xlink"><filter id="a" color-interpolation-filters="sRGB" filterUnits="userSpaceOnUse" height="189.168" width="189.168" x="409.324" y="51.1941"><feFlood flood-opacity="0" result="BackgroundImageFix"/><feColorMatrix in="SourceAlpha" type="matrix" values="0 0 0 0 0 0 0 0 0 0 0 0 0 0 0 0 0 0 127 0"/><feOffset/><feGaussianBlur stdDeviation="25"/><feColorMatrix type="matrix" values="0 0 0 0 0.0627451 0 0 0 0 0.439216 0 0 0 0 0.694118 0 0 0 0.25 0"/><feBlend in2="BackgroundImageFix" mode="normal" result="effect1_dropShadow"/><feBlend in="SourceGraphic" in2="effect1_dropShadow" mode="normal" result="shape"/></filter><filter id="b" color-interpolation-filters="sRGB" filterUnits="userSpaceOnUse" height="71.3982" width="71.6839" x="401.84" y="0"><feFlood flood-opacity="0" result="BackgroundImageFix"/><feColorMatrix in="SourceAlpha" type="matrix" values="0 0 0 0 0 0 0 0 0 0 0 0 0 0 0 0 0 0 127 0"/><feOffset dx="5" dy="5"/><feGaussianBlur stdDeviation="7.5"/><feColorMatrix type="matrix" values="0 0 0 0 0 0 0 0 0 0 0 0 0 0 0 0 0 0 0.15 0"/><feBlend in2="BackgroundImageFix" mode="normal" result="effect1_dropShadow"/><feBlend in="SourceGraphic" in2="effect1_dropShadow" mode="normal" result="shape"/></filter><filter id="c" color-interpolation-filters="sRGB" filterUnits="userSpaceOnUse" height="71.3982" width="71.684" x="578.009" y="104.367"><feFlood flood-opacity="0" result="BackgroundImageFix"/><feColorMatrix in="SourceAlpha" type="matrix" values="0 0 0 0 0 0 0 0 0 0 0 0 0 0 0 0 0 0 127 0"/><feOffset dx="5" dy="5"/><feGaussianBlur stdDeviation="7.5"/><feColorMatrix type="matrix" values="0 0 0 0 0 0 0 0 0 0 0 0 0 0 0 0 0 0 0.15 0"/><feBlend in2="BackgroundImageFix" mode="normal" result="effect1_dropShadow"/><feBlend in="SourceGraphic" in2="effect1_dropShadow" mode="normal" result="shape"/></filter><filter id="d" color-interpolation-filters="sRGB" filterUnits="userSpaceOnUse" height="71.3982" width="71.684" x="355.09" y="104.367"><feFlood flood-opacity="0" result="BackgroundImageFix"/><feColorMatrix in="SourceAlpha" type="matrix" values="0 0 0 0 0 0 0 0 0 0 0 0 0 0 0 0 0 0 127 0"/><feOffset dx="5" dy="5"/><feGaussianBlur stdDeviation="7.5"/><feColorMatrix type="matrix" values="0 0 0 0 0 0 0 0 0 0 0 0 0 0 0 0 0 0 0.15 0"/><feBlend in2="BackgroundImageFix" mode="normal" result="effect1_dropShadow"/><feBlend in="SourceGraphic" in2="effect1_dropShadow" mode="normal" result="shape"/></filter><filter id="e" color-interpolation-filters="sRGB" filterUnits="userSpaceOnUse" height="71.3982" width="71.6839" x="531.398" y="0"><feFlood flood-opacity="0" result="BackgroundImageFix"/><feColorMatrix in="SourceAlpha" type="matrix" values="0 0 0 0 0 0 0 0 0 0 0 0 0 0 0 0 0 0 127 0"/><feOffset dx="5" dy="5"/><feGaussianBlur stdDeviation="7.5"/><feColorMatrix type="matrix" values="0 0 0 0 0 0 0 0 0 0 0 0 0 0 0 0 0 0 0.15 0"/><feBlend in2="BackgroundImageFix" mode="normal" result="effect1_dropShadow"/><feBlend in="SourceGraphic" in2="effect1_dropShadow" mode="normal" result="shape"/></filter><filter id="f" color-interpolation-filters="sRGB" filterUnits="userSpaceOnUse" height="70.6634" width="102.075" x="176.688" y="252.237"><feFlood flood-opacity="0" result="BackgroundImageFix"/><feColorMatrix in="SourceAlpha" type="matrix" values="0 0 0 0 0 0 0 0 0 0 0 0 0 0 0 0 0 0 127 0"/><feOffset dx="5" dy="5"/><feGaussianBlur stdDeviation="5"/><feColorMatrix type="matrix" values="0 0 0 0 0.0627451 0 0 0 0 0.439216 0 0 0 0 0.694118 0 0 0 0.2 0"/><feBlend in2="BackgroundImageFix" mode="normal" result="effect1_dropShadow"/><feBlend in="SourceGraphic" in2="effect1_dropShadow" mode="normal" result="shape"/></filter><filter id="g" color-interpolation-filters="sRGB" filterUnits="userSpaceOnUse" height="83.8359" width="176.043" x="275.042" y="334.325"><feFlood flood-opacity="0" result="BackgroundImageFix"/><feColorMatrix in="SourceAlpha" type="matrix" values="0 0 0 0 0 0 0 0 0 0 0 0 0 0 0 0 0 0 127 0"/><feOffset dy="4"/><feGaussianBlur stdDeviation="5"/><feColorMatrix type="matrix" values="0 0 0 0 0.435294 0 0 0 0 0.811765 0 0 0 0 0.592157 0 0 0 0.2 0"/><feBlend in2="BackgroundImageFix" mode="normal" result="effect1_dropShadow"/><feBlend in="SourceGraphic" in2="effect1_dropShadow" mode="normal" result="shape"/></filter><linearGradient id="h" gradientUnits="userSpaceOnUse" x1="380.913" x2="342.588" y1="-97.7292" y2="581.997"><stop offset="0" stop-color="#b6bdfc"/><stop offset="1" stop-color="#6979f8"/></linearGradient><linearGradient id="i"><stop offset="0" stop-color="#fff8e1"/><stop offset="1" stop-color="#ffcc80"/></linearGradient><linearGradient id="j" gradientUnits="userSpaceOnUse" x1="567.475" x2="515.017" xlink:href="#i" y1="192.971" y2="227.239"/><linearGradient id="k" gradientUnits="userSpaceOnUse" x1="594.066" x2="594.066" y1="209.857" y2="288.142"><stop offset="0" stop-color="#af6ced"/><stop offset="1" stop-color="#5e199d"/></linearGradient><linearGradient id="l" gradientUnits="userSpaceOnUse" x1="642.449" x2="642.449" y1="270.916" y2="382.376"><stop offset="0" stop-color="#eb5757"/><stop offset="1" stop-color="#872727"/></linearGradient><linearGradient id="m" gradientUnits="userSpaceOnUse" x1="583.668" x2="565.307" xlink:href="#i" y1="199.629" y2="207.339"/><linearGradient id="n" gradientUnits="userSpaceOnUse" x1="596.394" x2="584.559" xlink:href="#i" y1="260.358" y2="281.919"/><linearGradient id="o" gradientUnits="userSpaceOnUse" x1="196.272" x2="505.826" y1="300.965" y2="334.91"><stop offset=".127122" stop-color="#fff"/><stop offset=".972261" stop-color="#fff" stop-opacity=".8"/></linearGradient><clipPath id="p"><path d="m420.82 18.1062h24.3184v24.3184h-24.3184z"/></clipPath><clipPath id="q"><path d="m421.202 18.1062h24.3184v24.3184h-24.3184z"/></clipPath><clipPath id="r"><path d="m312.782 276.489h24.3184v24.3184h-24.3184z"/></clipPath><mask id="s" height="497" maskUnits="userSpaceOnUse" width="656" x="21" y="30"><path d="m615.328 43.3815c-142.437-62.8989-199.532 122.1345-295.692 155.1105-95.701 46.93-190.518-1.965-247.0117 43.968-89.5491 72.809-46.107 194.346 13.8231 244.268 85.9426 71.591 234.4056 40.59 386.4436-43.968 190.485-105.941 267.33-344.2267 142.437-399.3785z" fill="#98c3e8"/></mask><g fill="#98c3e8"><path d="m633.208 41.8269c-146.696-69.8067-211.406 121.0841-312.561 152.4931-101.068 45.948-198.522-7.833-258.6974 38.269-95.3837 73.076-53.51874 200.919 7.5441 254.711 87.5673 77.139 243.1823 49.376 404.0283-34.034 201.521-104.502 288.314-350.23 159.686-411.4391z" opacity=".4"/><path d="m145.717 117.913c5.067 12.666-10.132 32.425-31.918 39.011-18.745 5.667-36.9838 5.066-42.0502-8.106-4.4818-11.653 9.6261-24.319 25.8383-30.905 16.2119-6.586 43.0639-12.666 48.1299 0z" opacity=".2"/><path d="m311.387 92.0747c-3.943-10.0714 9.946-33.5738 27.158-38.7083 14.81-4.418 28.684-14.829 32.625-4.3555 3.485 9.265-7.186 30.2203-20.002 35.3782s-35.838 17.7569-39.781 7.6856z" opacity=".2"/><path d="m300.03 590.821c-3.942-10.072 8.13-25.686 25.342-30.821 14.81-4.418 29.195-3.864 33.135 6.609 3.486 9.265-7.696 19.256-20.512 24.414s-34.022 9.869-37.965-.202z" opacity=".2"/><path d="m478.143 539.483c-8.202-19.283 17.941-62.129 53.703-71.942 30.773-8.444 80.463 8.826 88.661 28.878 7.252 17.738-40.247 14.804-66.875 24.666-26.627 9.862-67.287 37.68-75.489 18.398z" opacity=".2"/></g><g mask="url(#s)"><path d="m-85.8984-51.4021h815.844v690.526h-815.844z" fill="url(#h)"/><path d="m17.0412 168.543c74.807 37.724 158.5658 143.314 158.5658 193.732 0 62.019-131.4989 157.073-191.8134 210.994l514.6984 33.247c-18.329-82.053-64.607-264.468-36.445-304.982 36.445-52.429 183.927-39.642 266.62-30.051l22.378-233.3723c-40.28 16.8369-130.433 65.2163-179.664 52.4288-45.571-11.8366-132.991-62.872-170.075-95.26704" stroke="#fff" stroke-opacity=".2" stroke-width="15"/><path d="m209.493 111c20.46 106.562 76.086 301.913 134.909 230.814 73.528-88.873 131.711-203.961 186.698-127.875 43.989 60.869 108.694 180.944 135.548 233.372" stroke="#fff" stroke-opacity=".2" stroke-width="15"/><path clip-rule="evenodd" d="m440.072 173.136c0 4.477-3.63 8.106-8.107 8.106-4.476 0-8.106-3.629-8.106-8.106s3.63-8.106 8.106-8.106c4.477 0 8.107 3.629 8.107 8.106zm-335.392 175.295c4.477 0 8.106-3.629 8.106-8.106s-3.629-8.106-8.106-8.106-8.1063 3.629-8.1063 8.106 3.6293 8.106 8.1063 8.106zm176.308 103.354c4.477 0 8.107-3.63 8.107-8.106 0-4.477-3.63-8.107-8.107-8.107-4.476 0-8.106 3.63-8.106 8.107 0 4.476 3.63 8.106 8.106 8.106zm277.636-119.566c4.477 0 8.106-3.629 8.106-8.106s-3.629-8.106-8.106-8.106-8.106 3.629-8.106 8.106 3.629 8.106 8.106 8.106z" fill="#fff" fill-opacity=".6" fill-rule="evenodd"/><g stroke="#fff" stroke-opacity=".4" stroke-width="8"><circle cx="74.2819" cy="428.48" r="18.2919"/><circle cx="661.977" cy="147.805" r="18.2919"/><circle cx="408.66" cy="383.896" r="18.2919"/></g></g><g filter="url(#a)"><rect fill="#fff" height="89.1676" rx="10" width="89.1676" x="459.324" y="101.194"/></g><path d="m495.762 163.848h-6.333c-1.12 0-2.194-.445-2.986-1.237-.791-.792-1.236-1.866-1.236-2.985v-14.777c0-1.12.445-2.194 1.236-2.985.792-.792 1.866-1.237 2.986-1.237h6.333m14.776-4.222v-8.444c0-1.679-.667-3.29-1.854-4.478-1.188-1.188-2.799-1.855-4.479-1.855l-8.443 18.999v23.221h23.811c1.019.011 2.007-.346 2.782-1.005.776-.66 1.288-1.577 1.44-2.584l2.913-18.999c.092-.605.052-1.223-.119-1.81-.171-.588-.467-1.132-.869-1.594-.401-.462-.899-.831-1.457-1.081-.558-.251-1.164-.377-1.776-.37z" stroke="#784ac1" stroke-linecap="round" stroke-linejoin="round" stroke-width="2"/><g filter="url(#b)"><path d="m446.579 10h-27.794c-3.836 0-6.945 3.0879-6.945 6.8971v27.604c0 3.8091 3.109 6.8971 6.945 6.8971h27.794c3.836 0 6.945-3.088 6.945-6.8971v-27.604c0-3.8092-3.109-6.8971-6.945-6.8971z" fill="#56ccf2"/></g><g clip-path="url(#p)"><g clip-path="url(#q)" stroke="#fff" stroke-linecap="round" stroke-linejoin="round" stroke-width="2"><path d="m433.361 33.3052c1.679 0 3.04-1.361 3.04-3.0398s-1.361-3.0398-3.04-3.0398-3.04 1.361-3.04 3.0398 1.361 3.0398 3.04 3.0398z"/><path d="m440.859 33.3051c-.134.3056-.175.6447-.115.9734s.216.632.45.8708l.061.0608c.188.1882.338.4117.44.6577.101.246.154.5097.154.776 0 .2664-.053.5301-.154.7761-.102.246-.252.4695-.44.6577-.189.1884-.412.3379-.658.4399s-.51.1545-.776.1545-.53-.0525-.776-.1545-.47-.2515-.658-.4399l-.061-.0608c-.239-.2336-.542-.3903-.871-.4499-.328-.0596-.667-.0193-.973.1155-.3.1285-.555.3418-.735.6136-.18.2719-.277.5904-.278.9165v.1722c0 .5375-.214 1.053-.594 1.433-.38.3801-.895.5936-1.433.5936-.537 0-1.053-.2135-1.433-.5936-.38-.38-.593-.8955-.593-1.433v-.0912c-.008-.3353-.117-.6606-.312-.9335-.195-.2728-.468-.4807-.783-.5965-.305-.1349-.644-.1751-.973-.1155s-.632.2163-.871.4499l-.06.0608c-.189.1884-.412.3379-.658.4399-.246.1019-.51.1544-.776.1544-.267 0-.53-.0525-.776-.1544-.246-.102-.47-.2515-.658-.4399-.188-.1882-.338-.4117-.44-.6577-.102-.2461-.154-.5098-.154-.7761s.052-.53.154-.776.252-.4696.44-.6578l.061-.0608c.233-.2388.39-.5421.45-.8708.059-.3287.019-.6677-.116-.9733-.128-.2997-.342-.5553-.613-.7353-.272-.1801-.591-.2767-.917-.278h-.172c-.538 0-1.053-.2135-1.433-.5935-.38-.3801-.594-.8955-.594-1.433s.214-1.0529.594-1.433c.38-.38.895-.5935 1.433-.5935h.091c.335-.0079.661-.1165.934-.3116.272-.1952.48-.4679.596-.7828.135-.3056.175-.6446.116-.9733-.06-.3287-.217-.632-.45-.8708l-.061-.0608c-.188-.1882-.338-.4117-.44-.6577-.102-.2461-.154-.5098-.154-.7761s.052-.53.154-.776c.102-.2461.252-.4696.44-.6578.188-.1884.412-.3379.658-.4398.246-.102.509-.1545.776-.1545.266 0 .53.0525.776.1545.246.1019.469.2514.657.4398l.061.0608c.239.2336.542.3903.871.4499s.668.0194.973-.1155h.081c.3-.1284.556-.3417.736-.6136.18-.2718.276-.5904.278-.9164v-.1723c0-.5375.213-1.0529.593-1.433.38-.38.896-.5935 1.433-.5935.538 0 1.053.2135 1.433.5935.38.3801.594.8955.594 1.433v.0912c.001.3261.098.6446.278.9165.18.2718.435.4851.735.6135.306.1349.645.1752.973.1156.329-.0596.632-.2163.871-.4499l.061-.0608c.188-.1884.412-.3379.658-.4399s.509-.1545.776-.1545c.266 0 .53.0525.776.1545s.469.2515.658.4399c.188.1882.337.4117.439.6577s.155.5097.155.776c0 .2664-.053.5301-.155.7761s-.251.4695-.439.6577l-.061.0608c-.234.2388-.391.5421-.45.8708-.06.3287-.019.6677.115.9734v.081c.129.2997.342.5553.614.7353.272.1801.59.2767.916.278h.173c.537 0 1.053.2135 1.433.5936.38.38.593.8955.593 1.4329 0 .5375-.213 1.053-.593 1.433-.38.3801-.896.5936-1.433.5936h-.092c-.326.0013-.644.0979-.916.2779s-.485.4356-.614.7353z"/></g></g><g filter="url(#c)"><path d="m622.748 114.367h-27.795c-3.835 0-6.944 3.088-6.944 6.897v27.604c0 3.809 3.109 6.897 6.944 6.897h27.795c3.835 0 6.945-3.088 6.945-6.897v-27.604c0-3.809-3.11-6.897-6.945-6.897z" fill="#f2c94c"/></g><path d="m618.407 131.592c0-5.066-4.053-9.119-9.12-9.119-5.066 0-9.119 4.053-9.119 9.119 0 3.141 1.621 5.978 4.053 7.6v2.533c0 1.317.81 2.432 2.026 2.837v.203c0 1.722 1.318 3.039 3.04 3.039 1.723 0 3.04-1.317 3.04-3.039v-.203c1.216-.405 2.027-1.52 2.027-2.837v-2.533c2.431-1.622 4.053-4.459 4.053-7.6zm-16.213 0c0-3.952 3.141-7.093 7.093-7.093s7.093 3.141 7.093 7.093c0 3.547-2.634 6.485-6.08 6.992v-2.534l1.723-1.722c.405-.405.405-1.013 0-1.419-.405-.405-1.013-.405-1.419 0l-1.317 1.318-1.317-1.318c-.405-.405-1.013-.405-1.419 0-.405.406-.405 1.014 0 1.419l1.723 1.722v2.534c-3.445-.507-6.08-3.445-6.08-6.992zm7.093 14.186c-.608 0-1.013-.405-1.013-1.013h2.026c0 .608-.405 1.013-1.013 1.013zm3.04-4.053c0 .608-.405 1.013-1.013 1.013h-4.053c-.608 0-1.014-.405-1.014-1.013v-1.52c.912.304 1.926.506 3.04.506 1.115 0 2.128-.202 3.04-.506z" fill="#fff"/><g filter="url(#d)"><path d="m399.829 114.367h-27.794c-3.836 0-6.945 3.088-6.945 6.897v27.604c0 3.809 3.109 6.897 6.945 6.897h27.794c3.836 0 6.945-3.088 6.945-6.897v-27.604c0-3.809-3.109-6.897-6.945-6.897z" fill="#f58a8a"/></g><path d="m385.738 144.765c5.596 0 10.132-4.537 10.132-10.133s-4.536-10.133-10.132-10.133-10.133 4.537-10.133 10.133 4.537 10.133 10.133 10.133z" stroke="#fff" stroke-linecap="round" stroke-linejoin="round" stroke-width="2"/><path d="m385.738 140.711c3.357 0 6.079-2.721 6.079-6.079s-2.722-6.08-6.079-6.08c-3.358 0-6.08 2.722-6.08 6.08s2.722 6.079 6.08 6.079z" stroke="#fff" stroke-linecap="round" stroke-linejoin="round" stroke-width="2"/><path d="m385.738 136.658c1.119 0 2.026-.907 2.026-2.026s-.907-2.027-2.026-2.027c-1.12 0-2.027.908-2.027 2.027s.907 2.026 2.027 2.026z" stroke="#fff" stroke-linecap="round" stroke-linejoin="round" stroke-width="2"/><g filter="url(#e)"><path d="m576.138 10h-27.795c-3.835 0-6.945 3.0879-6.945 6.8971v27.604c0 3.8091 3.11 6.8971 6.945 6.8971h27.795c3.835 0 6.944-3.088 6.944-6.8971v-27.604c0-3.8092-3.109-6.8971-6.944-6.8971z" fill="#0ad1bd"/></g><path d="m561.244 21.6104-6.544 5.2352h-5.235v7.8528h5.235l6.544 5.2352z" stroke="#fff" stroke-linecap="round" stroke-linejoin="round" stroke-width="2"/><path d="m571.806 21.5188c2.454 2.4544 3.832 5.7828 3.832 9.2532 0 3.4705-1.378 6.7989-3.832 9.2533m-4.62-13.8864c1.227 1.2272 1.916 2.8914 1.916 4.6266s-.689 3.3994-1.916 4.6266" stroke="#fff" stroke-linecap="round" stroke-linejoin="round" stroke-width="2"/><path d="m507.343 185.295c-1.131 4.423.402 6.972 1.608 7.6 2.394 1.246 5.066 2.806 5.066 2.806s16.647 28.518 21.472 30.559c5.63 2.381 18.496 3.619 18.496 3.619l5.629-11.258s-12.866-2.815-18.495-4.021c-3.794-.813-20.507-18.899-20.507-18.899l3.217-5.629h-6.032c-4.423-3.217-6.819-9.843-6.819-9.843s-2.863 2.047-3.635 5.066z" fill="url(#j)"/><path d="m573.294 236.465c-2.027-2.026-13.68-5.235-19.252-6.586l5.572-11.146c2.196 0 8.613-.507 16.719-2.533 10.133-2.533 13.68-11.653 25.332-2.027 9.322 7.701 25.501 41.376 32.425 57.25-10.889 10.379-18.121 13.749-32.425 16.719-.844-1.689-3.344-7.397-6.586-16.719-4.053-11.653-16.719-11.653-18.746-15.706-2.026-4.053-.506-16.719-3.039-19.252z" fill="url(#k)"/><path d="m609.771 351.471c-3.648-8.106-3.715-46.61-5.066-64.342 12.356-2.429 18.881-5.557 29.385-16.213 0 0 17.225 8.106 16.212 26.852-1.013 18.745 6.607 28.21 11.146 34.451 4.053 5.573 13.679 17.394 18.745 25.332l-5.066 9.626c-5.573-5.911-21.887-17.935-30.398-24.825-8.511-6.891-11.315-24.15-12.666-33.438-.844 9.795-5.066 27.763-3.04 33.438 2.027 5.674 23.812 22.798 32.425 31.411l-3.04 8.613c-14.692-6.924-44.989-22.799-48.637-30.905z" fill="url(#l)"/><path d="m567.214 202.014c.405-1.621-.169-6.417.507-8.106 4.863.811 7.599 4.222 8.612 5.573 1.014-.169 2.467-.64 3.04.507.507 1.013 0 3.039-1.52 4.559l3.547 9.626c-1.681 1.092-2.704 1.458-4.56 2.027 1.013-2.533.507-4.56 0-5.573-3.648 2.837-5.066 2.702-6.586 2.533l-1.52-6.586-2.533.506c.506-.844.608-3.445 1.013-5.066z" fill="url(#m)"/><path d="m576.333 199.481c-2.026-2.837-6.924-4.898-9.119-5.573-4.053-3.04-2.027-9.626 7.599-12.666s13.679 5.066 15.706 7.093c2.027 2.026 3.04 8.613 12.159 12.666 9.12 4.053 8.613-1.014 14.186-1.014s8.106 3.547 7.093 6.587c-1.013 3.039-1.52 6.586 4.56 10.639 6.079 4.053.506 9.626 0 15.706-.507 6.079-8.613 3.039-17.226 3.039s-7.093 0-8.613-5.573-4.053-7.599-7.093-9.119c-3.039-1.52-10.132-.507-11.652-2.027-1.216-1.215-4.56-10.301-6.08-14.692.676-1.013 1.925-3.344 1.52-4.56s-2.195-.844-3.04-.506z" fill="#f2994a"/><path d="m557.081 260.783 24.319-1.519c2.837.405 7.599 3.884 9.626 5.573-.676 1.519-2.635 4.559-5.067 4.559-2.431 0-20.265-3.04-28.878-4.559h-2.026v-7.6z" fill="url(#n)"/><path d="m555.055 268.383v-17.225h-8.613v17.225z" fill="#f2c94c"/><path d="m675.127 396.562c-2.432-.406-12.328-9.795-16.719-14.186l3.04-8.613c2.026.844 6.282 2.331 7.093 3.546 1.013 1.52 9.626 19.759 6.586 19.253z" fill="#5a98d0"/><path d="m687.286 385.416c-1.216-2.027-8.613-11.822-12.159-18.239l5.066-9.626c2.365 2.026 2.534 2.026 5.067 5.573 1.178 1.649 3.546 24.825 2.026 22.292z" fill="#5a98d0"/><path d="m635.103 294.221-3.04 15.199c.507 5.573 3.546 19.253 8.613 28.879-6.08-19.253-4.053-33.607-5.573-44.078z" fill="#000" opacity=".2"/><path d="m198.914 521.7-1.52-5.066 8.106-1.52c3.884 2.026 11.349 6.485 10.133 8.106-.405.811-11.315-.676-16.719-1.52z" fill="#d06262"/><path d="m157.877 474.076 4.559 7.6c-.337 5.235-1.418 15.503-3.04 14.692-1.621-.81-6.755-13.848-9.119-20.265z" fill="#d06262"/><path d="m131.357 428.472c-5.4-5.608-10.307-16.18-12.085-20.765 5.196-2.513 16.742-8.256 21.363-11.123 4.62-2.867 13.384-9.372 17.188-12.265 2.219 2 8.676 6.935 16.753 10.669 20.743 9.794 32.59 22.441 36.685 33.767 3.275 9.06-10.144 22.471-17.768 28.09-4.417-7.506-7.074-10.542-12.311-17.692l1.78-8.304-10.461-3.108c1.546 2.062 6.614 8.854 14.515 19.524 14.256 17.819 19.193 48.264 19.88 61.259-2.66.584-9.209 1.661-14.126 1.3-.581-6.313-8.49-20.335-16.041-32.749-1.536 1.838-3.665 4.035-4.905 4.149-6.277-1.865-8.222-10.098-8.409-13.981l4.744-3.973c-.651-1.039-1.259-2.013-1.816-2.91-7.765-12.514-28.235-24.877-34.986-31.888z" fill="#1f3f68"/><path d="m159.748 383.124c-14.727 11.361-45.211 31.734-49.331 22.345-5.15-11.737-4.14-11.83-6.988-15.13-2.847-3.299-3.5432-10.867-4.8307-13.801-.647-1.475-5.8637-7.926-10.034-15.866 0 0-.1253-.23-.3372-.65-2.9607-5.778-5.2991-12.28-4.9144-18.201.2943-8.676 6.894-14.272 6.894-14.272 3.9333-4.193 7.6225-4.897 8.9003-4.785l.0236.017c3.0754 2.091 7.6214 5.183 9.2324 5.034 1.614-.148 3.916-3.196 5.436-4.716 7.707.818 10.061-1.156 16.085-.335 7.428 1.014 27.486 11.481 43.192-16.384 1.56.366 5.077 1.752 7.599 1.52-8.613 25.332-16.212 33.216-23.305 35.699-5.444 1.906-9.732 2.437-13.12 2.402-.622 3.305-1.448 8.737-2.825 14.276 2.831 5.184 5.824 9.945 8.175 12.079 6.106 5.543 13.001 8.603 10.148 10.768z" fill="#fff"/><path d="m159.459 413.169 13.593 15.03 9.91 2.65-.591 4.633c2.275-2.923 5.191-9.94-1.346-14.63s-17.101-7.077-21.566-7.683z" fill="#000" fill-opacity=".2"/><path d="m168.135 463.248 8.409 13.981-1.374 1.652c-1.241-2.429-4.501-4.673-7.255-6.964-2.204-1.832-2.666-5.012-2.621-6.373z" fill="#000" fill-opacity=".2"/><path d="m129.066 386.964c-14.386-1.526-31.8809-16.571-38.8301-23.902 16.0691 14.294 34.7421 18.173 40.6561 16.102 4.732-1.656 8.36-13.987 10.266-19.08l3.849 6.589c.68 7.4-1.555 21.817-15.941 20.291z" fill="#000" fill-opacity=".2"/><path d="m123.898 358.439c-3.189.583-11.443-6.409-15.147-9.8 13.634 9.939 13.661 4.859 30.887-7.301-.748 1.087-8.107 15.706-15.74 17.101z" fill="#000" fill-opacity=".2"/><path d="m144.704 343.871c-1.736-.348-3.246-.936-5.066-2.533l1.52-3.546c-.169-.845-.406-2.736 0-3.547.405-.81 2.026-1.688 2.533-2.026l-.507 2.533 2.533-3.04 4.053 3.547-.506 3.546-3.04 1.52z" fill="#f2994a"/><path d="m181.688 302.834-1.013 5.066c-1.621.406-5.911-.844-7.599-1.52.506-1.519 2.127-5.573 2.533-7.599.405-2.027 4.222-4.222 6.079-5.066h2.027l-2.027 3.546z" fill="#f2994a"/><path d="m96.5738 312.46c.8106 1.621 3.0398 5.067 4.0532 6.586.675-1.351 1.621-4.357 0-5.573-1.6214-1.215-3.0399-3.208-3.5465-4.053.5066-.337 1.8238-1.013 3.0395-1.013-.8103-6.079 3.378-8.275 5.573-8.613l8.613-.506.507 2.533c3.208-3.04 9.018-9.626 6.586-11.653-3.04-2.533-12.159 4.053-18.239 4.053-6.0795 0-8.6127 3.04-10.1326 6.08s2.5331 10.133 3.5464 12.159z" fill="#316099"/><path d="m108.226 328.166c-1.621 0-6.248-3.209-9.1189-5.067 1.3509-.675 2.0269-3.242 2.0269-4.053 0-1.013 1.013-5.066 0-5.573-1.014-.506-4.0535-2.533-4.0535-3.546 0-.811 2.0266-1.013 3.0395-1.013-.3374-1.689-.405-5.573 2.027-7.6 2.432-2.026 9.119-2.195 12.159-2.026.169.675.811 3.546 2.027 9.626 1.216 6.079-1.52 8.95-3.04 9.626l.506 4.559c-1.182 1.52-3.951 5.067-5.573 5.067z" fill="#f2994a"/><path d="m205.5 515.113-.507-6.079c-3.578.959-5.703 1.128-9.626 1.013l2.027 6.586z" fill="#98c3e8"/><path d="m162.436 481.676 6.08-2.027c-2.714-3.118-3.627-4.896-4.56-8.106l-6.08 2.533z" fill="#98c3e8"/><rect fill="url(#o)" height="191.813" opacity=".8" rx="5" width="269.817" x="189.794" y="230.893"/><path d="m189.794 235.893c0-2.762 2.239-5 5-5h73.004v191.812h-73.004c-2.761 0-5-2.238-5-5z" fill="#fff"/><circle cx="201.954" cy="243.052" fill="#fa9595" r="4.05307"/><circle cx="215.126" cy="243.052" fill="#fdf397" r="4.05307"/><circle cx="227.285" cy="243.052" fill="#c1febb" r="4.05307"/><path clip-rule="evenodd" d="m198.914 338.299h58.769v7.093h-58.769zm0 14.186h58.769v7.092h-58.769zm39.517 16.212h-39.517v7.093h39.517z" fill="#5a98d0" fill-rule="evenodd" opacity=".4"/><path clip-rule="evenodd" d="m378.262 256.224h58.77v7.093h-58.77zm0 14.186h58.77v7.093h-58.77zm39.518 16.212h-39.518v7.093h39.518z" fill="#000" fill-rule="evenodd" opacity=".1"/><g filter="url(#f)"><rect fill="#56ccf2" height="50.6634" rx="5" width="82.0747" x="181.688" y="257.237"/></g><path d="m192.098 277.882h4.896c1.046 0 1.867.283 2.464.848.608.555.912 1.536.912 2.944 0 .992-.17 1.728-.512 2.208-.33.48-.784.843-1.36 1.088l2.208 4.752h-2.416l-1.904-4.384c-.512 0-1.152-.01-1.92-.032v4.416h-2.368zm4.48 5.552c.459 0 .811-.128 1.056-.384.246-.266.368-.725.368-1.376 0-.629-.122-1.061-.368-1.296-.245-.245-.597-.368-1.056-.368h-2.112v3.424zm9.919 6.384c-.608 0-1.258-.037-1.952-.112-.693-.074-1.28-.17-1.76-.288v-1.872c.95.096 2.15.144 3.6.144.651 0 1.142-.085 1.472-.256.331-.181.496-.496.496-.944v-.432c0-.352-.106-.618-.32-.8-.202-.192-.496-.288-.88-.288h-1.008c-1.173 0-2.053-.256-2.64-.768-.576-.512-.864-1.349-.864-2.512v-.576c0-2.218 1.275-3.328 3.824-3.328.598 0 1.216.043 1.856.128.64.075 1.216.166 1.728.272v1.872c-1.461-.096-2.565-.144-3.312-.144-.608 0-1.066.096-1.376.288-.309.182-.464.523-.464 1.024v.32c0 .406.112.704.336.896.235.182.587.272 1.056.272h1.168c1.024 0 1.803.283 2.336.848.544.555.816 1.286.816 2.192v.672c0 .896-.165 1.595-.496 2.096-.33.491-.794.832-1.392 1.024-.597.182-1.338.272-2.224.272zm9.454-.096c-.949 0-1.653-.218-2.112-.656-.458-.437-.688-1.152-.688-2.144v-9.04h2.368v8.656c0 .694.352 1.04 1.056 1.04h3.744v2.144zm8.275.096c-.662 0-1.195-.192-1.6-.576-.395-.394-.592-.928-.592-1.6v-.768c0-.682.234-1.226.704-1.632.48-.405 1.189-.608 2.128-.608h2.192v-.592c0-.288-.048-.512-.144-.672-.096-.17-.278-.293-.544-.368-.267-.085-.662-.128-1.184-.128h-2.576v-1.376c1.056-.32 2.202-.48 3.44-.48 1.13 0 1.973.214 2.528.64.565.427.848 1.168.848 2.224v5.84h-1.872l-.384-.912c-.118.118-.326.256-.624.416-.299.16-.656.299-1.072.416-.406.118-.822.176-1.248.176zm1.232-1.648c.245 0 .549-.053.912-.16.362-.117.592-.202.688-.256v-2l-1.44.096c-.811.064-1.216.416-1.216 1.056v.352c0 .608.352.912 1.056.912zm6.541-7.04h1.952l.416.88c.352-.288.773-.528 1.264-.72.49-.202.97-.304 1.44-.304.97 0 1.658.278 2.064.832.405.555.608 1.302.608 2.24v5.664h-2.368v-5.36c0-.405-.112-.714-.336-.928-.214-.213-.512-.32-.896-.32-.587 0-1.179.214-1.776.64v5.968h-2.368zm18.427 1.296-1.312.24c.192.203.347.438.464.704.118.267.176.63.176 1.088 0 .8-.25 1.44-.752 1.92-.501.47-1.285.704-2.352.704h-1.52c-.65 0-.976.198-.976.592 0 .171.07.294.208.368.15.075.331.112.544.112h2.368c1.024 0 1.798.208 2.32.624.523.406.784 1.056.784 1.952v.24c0 .864-.272 1.531-.816 2-.544.48-1.36.72-2.448.72h-2.576c-.832 0-1.509-.181-2.032-.544-.522-.362-.784-.869-.784-1.52v-.256c0-.426.118-.8.352-1.12.235-.32.55-.57.944-.752-.576-.341-.864-.816-.864-1.424 0-.426.123-.784.368-1.072.256-.298.608-.501 1.056-.608-.48-.256-.832-.597-1.056-1.024-.213-.426-.32-.906-.32-1.44 0-.949.294-1.653.88-2.112.587-.458 1.483-.688 2.688-.688h4.656zm-4.048 2.88c.459 0 .779-.101.96-.304.182-.202.272-.496.272-.88 0-.437-.096-.746-.288-.928-.192-.192-.485-.288-.88-.288h-.896c-.416 0-.725.091-.928.272-.192.182-.288.486-.288.912 0 .416.091.726.272.928.192.192.48.288.864.288zm-1.216 4.624c-.362 0-.656.086-.88.256-.213.171-.32.411-.32.72v.176c0 .31.102.544.304.704.214.16.523.24.928.24h1.632c.406 0 .726-.08.96-.24.235-.149.352-.378.352-.688v-.256c0-.288-.106-.512-.32-.672-.202-.16-.512-.24-.928-.24z" fill="#fff"/><rect fill="#aa5ddb" height="78.0216" rx="5" width="80.0481" x="285.042" y="249.131"/><g clip-path="url(#r)" stroke="#fff" stroke-linecap="round" stroke-linejoin="round" stroke-width="2"><path d="m324.942 277.502c-.807 0-1.58.321-2.15.891s-.89 1.343-.89 2.149v8.106c0 .807.32 1.58.89 2.15s1.343.89 2.15.89c.806 0 1.579-.32 2.149-.89s.89-1.343.89-2.15v-8.106c0-.806-.32-1.579-.89-2.149s-1.343-.891-2.149-.891z"/><path d="m332.034 286.622v2.026c0 1.882-.747 3.686-2.077 5.016s-3.134 2.077-5.015 2.077c-1.882 0-3.686-.747-5.016-2.077s-2.077-3.134-2.077-5.016v-2.026"/><path d="m324.941 295.741v4.054"/><path d="m320.888 299.794h8.107"/></g><g filter="url(#g)"><rect fill="#0ad1bd" height="63.8359" rx="5" width="156.043" x="285.042" y="340.325"/></g><path d="m298.721 385.922c9.626-6.586 13.679-15.199 31.918-15.199 18.238 0 19.839 10.133 30.904 10.133 13.173 0 25.839-19.759 40.024-19.759 14.186 0 17.733 10.133 25.332 10.639" stroke="#000" stroke-linecap="round" stroke-linejoin="round" stroke-opacity=".1" stroke-width="2"/><path d="m298.214 386.429c9.626-6.586 12.159-25.838 30.398-25.838s22.373 16.719 33.438 16.719c13.172 0 24.825-27.359 39.011-27.359 14.185 0 18.745 21.279 26.345 21.786" stroke="#fff" stroke-linecap="round" stroke-linejoin="round" stroke-width="2"/></svg>